<svg xmlns="http://www.w3.org/2000/svg" width="960" height="500"><defs><style type="text/css">
text {
  font-size: 14px;
  font-family: sans-serif;
}

.axis path,
.axis line {
  fill: none;
  stroke: #000;
  shape-rendering: crispEdges;
}

.line {
  fill: none;
  stroke-width: 1.5px;
}

.data-series-0 {
  stroke: steelblue;
  fill: steelblue;
}

.data-series-1 {
  stroke: crimson;
  fill: crimson;
}

.data-series-2 {
  stroke: mediumseagreen;
  fill: mediumseagreen;
}

.data-series-3 {
  stroke: mediumslateblue;
  fill: mediumslateblue;
}

.data-series-4 {
  stroke: goldenrod;
  fill: goldenrod;
}

.error-bar {
  fill: none;
}
</style></defs><g transform="translate(80,40)"><g transform="translate(420, 0)"><text style="text-anchor: middle; font-size: 28px;">Append two structures together</text></g><g class="x axis" transform="translate(0,400)"><g class="tick" transform="translate(68.57142857142857,0)" style="opacity: 1;"><line y2="6" x2="0"/><text dy=".71em" y="9" x="0" style="text-anchor: middle;">20,000</text></g><g class="tick" transform="translate(154.2857142857143,0)" style="opacity: 1;"><line y2="6" x2="0"/><text dy=".71em" y="9" x="0" style="text-anchor: middle;">40,000</text></g><g class="tick" transform="translate(240,0)" style="opacity: 1;"><line y2="6" x2="0"/><text dy=".71em" y="9" x="0" style="text-anchor: middle;">60,000</text></g><g class="tick" transform="translate(325.7142857142857,0)" style="opacity: 1;"><line y2="6" x2="0"/><text dy=".71em" y="9" x="0" style="text-anchor: middle;">80,000</text></g><g class="tick" transform="translate(411.42857142857144,0)" style="opacity: 1;"><line y2="6" x2="0"/><text dy=".71em" y="9" x="0" style="text-anchor: middle;">100,000</text></g><g class="tick" transform="translate(497.1428571428571,0)" style="opacity: 1;"><line y2="6" x2="0"/><text dy=".71em" y="9" x="0" style="text-anchor: middle;">120,000</text></g><g class="tick" transform="translate(582.8571428571429,0)" style="opacity: 1;"><line y2="6" x2="0"/><text dy=".71em" y="9" x="0" style="text-anchor: middle;">140,000</text></g><g class="tick" transform="translate(668.5714285714286,0)" style="opacity: 1;"><line y2="6" x2="0"/><text dy=".71em" y="9" x="0" style="text-anchor: middle;">160,000</text></g><g class="tick" transform="translate(754.2857142857143,0)" style="opacity: 1;"><line y2="6" x2="0"/><text dy=".71em" y="9" x="0" style="text-anchor: middle;">180,000</text></g><g class="tick" transform="translate(840,0)" style="opacity: 1;"><line y2="6" x2="0"/><text dy=".71em" y="9" x="0" style="text-anchor: middle;">200,000</text></g><path class="domain" d="M0,6V0H840V6"/><text x="420" y="40" style="text-anchor: middle;">Number of elements in each structure</text></g><g class="y axis"><g class="tick" transform="translate(0,367.6944676446658)" style="opacity: 1;"><line x2="-6" y2="0"/><text dy=".32em" x="-9" y="0" style="text-anchor: end;">5.00e-4</text></g><g class="tick" transform="translate(0,335.02999499573036)" style="opacity: 1;"><line x2="-6" y2="0"/><text dy=".32em" x="-9" y="0" style="text-anchor: end;">1.00e-3</text></g><g class="tick" transform="translate(0,302.365522346795)" style="opacity: 1;"><line x2="-6" y2="0"/><text dy=".32em" x="-9" y="0" style="text-anchor: end;">1.50e-3</text></g><g class="tick" transform="translate(0,269.7010496978595)" style="opacity: 1;"><line x2="-6" y2="0"/><text dy=".32em" x="-9" y="0" style="text-anchor: end;">2.00e-3</text></g><g class="tick" transform="translate(0,237.0365770489241)" style="opacity: 1;"><line x2="-6" y2="0"/><text dy=".32em" x="-9" y="0" style="text-anchor: end;">2.50e-3</text></g><g class="tick" transform="translate(0,204.3721043999887)" style="opacity: 1;"><line x2="-6" y2="0"/><text dy=".32em" x="-9" y="0" style="text-anchor: end;">3.00e-3</text></g><g class="tick" transform="translate(0,171.70763175105327)" style="opacity: 1;"><line x2="-6" y2="0"/><text dy=".32em" x="-9" y="0" style="text-anchor: end;">3.50e-3</text></g><g class="tick" transform="translate(0,139.04315910211787)" style="opacity: 1;"><line x2="-6" y2="0"/><text dy=".32em" x="-9" y="0" style="text-anchor: end;">4.00e-3</text></g><g class="tick" transform="translate(0,106.37868645318247)" style="opacity: 1;"><line x2="-6" y2="0"/><text dy=".32em" x="-9" y="0" style="text-anchor: end;">4.50e-3</text></g><g class="tick" transform="translate(0,73.71421380424698)" style="opacity: 1;"><line x2="-6" y2="0"/><text dy=".32em" x="-9" y="0" style="text-anchor: end;">5.00e-3</text></g><g class="tick" transform="translate(0,41.049741155311594)" style="opacity: 1;"><line x2="-6" y2="0"/><text dy=".32em" x="-9" y="0" style="text-anchor: end;">5.50e-3</text></g><g class="tick" transform="translate(0,8.385268506376153)" style="opacity: 1;"><line x2="-6" y2="0"/><text dy=".32em" x="-9" y="0" style="text-anchor: end;">6.00e-3</text></g><path class="domain" d="M-6,0H0V400H-6"/><text transform="rotate(-90)" y="6" dy=".71em" style="text-anchor: end;">Mean running time (seconds)</text></g><g class="data-series-0"><circle cx="0" cy="400" r="3"/><circle cx="17.142857142857142" cy="399.59066128050955" r="3"/><circle cx="34.285714285714285" cy="399.1816346735125" r="3"/><circle cx="51.42857142857143" cy="398.7935010785372" r="3"/><circle cx="68.57142857142857" cy="398.40826188533475" r="3"/><circle cx="85.71428571428572" cy="398.0466139325774" r="3"/><circle cx="102.85714285714286" cy="397.6485784845874" r="3"/><circle cx="120" cy="397.2400164321988" r="3"/><circle cx="137.14285714285714" cy="396.9002497063268" r="3"/><circle cx="154.2857142857143" cy="396.47418769214926" r="3"/><circle cx="171.42857142857144" cy="396.1143311318191" r="3"/><circle cx="188.57142857142858" cy="395.74685968720854" r="3"/><circle cx="205.71428571428572" cy="395.33629247772353" r="3"/><circle cx="222.85714285714286" cy="394.94181613042156" r="3"/><circle cx="240" cy="394.5137602716137" r="3"/><circle cx="257.14285714285717" cy="394.12771736594584" r="3"/><circle cx="274.2857142857143" cy="254.70153519929917" r="3"/><circle cx="291.42857142857144" cy="232.29946501597593" r="3"/><circle cx="308.5714285714286" cy="216.01039195681878" r="3"/><circle cx="325.7142857142857" cy="210.1197022792416" r="3"/><circle cx="342.8571428571429" cy="205.9920778936184" r="3"/><circle cx="360" cy="203.4390811258188" r="3"/><circle cx="377.14285714285717" cy="196.71438254230443" r="3"/><circle cx="394.2857142857143" cy="190.44531546782667" r="3"/><circle cx="411.42857142857144" cy="187.71696257155864" r="3"/><circle cx="428.57142857142856" cy="180.95119650775803" r="3"/><circle cx="445.7142857142857" cy="174.12448515581266" r="3"/><circle cx="462.85714285714283" cy="167.15977175209972" r="3"/><circle cx="480" cy="162.47300341743332" r="3"/><circle cx="497.1428571428571" cy="155.67572163972065" r="3"/><circle cx="514.2857142857143" cy="145.51780367448757" r="3"/><circle cx="531.4285714285714" cy="143.37606005156545" r="3"/><circle cx="548.5714285714286" cy="149.81829275200397" r="3"/><circle cx="565.7142857142857" cy="140.7267556097148" r="3"/><circle cx="582.8571428571429" cy="139.61739032363835" r="3"/><circle cx="600" cy="132.39536090475755" r="3"/><circle cx="617.1428571428572" cy="118.74317322046251" r="3"/><circle cx="634.2857142857142" cy="122.46821584754342" r="3"/><circle cx="651.4285714285714" cy="114.47302988084891" r="3"/><circle cx="668.5714285714286" cy="105.13849588082502" r="3"/><circle cx="685.7142857142858" cy="100.28344673738334" r="3"/><circle cx="702.8571428571429" cy="99.00559946882161" r="3"/><circle cx="720" cy="87.98480347135929" r="3"/><circle cx="737.1428571428571" cy="81.96305619307105" r="3"/><circle cx="754.2857142857143" cy="77.36010411405752" r="3"/><circle cx="771.4285714285714" cy="16.371243979219628" r="3"/><circle cx="788.5714285714286" cy="65.53748313402164" r="3"/><circle cx="805.7142857142857" cy="55.26472575262562" r="3"/><circle cx="822.8571428571429" cy="62.813772179417704" r="3"/><circle cx="840" cy="0" r="3"/><path class="error-bar" x="0" y="400" d="M 0 400 V 399.9951202384299 h -3 h 6 h -3 V 400.0048797615701 h -3 h 6"/><path class="error-bar" x="17.142857142857142" y="399.59066128050955" d="M 17.142857142857142 399.59066128050955 V 399.583561169643 h -3 h 6 h -3 V 399.5977613913761 h -3 h 6"/><path class="error-bar" x="34.285714285714285" y="399.1816346735125" d="M 34.285714285714285 399.1816346735125 V 399.16357902726344 h -3 h 6 h -3 V 399.19969031976154 h -3 h 6"/><path class="error-bar" x="51.42857142857143" y="398.7935010785372" d="M 51.42857142857143 398.7935010785372 V 398.7652294433717 h -3 h 6 h -3 V 398.8217727137026 h -3 h 6"/><path class="error-bar" x="68.57142857142857" y="398.40826188533475" d="M 68.57142857142857 398.40826188533475 V 398.3776884079786 h -3 h 6 h -3 V 398.4388353626909 h -3 h 6"/><path class="error-bar" x="85.71428571428572" y="398.0466139325774" d="M 85.71428571428572 398.0466139325774 V 398.0131111583299 h -3 h 6 h -3 V 398.0801167068249 h -3 h 6"/><path class="error-bar" x="102.85714285714286" y="397.6485784845874" d="M 102.85714285714286 397.6485784845874 V 397.6236682616602 h -3 h 6 h -3 V 397.6734887075146 h -3 h 6"/><path class="error-bar" x="120" y="397.2400164321988" d="M 120 397.2400164321988 V 397.1882245411606 h -3 h 6 h -3 V 397.2918083232369 h -3 h 6"/><path class="error-bar" x="137.14285714285714" y="396.9002497063268" d="M 137.14285714285714 396.9002497063268 V 396.8432831224749 h -3 h 6 h -3 V 396.95721629017874 h -3 h 6"/><path class="error-bar" x="154.2857142857143" y="396.47418769214926" d="M 154.2857142857143 396.47418769214926 V 396.38423029218137 h -3 h 6 h -3 V 396.56414509211714 h -3 h 6"/><path class="error-bar" x="171.42857142857144" y="396.1143311318191" d="M 171.42857142857144 396.1143311318191 V 396.0603639497401 h -3 h 6 h -3 V 396.1682983138981 h -3 h 6"/><path class="error-bar" x="188.57142857142858" y="395.74685968720854" d="M 188.57142857142858 395.74685968720854 V 395.685856880926 h -3 h 6 h -3 V 395.80786249349103 h -3 h 6"/><path class="error-bar" x="205.71428571428572" y="395.33629247772353" d="M 205.71428571428572 395.33629247772353 V 395.2589237613154 h -3 h 6 h -3 V 395.41366119413175 h -3 h 6"/><path class="error-bar" x="222.85714285714286" y="394.94181613042156" d="M 222.85714285714286 394.94181613042156 V 394.79592685220973 h -3 h 6 h -3 V 395.08770540863344 h -3 h 6"/><path class="error-bar" x="240" y="394.5137602716137" d="M 240 394.5137602716137 V 394.3489628120094 h -3 h 6 h -3 V 394.67855773121806 h -3 h 6"/><path class="error-bar" x="257.14285714285717" y="394.12771736594584" d="M 257.14285714285717 394.12771736594584 V 394.01186094986434 h -3 h 6 h -3 V 394.2435737820273 h -3 h 6"/><path class="error-bar" x="274.2857142857143" y="254.70153519929917" d="M 274.2857142857143 254.70153519929917 V 245.89486675405513 h -3 h 6 h -3 V 263.5082036445432 h -3 h 6"/><path class="error-bar" x="291.42857142857144" y="232.29946501597593" d="M 291.42857142857144 232.29946501597593 V 221.80740811974755 h -3 h 6 h -3 V 242.79152191220427 h -3 h 6"/><path class="error-bar" x="308.5714285714286" y="216.01039195681878" d="M 308.5714285714286 216.01039195681878 V 204.8700386026105 h -3 h 6 h -3 V 227.15074531102704 h -3 h 6"/><path class="error-bar" x="325.7142857142857" y="210.1197022792416" d="M 325.7142857142857 210.1197022792416 V 198.55018622731868 h -3 h 6 h -3 V 221.68921833116454 h -3 h 6"/><path class="error-bar" x="342.8571428571429" y="205.9920778936184" d="M 342.8571428571429 205.9920778936184 V 195.0821686471442 h -3 h 6 h -3 V 216.90198714009256 h -3 h 6"/><path class="error-bar" x="360" y="203.4390811258188" d="M 360 203.4390811258188 V 191.48756639413068 h -3 h 6 h -3 V 215.39059585750695 h -3 h 6"/><path class="error-bar" x="377.14285714285717" y="196.71438254230443" d="M 377.14285714285717 196.71438254230443 V 185.3436262539633 h -3 h 6 h -3 V 208.08513883064555 h -3 h 6"/><path class="error-bar" x="394.2857142857143" y="190.44531546782667" d="M 394.2857142857143 190.44531546782667 V 177.48798218903352 h -3 h 6 h -3 V 203.40264874661983 h -3 h 6"/><path class="error-bar" x="411.42857142857144" y="187.71696257155864" d="M 411.42857142857144 187.71696257155864 V 175.65588305582202 h -3 h 6 h -3 V 199.7780420872952 h -3 h 6"/><path class="error-bar" x="428.57142857142856" y="180.95119650775803" d="M 428.57142857142856 180.95119650775803 V 167.68703916403584 h -3 h 6 h -3 V 194.21535385148024 h -3 h 6"/><path class="error-bar" x="445.7142857142857" y="174.12448515581266" d="M 445.7142857142857 174.12448515581266 V 160.01182991369808 h -3 h 6 h -3 V 188.23714039792728 h -3 h 6"/><path class="error-bar" x="462.85714285714283" y="167.15977175209972" d="M 462.85714285714283 167.15977175209972 V 152.086341499026 h -3 h 6 h -3 V 182.23320200517338 h -3 h 6"/><path class="error-bar" x="480" y="162.47300341743332" d="M 480 162.47300341743332 V 147.0332513293837 h -3 h 6 h -3 V 177.91275550548292 h -3 h 6"/><path class="error-bar" x="497.1428571428571" y="155.67572163972065" d="M 497.1428571428571 155.67572163972065 V 139.34549842164284 h -3 h 6 h -3 V 172.00594485779845 h -3 h 6"/><path class="error-bar" x="514.2857142857143" y="145.51780367448757" d="M 514.2857142857143 145.51780367448757 V 128.2620165206109 h -3 h 6 h -3 V 162.7735908283643 h -3 h 6"/><path class="error-bar" x="531.4285714285714" y="143.37606005156545" d="M 531.4285714285714 143.37606005156545 V 126.44364022100217 h -3 h 6 h -3 V 160.30847988212872 h -3 h 6"/><path class="error-bar" x="548.5714285714286" y="149.81829275200397" d="M 548.5714285714286 149.81829275200397 V 133.7206906716948 h -3 h 6 h -3 V 165.91589483231317 h -3 h 6"/><path class="error-bar" x="565.7142857142857" y="140.7267556097148" d="M 565.7142857142857 140.7267556097148 V 124.52030728784055 h -3 h 6 h -3 V 156.93320393158902 h -3 h 6"/><path class="error-bar" x="582.8571428571429" y="139.61739032363835" d="M 582.8571428571429 139.61739032363835 V 129.77997159138016 h -3 h 6 h -3 V 149.45480905589656 h -3 h 6"/><path class="error-bar" x="600" y="132.39536090475755" d="M 600 132.39536090475755 V 115.2099259309916 h -3 h 6 h -3 V 149.58079587852345 h -3 h 6"/><path class="error-bar" x="617.1428571428572" y="118.74317322046251" d="M 617.1428571428572 118.74317322046251 V 99.76325044341831 h -3 h 6 h -3 V 137.72309599750673 h -3 h 6"/><path class="error-bar" x="634.2857142857142" y="122.46821584754342" d="M 634.2857142857142 122.46821584754342 V 104.95585979126729 h -3 h 6 h -3 V 139.98057190381954 h -3 h 6"/><path class="error-bar" x="651.4285714285714" y="114.47302988084891" d="M 651.4285714285714 114.47302988084891 V 95.68745353312403 h -3 h 6 h -3 V 133.25860622857385 h -3 h 6"/><path class="error-bar" x="668.5714285714286" y="105.13849588082502" d="M 668.5714285714286 105.13849588082502 V 86.77979567768878 h -3 h 6 h -3 V 123.4971960839613 h -3 h 6"/><path class="error-bar" x="685.7142857142858" y="100.28344673738334" d="M 685.7142857142858 100.28344673738334 V 81.43334137153025 h -3 h 6 h -3 V 119.13355210323644 h -3 h 6"/><path class="error-bar" x="702.8571428571429" y="99.00559946882161" d="M 702.8571428571429 99.00559946882161 V 77.75357078593088 h -3 h 6 h -3 V 120.2576281517124 h -3 h 6"/><path class="error-bar" x="720" y="87.98480347135929" d="M 720 87.98480347135929 V 65.41381129286958 h -3 h 6 h -3 V 110.55579564984899 h -3 h 6"/><path class="error-bar" x="737.1428571428571" y="81.96305619307105" d="M 737.1428571428571 81.96305619307105 V 58.26806633815891 h -3 h 6 h -3 V 105.65804604798319 h -3 h 6"/><path class="error-bar" x="754.2857142857143" y="77.36010411405752" d="M 754.2857142857143 77.36010411405752 V 52.800641818861834 h -3 h 6 h -3 V 101.91956640925319 h -3 h 6"/><path class="error-bar" x="771.4285714285714" y="16.371243979219628" d="M 771.4285714285714 16.371243979219628 V 11.745266188599679 h -3 h 6 h -3 V 20.997221769839534 h -3 h 6"/><path class="error-bar" x="788.5714285714286" y="65.53748313402164" d="M 788.5714285714286 65.53748313402164 V 40.08192979435958 h -3 h 6 h -3 V 90.99303647368365 h -3 h 6"/><path class="error-bar" x="805.7142857142857" y="55.26472575262562" d="M 805.7142857142857 55.26472575262562 V 27.790139013991144 h -3 h 6 h -3 V 82.7393124912601 h -3 h 6"/><path class="error-bar" x="822.8571428571429" y="62.813772179417704" d="M 822.8571428571429 62.813772179417704 V 39.03154254961234 h -3 h 6 h -3 V 86.59600180922307 h -3 h 6"/><path class="error-bar" x="840" y="0" d="M 840 0 V -18.276871171414122 h -3 h 6 h -3 V 18.276871171414122 h -3 h 6"/><path class="line" d="M0,400L17.142857142857142,399.59066128050955L34.285714285714285,399.1816346735125L51.42857142857143,398.7935010785372L68.57142857142857,398.40826188533475L85.71428571428572,398.0466139325774L102.85714285714286,397.6485784845874L120,397.2400164321988L137.14285714285714,396.9002497063268L154.2857142857143,396.47418769214926L171.42857142857144,396.1143311318191L188.57142857142858,395.74685968720854L205.71428571428572,395.33629247772353L222.85714285714286,394.94181613042156L240,394.5137602716137L257.14285714285717,394.12771736594584L274.2857142857143,254.70153519929917L291.42857142857144,232.29946501597593L308.5714285714286,216.01039195681878L325.7142857142857,210.1197022792416L342.8571428571429,205.9920778936184L360,203.4390811258188L377.14285714285717,196.71438254230443L394.2857142857143,190.44531546782667L411.42857142857144,187.71696257155864L428.57142857142856,180.95119650775803L445.7142857142857,174.12448515581266L462.85714285714283,167.15977175209972L480,162.47300341743332L497.1428571428571,155.67572163972065L514.2857142857143,145.51780367448757L531.4285714285714,143.37606005156545L548.5714285714286,149.81829275200397L565.7142857142857,140.7267556097148L582.8571428571429,139.61739032363835L600,132.39536090475755L617.1428571428572,118.74317322046251L634.2857142857142,122.46821584754342L651.4285714285714,114.47302988084891L668.5714285714286,105.13849588082502L685.7142857142858,100.28344673738334L702.8571428571429,99.00559946882161L720,87.98480347135929L737.1428571428571,81.96305619307105L754.2857142857143,77.36010411405752L771.4285714285714,16.371243979219628L788.5714285714286,65.53748313402164L805.7142857142857,55.26472575262562L822.8571428571429,62.813772179417704L840,0"/></g><g class="data-series-1"><circle cx="0" cy="395.663351617722" r="3"/><circle cx="17.142857142857142" cy="395.3082497500847" r="3"/><circle cx="34.285714285714285" cy="395.2249965352517" r="3"/><circle cx="51.42857142857143" cy="395.38553849811785" r="3"/><circle cx="68.57142857142857" cy="395.00174635467835" r="3"/><circle cx="85.71428571428572" cy="395.0161765409038" r="3"/><circle cx="102.85714285714286" cy="394.65250171258066" r="3"/><circle cx="120" cy="394.76843572033647" r="3"/><circle cx="137.14285714285714" cy="394.36127199360106" r="3"/><circle cx="154.2857142857143" cy="394.6216406653855" r="3"/><circle cx="171.42857142857144" cy="394.32054067081435" r="3"/><circle cx="188.57142857142858" cy="394.66774929016293" r="3"/><circle cx="205.71428571428572" cy="394.5929420188224" r="3"/><circle cx="222.85714285714286" cy="394.48810146925507" r="3"/><circle cx="240" cy="394.44644473935153" r="3"/><circle cx="257.14285714285717" cy="394.32401793357604" r="3"/><circle cx="274.2857142857143" cy="394.39332347936875" r="3"/><circle cx="291.42857142857144" cy="394.43121544837163" r="3"/><circle cx="308.5714285714286" cy="394.45720454336504" r="3"/><circle cx="325.7142857142857" cy="394.1555182269321" r="3"/><circle cx="342.8571428571429" cy="394.1924206098764" r="3"/><circle cx="360" cy="393.8576816106755" r="3"/><circle cx="377.14285714285717" cy="394.0016374359247" r="3"/><circle cx="394.2857142857143" cy="394.3133277858333" r="3"/><circle cx="411.42857142857144" cy="394.21593335031775" r="3"/><circle cx="428.57142857142856" cy="394.324012586492" r="3"/><circle cx="445.7142857142857" cy="393.6899729618126" r="3"/><circle cx="462.85714285714283" cy="394.3064316969809" r="3"/><circle cx="480" cy="393.91748905329047" r="3"/><circle cx="497.1428571428571" cy="394.22628758626115" r="3"/><circle cx="514.2857142857143" cy="394.02300180384395" r="3"/><circle cx="531.4285714285714" cy="393.2558367544196" r="3"/><circle cx="548.5714285714286" cy="393.78478590773807" r="3"/><circle cx="565.7142857142857" cy="394.0195494171008" r="3"/><circle cx="582.8571428571429" cy="393.77591091551363" r="3"/><circle cx="600" cy="393.98135241425905" r="3"/><circle cx="617.1428571428572" cy="394.08838649678046" r="3"/><circle cx="634.2857142857142" cy="394.16109947516304" r="3"/><circle cx="651.4285714285714" cy="394.16920400092056" r="3"/><circle cx="668.5714285714286" cy="393.65658062617933" r="3"/><circle cx="685.7142857142858" cy="393.8805669009178" r="3"/><circle cx="702.8571428571429" cy="393.88685299757975" r="3"/><circle cx="720" cy="393.79747514557585" r="3"/><circle cx="737.1428571428571" cy="393.7814968390969" r="3"/><circle cx="754.2857142857143" cy="393.70955561926075" r="3"/><circle cx="771.4285714285714" cy="393.6543360857813" r="3"/><circle cx="788.5714285714286" cy="393.81694636208925" r="3"/><circle cx="805.7142857142857" cy="393.6997338279926" r="3"/><circle cx="822.8571428571429" cy="393.90937301052617" r="3"/><circle cx="840" cy="393.1299568406278" r="3"/><path class="error-bar" x="0" y="395.663351617722" d="M 0 395.663351617722 V 395.4177003816625 h -3 h 6 h -3 V 395.90900285378154 h -3 h 6"/><path class="error-bar" x="17.142857142857142" y="395.3082497500847" d="M 17.142857142857142 395.3082497500847 V 395.04419175795715 h -3 h 6 h -3 V 395.5723077422123 h -3 h 6"/><path class="error-bar" x="34.285714285714285" y="395.2249965352517" d="M 34.285714285714285 395.2249965352517 V 394.9940745013904 h -3 h 6 h -3 V 395.45591856911307 h -3 h 6"/><path class="error-bar" x="51.42857142857143" y="395.38553849811785" d="M 51.42857142857143 395.38553849811785 V 395.2387717282179 h -3 h 6 h -3 V 395.5323052680178 h -3 h 6"/><path class="error-bar" x="68.57142857142857" y="395.00174635467835" d="M 68.57142857142857 395.00174635467835 V 394.9100166732499 h -3 h 6 h -3 V 395.09347603610684 h -3 h 6"/><path class="error-bar" x="85.71428571428572" y="395.0161765409038" d="M 85.71428571428572 395.0161765409038 V 394.8689388892485 h -3 h 6 h -3 V 395.16341419255906 h -3 h 6"/><path class="error-bar" x="102.85714285714286" y="394.65250171258066" d="M 102.85714285714286 394.65250171258066 V 394.15562609447073 h -3 h 6 h -3 V 395.1493773306906 h -3 h 6"/><path class="error-bar" x="120" y="394.76843572033647" d="M 120 394.76843572033647 V 394.51188696538475 h -3 h 6 h -3 V 395.02498447528814 h -3 h 6"/><path class="error-bar" x="137.14285714285714" y="394.36127199360106" d="M 137.14285714285714 394.36127199360106 V 394.26332475314547 h -3 h 6 h -3 V 394.45921923405666 h -3 h 6"/><path class="error-bar" x="154.2857142857143" y="394.6216406653855" d="M 154.2857142857143 394.6216406653855 V 394.28682220724926 h -3 h 6 h -3 V 394.95645912352165 h -3 h 6"/><path class="error-bar" x="171.42857142857144" y="394.32054067081435" d="M 171.42857142857144 394.32054067081435 V 394.00720898881985 h -3 h 6 h -3 V 394.6338723528089 h -3 h 6"/><path class="error-bar" x="188.57142857142858" y="394.66774929016293" d="M 188.57142857142858 394.66774929016293 V 394.4913704543465 h -3 h 6 h -3 V 394.84412812597935 h -3 h 6"/><path class="error-bar" x="205.71428571428572" y="394.5929420188224" d="M 205.71428571428572 394.5929420188224 V 394.3986022485592 h -3 h 6 h -3 V 394.7872817890855 h -3 h 6"/><path class="error-bar" x="222.85714285714286" y="394.48810146925507" d="M 222.85714285714286 394.48810146925507 V 394.1488649715645 h -3 h 6 h -3 V 394.82733796694566 h -3 h 6"/><path class="error-bar" x="240" y="394.44644473935153" d="M 240 394.44644473935153 V 394.1063340784938 h -3 h 6 h -3 V 394.78655540020924 h -3 h 6"/><path class="error-bar" x="257.14285714285717" y="394.32401793357604" d="M 257.14285714285717 394.32401793357604 V 393.9301393241298 h -3 h 6 h -3 V 394.7178965430223 h -3 h 6"/><path class="error-bar" x="274.2857142857143" y="394.39332347936875" d="M 274.2857142857143 394.39332347936875 V 394.053167288772 h -3 h 6 h -3 V 394.7334796699655 h -3 h 6"/><path class="error-bar" x="291.42857142857144" y="394.43121544837163" d="M 291.42857142857144 394.43121544837163 V 394.03720345930367 h -3 h 6 h -3 V 394.8252274374397 h -3 h 6"/><path class="error-bar" x="308.5714285714286" y="394.45720454336504" d="M 308.5714285714286 394.45720454336504 V 394.1167174401707 h -3 h 6 h -3 V 394.79769164655943 h -3 h 6"/><path class="error-bar" x="325.7142857142857" y="394.1555182269321" d="M 325.7142857142857 394.1555182269321 V 393.79086860480027 h -3 h 6 h -3 V 394.52016784906385 h -3 h 6"/><path class="error-bar" x="342.8571428571429" y="394.1924206098764" d="M 342.8571428571429 394.1924206098764 V 393.8179321555918 h -3 h 6 h -3 V 394.5669090641611 h -3 h 6"/><path class="error-bar" x="360" y="393.8576816106755" d="M 360 393.8576816106755 V 393.4716128828041 h -3 h 6 h -3 V 394.24375033854693 h -3 h 6"/><path class="error-bar" x="377.14285714285717" y="394.0016374359247" d="M 377.14285714285717 394.0016374359247 V 393.6112029789083 h -3 h 6 h -3 V 394.39207189294115 h -3 h 6"/><path class="error-bar" x="394.2857142857143" y="394.3133277858333" d="M 394.2857142857143 394.3133277858333 V 393.9795346834369 h -3 h 6 h -3 V 394.64712088822967 h -3 h 6"/><path class="error-bar" x="411.42857142857144" y="394.21593335031775" d="M 411.42857142857144 394.21593335031775 V 393.92336146931285 h -3 h 6 h -3 V 394.50850523132254 h -3 h 6"/><path class="error-bar" x="428.57142857142856" y="394.324012586492" d="M 428.57142857142856 394.324012586492 V 394.21124608758254 h -3 h 6 h -3 V 394.4367790854015 h -3 h 6"/><path class="error-bar" x="445.7142857142857" y="393.6899729618126" d="M 445.7142857142857 393.6899729618126 V 393.5845837238433 h -3 h 6 h -3 V 393.7953621997818 h -3 h 6"/><path class="error-bar" x="462.85714285714283" y="394.3064316969809" d="M 462.85714285714283 394.3064316969809 V 394.174833076543 h -3 h 6 h -3 V 394.43803031741874 h -3 h 6"/><path class="error-bar" x="480" y="393.91748905329047" d="M 480 393.91748905329047 V 393.7053524738911 h -3 h 6 h -3 V 394.12962563268985 h -3 h 6"/><path class="error-bar" x="497.1428571428571" y="394.22628758626115" d="M 497.1428571428571 394.22628758626115 V 394.05680684953876 h -3 h 6 h -3 V 394.3957683229835 h -3 h 6"/><path class="error-bar" x="514.2857142857143" y="394.02300180384395" d="M 514.2857142857143 394.02300180384395 V 393.9408752146661 h -3 h 6 h -3 V 394.10512839302174 h -3 h 6"/><path class="error-bar" x="531.4285714285714" y="393.2558367544196" d="M 531.4285714285714 393.2558367544196 V 392.88855309474275 h -3 h 6 h -3 V 393.6231204140964 h -3 h 6"/><path class="error-bar" x="548.5714285714286" y="393.78478590773807" d="M 548.5714285714286 393.78478590773807 V 393.62767462640767 h -3 h 6 h -3 V 393.94189718906836 h -3 h 6"/><path class="error-bar" x="565.7142857142857" y="394.0195494171008" d="M 565.7142857142857 394.0195494171008 V 393.7926393811257 h -3 h 6 h -3 V 394.2464594530759 h -3 h 6"/><path class="error-bar" x="582.8571428571429" y="393.77591091551363" d="M 582.8571428571429 393.77591091551363 V 393.4694530175137 h -3 h 6 h -3 V 394.0823688135136 h -3 h 6"/><path class="error-bar" x="600" y="393.98135241425905" d="M 600 393.98135241425905 V 393.6540081157946 h -3 h 6 h -3 V 394.3086967127235 h -3 h 6"/><path class="error-bar" x="617.1428571428572" y="394.08838649678046" d="M 617.1428571428572 394.08838649678046 V 393.7718937526631 h -3 h 6 h -3 V 394.40487924089774 h -3 h 6"/><path class="error-bar" x="634.2857142857142" y="394.16109947516304" d="M 634.2857142857142 394.16109947516304 V 393.91814391022876 h -3 h 6 h -3 V 394.4040550400973 h -3 h 6"/><path class="error-bar" x="651.4285714285714" y="394.16920400092056" d="M 651.4285714285714 394.16920400092056 V 393.9592081069081 h -3 h 6 h -3 V 394.379199894933 h -3 h 6"/><path class="error-bar" x="668.5714285714286" y="393.65658062617933" d="M 668.5714285714286 393.65658062617933 V 393.43310024897914 h -3 h 6 h -3 V 393.88006100337947 h -3 h 6"/><path class="error-bar" x="685.7142857142858" y="393.8805669009178" d="M 685.7142857142858 393.8805669009178 V 393.6512517145113 h -3 h 6 h -3 V 394.1098820873243 h -3 h 6"/><path class="error-bar" x="702.8571428571429" y="393.88685299757975" d="M 702.8571428571429 393.88685299757975 V 393.516769478664 h -3 h 6 h -3 V 394.2569365164954 h -3 h 6"/><path class="error-bar" x="720" y="393.79747514557585" d="M 720 393.79747514557585 V 393.2777475698359 h -3 h 6 h -3 V 394.3172027213159 h -3 h 6"/><path class="error-bar" x="737.1428571428571" y="393.7814968390969" d="M 737.1428571428571 393.7814968390969 V 393.27389077298574 h -3 h 6 h -3 V 394.28910290520804 h -3 h 6"/><path class="error-bar" x="754.2857142857143" y="393.70955561926075" d="M 754.2857142857143 393.70955561926075 V 393.2244839396975 h -3 h 6 h -3 V 394.19462729882406 h -3 h 6"/><path class="error-bar" x="771.4285714285714" y="393.6543360857813" d="M 771.4285714285714 393.6543360857813 V 393.18115931552217 h -3 h 6 h -3 V 394.1275128560405 h -3 h 6"/><path class="error-bar" x="788.5714285714286" y="393.81694636208925" d="M 788.5714285714286 393.81694636208925 V 393.4461629019569 h -3 h 6 h -3 V 394.1877298222216 h -3 h 6"/><path class="error-bar" x="805.7142857142857" y="393.6997338279926" d="M 805.7142857142857 393.6997338279926 V 393.2748778511263 h -3 h 6 h -3 V 394.12458980485894 h -3 h 6"/><path class="error-bar" x="822.8571428571429" y="393.90937301052617" d="M 822.8571428571429 393.90937301052617 V 393.44396122018605 h -3 h 6 h -3 V 394.37478480086634 h -3 h 6"/><path class="error-bar" x="840" y="393.1299568406278" d="M 840 393.1299568406278 V 392.5441709276507 h -3 h 6 h -3 V 393.71574275360484 h -3 h 6"/><path class="line" d="M0,395.663351617722L17.142857142857142,395.3082497500847L34.285714285714285,395.2249965352517L51.42857142857143,395.38553849811785L68.57142857142857,395.00174635467835L85.71428571428572,395.0161765409038L102.85714285714286,394.65250171258066L120,394.76843572033647L137.14285714285714,394.36127199360106L154.2857142857143,394.6216406653855L171.42857142857144,394.32054067081435L188.57142857142858,394.66774929016293L205.71428571428572,394.5929420188224L222.85714285714286,394.48810146925507L240,394.44644473935153L257.14285714285717,394.32401793357604L274.2857142857143,394.39332347936875L291.42857142857144,394.43121544837163L308.5714285714286,394.45720454336504L325.7142857142857,394.1555182269321L342.8571428571429,394.1924206098764L360,393.8576816106755L377.14285714285717,394.0016374359247L394.2857142857143,394.3133277858333L411.42857142857144,394.21593335031775L428.57142857142856,394.324012586492L445.7142857142857,393.6899729618126L462.85714285714283,394.3064316969809L480,393.91748905329047L497.1428571428571,394.22628758626115L514.2857142857143,394.02300180384395L531.4285714285714,393.2558367544196L548.5714285714286,393.78478590773807L565.7142857142857,394.0195494171008L582.8571428571429,393.77591091551363L600,393.98135241425905L617.1428571428572,394.08838649678046L634.2857142857142,394.16109947516304L651.4285714285714,394.16920400092056L668.5714285714286,393.65658062617933L685.7142857142858,393.8805669009178L702.8571428571429,393.88685299757975L720,393.79747514557585L737.1428571428571,393.7814968390969L754.2857142857143,393.70955561926075L771.4285714285714,393.6543360857813L788.5714285714286,393.81694636208925L805.7142857142857,393.6997338279926L822.8571428571429,393.90937301052617L840,393.1299568406278"/></g><g class="legend" transform="translate(50, 50)"><rect x="0" y="0" width="15" height="15" class="data-series-0"/><rect x="0" y="20" width="15" height="15" class="data-series-1"/><text x="24" y="13">Array</text><text x="24" y="33">Seq</text></g></g></svg>