<svg xmlns="http://www.w3.org/2000/svg" width="960" height="500"><g transform="translate(80,40)"><g transform="translate(420, 0)"><text style="text-anchor: middle; font-size: 28px;">Apply over a structure with (&lt;*&gt;)</text></g><g class="x axis" transform="translate(0,400)"><g class="tick" transform="translate(68.57142857142857,0)" style="opacity: 1;"><line y2="6" x2="0"/><text dy=".71em" y="9" x="0" style="text-anchor: middle;">500</text></g><g class="tick" transform="translate(154.2857142857143,0)" style="opacity: 1;"><line y2="6" x2="0"/><text dy=".71em" y="9" x="0" style="text-anchor: middle;">1,000</text></g><g class="tick" transform="translate(240,0)" style="opacity: 1;"><line y2="6" x2="0"/><text dy=".71em" y="9" x="0" style="text-anchor: middle;">1,500</text></g><g class="tick" transform="translate(325.7142857142857,0)" style="opacity: 1;"><line y2="6" x2="0"/><text dy=".71em" y="9" x="0" style="text-anchor: middle;">2,000</text></g><g class="tick" transform="translate(411.42857142857144,0)" style="opacity: 1;"><line y2="6" x2="0"/><text dy=".71em" y="9" x="0" style="text-anchor: middle;">2,500</text></g><g class="tick" transform="translate(497.1428571428571,0)" style="opacity: 1;"><line y2="6" x2="0"/><text dy=".71em" y="9" x="0" style="text-anchor: middle;">3,000</text></g><g class="tick" transform="translate(582.8571428571429,0)" style="opacity: 1;"><line y2="6" x2="0"/><text dy=".71em" y="9" x="0" style="text-anchor: middle;">3,500</text></g><g class="tick" transform="translate(668.5714285714286,0)" style="opacity: 1;"><line y2="6" x2="0"/><text dy=".71em" y="9" x="0" style="text-anchor: middle;">4,000</text></g><g class="tick" transform="translate(754.2857142857143,0)" style="opacity: 1;"><line y2="6" x2="0"/><text dy=".71em" y="9" x="0" style="text-anchor: middle;">4,500</text></g><g class="tick" transform="translate(840,0)" style="opacity: 1;"><line y2="6" x2="0"/><text dy=".71em" y="9" x="0" style="text-anchor: middle;">5,000</text></g><path class="domain" d="M0,6V0H840V6"/><text x="420" y="40" style="text-anchor: middle;">Number of elements in the function structure</text></g><g class="y axis"><g class="tick" transform="translate(0,351.2675438234533)" style="opacity: 1;"><line x2="-6" y2="0"/><text dy=".32em" x="-9" y="0" style="text-anchor: end;">0.50</text></g><g class="tick" transform="translate(0,302.43936114760663)" style="opacity: 1;"><line x2="-6" y2="0"/><text dy=".32em" x="-9" y="0" style="text-anchor: end;">1.00</text></g><g class="tick" transform="translate(0,253.61117847175993)" style="opacity: 1;"><line x2="-6" y2="0"/><text dy=".32em" x="-9" y="0" style="text-anchor: end;">1.50</text></g><g class="tick" transform="translate(0,204.78299579591325)" style="opacity: 1;"><line x2="-6" y2="0"/><text dy=".32em" x="-9" y="0" style="text-anchor: end;">2.00</text></g><g class="tick" transform="translate(0,155.95481312006663)" style="opacity: 1;"><line x2="-6" y2="0"/><text dy=".32em" x="-9" y="0" style="text-anchor: end;">2.50</text></g><g class="tick" transform="translate(0,107.12663044421996)" style="opacity: 1;"><line x2="-6" y2="0"/><text dy=".32em" x="-9" y="0" style="text-anchor: end;">3.00</text></g><g class="tick" transform="translate(0,58.29844776837327)" style="opacity: 1;"><line x2="-6" y2="0"/><text dy=".32em" x="-9" y="0" style="text-anchor: end;">3.50</text></g><g class="tick" transform="translate(0,9.470265092526597)" style="opacity: 1;"><line x2="-6" y2="0"/><text dy=".32em" x="-9" y="0" style="text-anchor: end;">4.00</text></g><path class="domain" d="M-6,0H0V400H-6"/><text transform="rotate(-90)" y="6" dy=".71em" style="text-anchor: end;">Mean running time (seconds)</text></g><g class="data-series-0"><circle cx="0" cy="400" r="3"/><circle cx="17.142857142857142" cy="399.9012624324241" r="3"/><circle cx="34.285714285714285" cy="399.79948198013375" r="3"/><circle cx="51.42857142857143" cy="399.7043222643414" r="3"/><circle cx="68.57142857142857" cy="399.59918486412624" r="3"/><circle cx="85.71428571428572" cy="399.4961387483102" r="3"/><circle cx="102.85714285714286" cy="399.3988692844516" r="3"/><circle cx="120" cy="399.3194957187652" r="3"/><circle cx="137.14285714285714" cy="399.21845592406754" r="3"/><circle cx="154.2857142857143" cy="399.11986014649705" r="3"/><circle cx="171.42857142857144" cy="398.67866340904817" r="3"/><circle cx="188.57142857142858" cy="398.7057363840831" r="3"/><circle cx="205.71428571428572" cy="398.5536986021804" r="3"/><circle cx="222.85714285714286" cy="398.4490592051743" r="3"/><circle cx="240" cy="398.39186573072294" r="3"/><circle cx="257.14285714285717" cy="397.8500957570718" r="3"/><circle cx="274.2857142857143" cy="397.8939643422171" r="3"/><circle cx="291.42857142857144" cy="397.517191552493" r="3"/><circle cx="308.5714285714286" cy="397.55257348940927" r="3"/><circle cx="325.7142857142857" cy="397.33951054292" r="3"/><circle cx="342.8571428571429" cy="397.07463000837635" r="3"/><circle cx="360" cy="396.9568590918932" r="3"/><circle cx="377.14285714285717" cy="396.934458560665" r="3"/><circle cx="394.2857142857143" cy="396.42197475074477" r="3"/><circle cx="411.42857142857144" cy="396.6039025804338" r="3"/><circle cx="428.57142857142856" cy="396.24922944279706" r="3"/><circle cx="445.7142857142857" cy="396.18814927837104" r="3"/><circle cx="462.85714285714283" cy="396.18594848795965" r="3"/><circle cx="480" cy="395.88338021508304" r="3"/><circle cx="497.1428571428571" cy="395.8225222795444" r="3"/><circle cx="514.2857142857143" cy="395.7114776915333" r="3"/><circle cx="531.4285714285714" cy="395.5429977329452" r="3"/><circle cx="548.5714285714286" cy="395.43577132549" r="3"/><circle cx="565.7142857142857" cy="395.50253197125477" r="3"/><circle cx="582.8571428571429" cy="395.0853314584255" r="3"/><circle cx="600" cy="394.83361090868937" r="3"/><circle cx="617.1428571428572" cy="394.7244506234992" r="3"/><circle cx="634.2857142857142" cy="394.57367557295476" r="3"/><circle cx="651.4285714285714" cy="394.1798142804465" r="3"/><circle cx="668.5714285714286" cy="394.25576970304553" r="3"/><circle cx="685.7142857142858" cy="394.1174273370389" r="3"/><circle cx="702.8571428571429" cy="393.25343553201185" r="3"/><circle cx="720" cy="393.56840123968107" r="3"/><circle cx="737.1428571428571" cy="393.81112018110633" r="3"/><circle cx="754.2857142857143" cy="393.35184467671985" r="3"/><circle cx="771.4285714285714" cy="393.37652666805025" r="3"/><circle cx="788.5714285714286" cy="392.9568508793605" r="3"/><circle cx="805.7142857142857" cy="392.8431187738663" r="3"/><circle cx="822.8571428571429" cy="393.0836664338025" r="3"/><circle cx="840" cy="392.68897446118206" r="3"/><path class="error-bar" x="0" y="400" d="M 0 400 V 399.99913631206323 h -3 h 6 h -3 V 400.0008636879367 h -3 h 6"/><path class="error-bar" x="17.142857142857142" y="399.9012624324241" d="M 17.142857142857142 399.9012624324241 V 399.89808498948145 h -3 h 6 h -3 V 399.9044398753668 h -3 h 6"/><path class="error-bar" x="34.285714285714285" y="399.79948198013375" d="M 34.285714285714285 399.79948198013375 V 399.79474756296855 h -3 h 6 h -3 V 399.804216397299 h -3 h 6"/><path class="error-bar" x="51.42857142857143" y="399.7043222643414" d="M 51.42857142857143 399.7043222643414 V 399.6967995393436 h -3 h 6 h -3 V 399.71184498933917 h -3 h 6"/><path class="error-bar" x="68.57142857142857" y="399.59918486412624" d="M 68.57142857142857 399.59918486412624 V 399.59473612198815 h -3 h 6 h -3 V 399.6036336062643 h -3 h 6"/><path class="error-bar" x="85.71428571428572" y="399.4961387483102" d="M 85.71428571428572 399.4961387483102 V 399.4859997141683 h -3 h 6 h -3 V 399.5062777824521 h -3 h 6"/><path class="error-bar" x="102.85714285714286" y="399.3988692844516" d="M 102.85714285714286 399.3988692844516 V 399.3926621519607 h -3 h 6 h -3 V 399.4050764169426 h -3 h 6"/><path class="error-bar" x="120" y="399.3194957187652" d="M 120 399.3194957187652 V 399.3121096119169 h -3 h 6 h -3 V 399.32688182561355 h -3 h 6"/><path class="error-bar" x="137.14285714285714" y="399.21845592406754" d="M 137.14285714285714 399.21845592406754 V 399.2024450923565 h -3 h 6 h -3 V 399.23446675577856 h -3 h 6"/><path class="error-bar" x="154.2857142857143" y="399.11986014649705" d="M 154.2857142857143 399.11986014649705 V 399.1107518832508 h -3 h 6 h -3 V 399.1289684097433 h -3 h 6"/><path class="error-bar" x="171.42857142857144" y="398.67866340904817" d="M 171.42857142857144 398.67866340904817 V 398.59105987761245 h -3 h 6 h -3 V 398.766266940484 h -3 h 6"/><path class="error-bar" x="188.57142857142858" y="398.7057363840831" d="M 188.57142857142858 398.7057363840831 V 398.6877300150842 h -3 h 6 h -3 V 398.723742753082 h -3 h 6"/><path class="error-bar" x="205.71428571428572" y="398.5536986021804" d="M 205.71428571428572 398.5536986021804 V 398.5177950794627 h -3 h 6 h -3 V 398.58960212489814 h -3 h 6"/><path class="error-bar" x="222.85714285714286" y="398.4490592051743" d="M 222.85714285714286 398.4490592051743 V 398.3654172787225 h -3 h 6 h -3 V 398.5327011316262 h -3 h 6"/><path class="error-bar" x="240" y="398.39186573072294" d="M 240 398.39186573072294 V 398.34059393753336 h -3 h 6 h -3 V 398.4431375239126 h -3 h 6"/><path class="error-bar" x="257.14285714285717" y="397.8500957570718" d="M 257.14285714285717 397.8500957570718 V 397.7566664643221 h -3 h 6 h -3 V 397.9435250498215 h -3 h 6"/><path class="error-bar" x="274.2857142857143" y="397.8939643422171" d="M 274.2857142857143 397.8939643422171 V 397.86692723641477 h -3 h 6 h -3 V 397.92100144801935 h -3 h 6"/><path class="error-bar" x="291.42857142857144" y="397.517191552493" d="M 291.42857142857144 397.517191552493 V 397.4893024176017 h -3 h 6 h -3 V 397.5450806873843 h -3 h 6"/><path class="error-bar" x="308.5714285714286" y="397.55257348940927" d="M 308.5714285714286 397.55257348940927 V 397.44907401908785 h -3 h 6 h -3 V 397.6560729597307 h -3 h 6"/><path class="error-bar" x="325.7142857142857" y="397.33951054292" d="M 325.7142857142857 397.33951054292 V 397.27653512050233 h -3 h 6 h -3 V 397.40248596533775 h -3 h 6"/><path class="error-bar" x="342.8571428571429" y="397.07463000837635" d="M 342.8571428571429 397.07463000837635 V 396.9134288981218 h -3 h 6 h -3 V 397.23583111863087 h -3 h 6"/><path class="error-bar" x="360" y="396.9568590918932" d="M 360 396.9568590918932 V 396.9141233312516 h -3 h 6 h -3 V 396.9995948525348 h -3 h 6"/><path class="error-bar" x="377.14285714285717" y="396.934458560665" d="M 377.14285714285717 396.934458560665 V 396.7239343399754 h -3 h 6 h -3 V 397.14498278135466 h -3 h 6"/><path class="error-bar" x="394.2857142857143" y="396.42197475074477" d="M 394.2857142857143 396.42197475074477 V 396.3209800352071 h -3 h 6 h -3 V 396.52296946628235 h -3 h 6"/><path class="error-bar" x="411.42857142857144" y="396.6039025804338" d="M 411.42857142857144 396.6039025804338 V 396.54758977320535 h -3 h 6 h -3 V 396.6602153876623 h -3 h 6"/><path class="error-bar" x="428.57142857142856" y="396.24922944279706" d="M 428.57142857142856 396.24922944279706 V 396.1364185072189 h -3 h 6 h -3 V 396.36204037837524 h -3 h 6"/><path class="error-bar" x="445.7142857142857" y="396.18814927837104" d="M 445.7142857142857 396.18814927837104 V 395.9939177973629 h -3 h 6 h -3 V 396.38238075937926 h -3 h 6"/><path class="error-bar" x="462.85714285714283" y="396.18594848795965" d="M 462.85714285714283 396.18594848795965 V 395.9550827495686 h -3 h 6 h -3 V 396.4168142263507 h -3 h 6"/><path class="error-bar" x="480" y="395.88338021508304" d="M 480 395.88338021508304 V 395.62203360956204 h -3 h 6 h -3 V 396.1447268206041 h -3 h 6"/><path class="error-bar" x="497.1428571428571" y="395.8225222795444" d="M 497.1428571428571 395.8225222795444 V 395.54144450972586 h -3 h 6 h -3 V 396.1036000493629 h -3 h 6"/><path class="error-bar" x="514.2857142857143" y="395.7114776915333" d="M 514.2857142857143 395.7114776915333 V 395.6361119267703 h -3 h 6 h -3 V 395.7868434562963 h -3 h 6"/><path class="error-bar" x="531.4285714285714" y="395.5429977329452" d="M 531.4285714285714 395.5429977329452 V 395.225829082517 h -3 h 6 h -3 V 395.86016638337327 h -3 h 6"/><path class="error-bar" x="548.5714285714286" y="395.43577132549" d="M 548.5714285714286 395.43577132549 V 395.2184199778412 h -3 h 6 h -3 V 395.65312267313885 h -3 h 6"/><path class="error-bar" x="565.7142857142857" y="395.50253197125477" d="M 565.7142857142857 395.50253197125477 V 395.16205319555604 h -3 h 6 h -3 V 395.8430107469535 h -3 h 6"/><path class="error-bar" x="582.8571428571429" y="395.0853314584255" d="M 582.8571428571429 395.0853314584255 V 394.6620564513403 h -3 h 6 h -3 V 395.5086064655107 h -3 h 6"/><path class="error-bar" x="600" y="394.83361090868937" d="M 600 394.83361090868937 V 394.754168591707 h -3 h 6 h -3 V 394.9130532256717 h -3 h 6"/><path class="error-bar" x="617.1428571428572" y="394.7244506234992" d="M 617.1428571428572 394.7244506234992 V 394.5995058729231 h -3 h 6 h -3 V 394.8493953740754 h -3 h 6"/><path class="error-bar" x="634.2857142857142" y="394.57367557295476" d="M 634.2857142857142 394.57367557295476 V 394.42073084196994 h -3 h 6 h -3 V 394.72662030393957 h -3 h 6"/><path class="error-bar" x="651.4285714285714" y="394.1798142804465" d="M 651.4285714285714 394.1798142804465 V 394.02874213742166 h -3 h 6 h -3 V 394.33088642347144 h -3 h 6"/><path class="error-bar" x="668.5714285714286" y="394.25576970304553" d="M 668.5714285714286 394.25576970304553 V 394.0647199177635 h -3 h 6 h -3 V 394.4468194883276 h -3 h 6"/><path class="error-bar" x="685.7142857142858" y="394.1174273370389" d="M 685.7142857142858 394.1174273370389 V 394.0152703138223 h -3 h 6 h -3 V 394.2195843602555 h -3 h 6"/><path class="error-bar" x="702.8571428571429" y="393.25343553201185" d="M 702.8571428571429 393.25343553201185 V 392.946766694986 h -3 h 6 h -3 V 393.56010436903773 h -3 h 6"/><path class="error-bar" x="720" y="393.56840123968107" d="M 720 393.56840123968107 V 393.48835121730536 h -3 h 6 h -3 V 393.6484512620568 h -3 h 6"/><path class="error-bar" x="737.1428571428571" y="393.81112018110633" d="M 737.1428571428571 393.81112018110633 V 393.39795040972626 h -3 h 6 h -3 V 394.22428995248634 h -3 h 6"/><path class="error-bar" x="754.2857142857143" y="393.35184467671985" d="M 754.2857142857143 393.35184467671985 V 392.90274237339304 h -3 h 6 h -3 V 393.8009469800466 h -3 h 6"/><path class="error-bar" x="771.4285714285714" y="393.37652666805025" d="M 771.4285714285714 393.37652666805025 V 392.9535507070005 h -3 h 6 h -3 V 393.79950262910006 h -3 h 6"/><path class="error-bar" x="788.5714285714286" y="392.9568508793605" d="M 788.5714285714286 392.9568508793605 V 392.5949339595467 h -3 h 6 h -3 V 393.31876779917434 h -3 h 6"/><path class="error-bar" x="805.7142857142857" y="392.8431187738663" d="M 805.7142857142857 392.8431187738663 V 391.9388086921239 h -3 h 6 h -3 V 393.7474288556087 h -3 h 6"/><path class="error-bar" x="822.8571428571429" y="393.0836664338025" d="M 822.8571428571429 393.0836664338025 V 392.2558835856885 h -3 h 6 h -3 V 393.9114492819165 h -3 h 6"/><path class="error-bar" x="840" y="392.68897446118206" d="M 840 392.68897446118206 V 391.4042232204463 h -3 h 6 h -3 V 393.97372570191783 h -3 h 6"/><path class="line" d="M0,400L17.142857142857142,399.9012624324241L34.285714285714285,399.79948198013375L51.42857142857143,399.7043222643414L68.57142857142857,399.59918486412624L85.71428571428572,399.4961387483102L102.85714285714286,399.3988692844516L120,399.3194957187652L137.14285714285714,399.21845592406754L154.2857142857143,399.11986014649705L171.42857142857144,398.67866340904817L188.57142857142858,398.7057363840831L205.71428571428572,398.5536986021804L222.85714285714286,398.4490592051743L240,398.39186573072294L257.14285714285717,397.8500957570718L274.2857142857143,397.8939643422171L291.42857142857144,397.517191552493L308.5714285714286,397.55257348940927L325.7142857142857,397.33951054292L342.8571428571429,397.07463000837635L360,396.9568590918932L377.14285714285717,396.934458560665L394.2857142857143,396.42197475074477L411.42857142857144,396.6039025804338L428.57142857142856,396.24922944279706L445.7142857142857,396.18814927837104L462.85714285714283,396.18594848795965L480,395.88338021508304L497.1428571428571,395.8225222795444L514.2857142857143,395.7114776915333L531.4285714285714,395.5429977329452L548.5714285714286,395.43577132549L565.7142857142857,395.50253197125477L582.8571428571429,395.0853314584255L600,394.83361090868937L617.1428571428572,394.7244506234992L634.2857142857142,394.57367557295476L651.4285714285714,394.1798142804465L668.5714285714286,394.25576970304553L685.7142857142858,394.1174273370389L702.8571428571429,393.25343553201185L720,393.56840123968107L737.1428571428571,393.81112018110633L754.2857142857143,393.35184467671985L771.4285714285714,393.37652666805025L788.5714285714286,392.9568508793605L805.7142857142857,392.8431187738663L822.8571428571429,393.0836664338025L840,392.68897446118206"/></g><g class="data-series-1"><circle cx="0" cy="395.1491738899393" r="3"/><circle cx="17.142857142857142" cy="389.6902384828917" r="3"/><circle cx="34.285714285714285" cy="383.9435589828606" r="3"/><circle cx="51.42857142857143" cy="378.6418071149629" r="3"/><circle cx="68.57142857142857" cy="372.6235260803884" r="3"/><circle cx="85.71428571428572" cy="367.2022875804676" r="3"/><circle cx="102.85714285714286" cy="361.12725007201055" r="3"/><circle cx="120" cy="355.0567182211009" r="3"/><circle cx="137.14285714285714" cy="349.4523615578323" r="3"/><circle cx="154.2857142857143" cy="342.534699306829" r="3"/><circle cx="171.42857142857144" cy="335.3336993188033" r="3"/><circle cx="188.57142857142858" cy="329.71574834694246" r="3"/><circle cx="205.71428571428572" cy="323.0856868045766" r="3"/><circle cx="222.85714285714286" cy="314.44160746751646" r="3"/><circle cx="240" cy="308.18032775026467" r="3"/><circle cx="257.14285714285717" cy="301.9532696136139" r="3"/><circle cx="274.2857142857143" cy="294.8449604360295" r="3"/><circle cx="291.42857142857144" cy="287.5541594134214" r="3"/><circle cx="308.5714285714286" cy="279.12606631083696" r="3"/><circle cx="325.7142857142857" cy="271.63366069741494" r="3"/><circle cx="342.8571428571429" cy="264.6188412135939" r="3"/><circle cx="360" cy="258.23081283472186" r="3"/><circle cx="377.14285714285717" cy="249.23330871728712" r="3"/><circle cx="394.2857142857143" cy="242.42299793857342" r="3"/><circle cx="411.42857142857144" cy="233.97227181074282" r="3"/><circle cx="428.57142857142856" cy="225.87688464430528" r="3"/><circle cx="445.7142857142857" cy="219.86497975658529" r="3"/><circle cx="462.85714285714283" cy="213.83346221549039" r="3"/><circle cx="480" cy="203.9761589053776" r="3"/><circle cx="497.1428571428571" cy="194.48768741113724" r="3"/><circle cx="514.2857142857143" cy="188.54166801790777" r="3"/><circle cx="531.4285714285714" cy="175.74210862823568" r="3"/><circle cx="548.5714285714286" cy="171.36715228866245" r="3"/><circle cx="565.7142857142857" cy="152.86434071960073" r="3"/><circle cx="582.8571428571429" cy="151.26992477377672" r="3"/><circle cx="600" cy="137.95332701296218" r="3"/><circle cx="617.1428571428572" cy="134.71138958983596" r="3"/><circle cx="634.2857142857142" cy="127.22964247114663" r="3"/><circle cx="651.4285714285714" cy="113.01864912262207" r="3"/><circle cx="668.5714285714286" cy="107.30260721458369" r="3"/><circle cx="685.7142857142858" cy="104.17988868227872" r="3"/><circle cx="702.8571428571429" cy="89.27916795654825" r="3"/><circle cx="720" cy="80.56032953285678" r="3"/><circle cx="737.1428571428571" cy="69.20976925057558" r="3"/><circle cx="754.2857142857143" cy="61.61974075398433" r="3"/><circle cx="771.4285714285714" cy="54.18211478116093" r="3"/><circle cx="788.5714285714286" cy="41.82247127570076" r="3"/><circle cx="805.7142857142857" cy="27.657552200349087" r="3"/><circle cx="822.8571428571429" cy="18.48224839373076" r="3"/><circle cx="840" cy="0" r="3"/><path class="error-bar" x="0" y="395.1491738899393" d="M 0 395.1491738899393 V 395.01915046626397 h -3 h 6 h -3 V 395.2791973136146 h -3 h 6"/><path class="error-bar" x="17.142857142857142" y="389.6902384828917" d="M 17.142857142857142 389.6902384828917 V 389.3847670133139 h -3 h 6 h -3 V 389.9957099524695 h -3 h 6"/><path class="error-bar" x="34.285714285714285" y="383.9435589828606" d="M 34.285714285714285 383.9435589828606 V 383.4286980366316 h -3 h 6 h -3 V 384.45841992908964 h -3 h 6"/><path class="error-bar" x="51.42857142857143" y="378.6418071149629" d="M 51.42857142857143 378.6418071149629 V 378.11229577504764 h -3 h 6 h -3 V 379.1713184548781 h -3 h 6"/><path class="error-bar" x="68.57142857142857" y="372.6235260803884" d="M 68.57142857142857 372.6235260803884 V 372.0385688117042 h -3 h 6 h -3 V 373.2084833490726 h -3 h 6"/><path class="error-bar" x="85.71428571428572" y="367.2022875804676" d="M 85.71428571428572 367.2022875804676 V 366.6976354617681 h -3 h 6 h -3 V 367.7069396991671 h -3 h 6"/><path class="error-bar" x="102.85714285714286" y="361.12725007201055" d="M 102.85714285714286 361.12725007201055 V 360.17324366327375 h -3 h 6 h -3 V 362.08125648074736 h -3 h 6"/><path class="error-bar" x="120" y="355.0567182211009" d="M 120 355.0567182211009 V 354.45780206843705 h -3 h 6 h -3 V 355.6556343737648 h -3 h 6"/><path class="error-bar" x="137.14285714285714" y="349.4523615578323" d="M 137.14285714285714 349.4523615578323 V 348.6294182519044 h -3 h 6 h -3 V 350.2753048637603 h -3 h 6"/><path class="error-bar" x="154.2857142857143" y="342.534699306829" d="M 154.2857142857143 342.534699306829 V 341.376062109759 h -3 h 6 h -3 V 343.69333650389893 h -3 h 6"/><path class="error-bar" x="171.42857142857144" y="335.3336993188033" d="M 171.42857142857144 335.3336993188033 V 334.02328383126263 h -3 h 6 h -3 V 336.644114806344 h -3 h 6"/><path class="error-bar" x="188.57142857142858" y="329.71574834694246" d="M 188.57142857142858 329.71574834694246 V 328.60304228433847 h -3 h 6 h -3 V 330.82845440954645 h -3 h 6"/><path class="error-bar" x="205.71428571428572" y="323.0856868045766" d="M 205.71428571428572 323.0856868045766 V 322.37715469673054 h -3 h 6 h -3 V 323.7942189124227 h -3 h 6"/><path class="error-bar" x="222.85714285714286" y="314.44160746751646" d="M 222.85714285714286 314.44160746751646 V 312.2866091771291 h -3 h 6 h -3 V 316.59660575790383 h -3 h 6"/><path class="error-bar" x="240" y="308.18032775026467" d="M 240 308.18032775026467 V 306.451438249697 h -3 h 6 h -3 V 309.90921725083234 h -3 h 6"/><path class="error-bar" x="257.14285714285717" y="301.9532696136139" d="M 257.14285714285717 301.9532696136139 V 300.4099736882056 h -3 h 6 h -3 V 303.49656553902224 h -3 h 6"/><path class="error-bar" x="274.2857142857143" y="294.8449604360295" d="M 274.2857142857143 294.8449604360295 V 293.56791352208285 h -3 h 6 h -3 V 296.1220073499762 h -3 h 6"/><path class="error-bar" x="291.42857142857144" y="287.5541594134214" d="M 291.42857142857144 287.5541594134214 V 286.3497518227141 h -3 h 6 h -3 V 288.7585670041288 h -3 h 6"/><path class="error-bar" x="308.5714285714286" y="279.12606631083696" d="M 308.5714285714286 279.12606631083696 V 276.08685500861077 h -3 h 6 h -3 V 282.1652776130631 h -3 h 6"/><path class="error-bar" x="325.7142857142857" y="271.63366069741494" d="M 325.7142857142857 271.63366069741494 V 268.1825287876957 h -3 h 6 h -3 V 275.0847926071342 h -3 h 6"/><path class="error-bar" x="342.8571428571429" y="264.6188412135939" d="M 342.8571428571429 264.6188412135939 V 261.41490445967804 h -3 h 6 h -3 V 267.82277796750986 h -3 h 6"/><path class="error-bar" x="360" y="258.23081283472186" d="M 360 258.23081283472186 V 255.80435637771953 h -3 h 6 h -3 V 260.6572692917241 h -3 h 6"/><path class="error-bar" x="377.14285714285717" y="249.23330871728712" d="M 377.14285714285717 249.23330871728712 V 248.35831614660196 h -3 h 6 h -3 V 250.1083012879723 h -3 h 6"/><path class="error-bar" x="394.2857142857143" y="242.42299793857342" d="M 394.2857142857143 242.42299793857342 V 239.78367081842808 h -3 h 6 h -3 V 245.06232505871876 h -3 h 6"/><path class="error-bar" x="411.42857142857144" y="233.97227181074282" d="M 411.42857142857144 233.97227181074282 V 231.93138742325016 h -3 h 6 h -3 V 236.0131561982355 h -3 h 6"/><path class="error-bar" x="428.57142857142856" y="225.87688464430528" d="M 428.57142857142856 225.87688464430528 V 223.7806837048371 h -3 h 6 h -3 V 227.97308558377347 h -3 h 6"/><path class="error-bar" x="445.7142857142857" y="219.86497975658529" d="M 445.7142857142857 219.86497975658529 V 218.95197761535837 h -3 h 6 h -3 V 220.77798189781214 h -3 h 6"/><path class="error-bar" x="462.85714285714283" y="213.83346221549039" d="M 462.85714285714283 213.83346221549039 V 212.57643765060465 h -3 h 6 h -3 V 215.09048678037615 h -3 h 6"/><path class="error-bar" x="480" y="203.9761589053776" d="M 480 203.9761589053776 V 201.2601175416815 h -3 h 6 h -3 V 206.69220026907374 h -3 h 6"/><path class="error-bar" x="497.1428571428571" y="194.48768741113724" d="M 497.1428571428571 194.48768741113724 V 191.90030454653746 h -3 h 6 h -3 V 197.07507027573703 h -3 h 6"/><path class="error-bar" x="514.2857142857143" y="188.54166801790777" d="M 514.2857142857143 188.54166801790777 V 185.250686399921 h -3 h 6 h -3 V 191.83264963589454 h -3 h 6"/><path class="error-bar" x="531.4285714285714" y="175.74210862823568" d="M 531.4285714285714 175.74210862823568 V 172.13751865451408 h -3 h 6 h -3 V 179.34669860195726 h -3 h 6"/><path class="error-bar" x="548.5714285714286" y="171.36715228866245" d="M 548.5714285714286 171.36715228866245 V 167.35752399182488 h -3 h 6 h -3 V 175.3767805855 h -3 h 6"/><path class="error-bar" x="565.7142857142857" y="152.86434071960073" d="M 565.7142857142857 152.86434071960073 V 147.5005013925766 h -3 h 6 h -3 V 158.22818004662486 h -3 h 6"/><path class="error-bar" x="582.8571428571429" y="151.26992477377672" d="M 582.8571428571429 151.26992477377672 V 148.67599047354395 h -3 h 6 h -3 V 153.86385907400947 h -3 h 6"/><path class="error-bar" x="600" y="137.95332701296218" d="M 600 137.95332701296218 V 128.99747562251537 h -3 h 6 h -3 V 146.90917840340902 h -3 h 6"/><path class="error-bar" x="617.1428571428572" y="134.71138958983596" d="M 617.1428571428572 134.71138958983596 V 128.60350729317807 h -3 h 6 h -3 V 140.81927188649382 h -3 h 6"/><path class="error-bar" x="634.2857142857142" y="127.22964247114663" d="M 634.2857142857142 127.22964247114663 V 123.85732473519452 h -3 h 6 h -3 V 130.6019602070987 h -3 h 6"/><path class="error-bar" x="651.4285714285714" y="113.01864912262207" d="M 651.4285714285714 113.01864912262207 V 106.91156627786414 h -3 h 6 h -3 V 119.12573196737996 h -3 h 6"/><path class="error-bar" x="668.5714285714286" y="107.30260721458369" d="M 668.5714285714286 107.30260721458369 V 102.42395473724622 h -3 h 6 h -3 V 112.18125969192117 h -3 h 6"/><path class="error-bar" x="685.7142857142858" y="104.17988868227872" d="M 685.7142857142858 104.17988868227872 V 102.51142205151984 h -3 h 6 h -3 V 105.84835531303764 h -3 h 6"/><path class="error-bar" x="702.8571428571429" y="89.27916795654825" d="M 702.8571428571429 89.27916795654825 V 82.64720729391759 h -3 h 6 h -3 V 95.9111286191789 h -3 h 6"/><path class="error-bar" x="720" y="80.56032953285678" d="M 720 80.56032953285678 V 74.79429318080113 h -3 h 6 h -3 V 86.32636588491249 h -3 h 6"/><path class="error-bar" x="737.1428571428571" y="69.20976925057558" d="M 737.1428571428571 69.20976925057558 V 60.87761637909232 h -3 h 6 h -3 V 77.54192212205879 h -3 h 6"/><path class="error-bar" x="754.2857142857143" y="61.61974075398433" d="M 754.2857142857143 61.61974075398433 V 55.82291416647376 h -3 h 6 h -3 V 67.41656734149495 h -3 h 6"/><path class="error-bar" x="771.4285714285714" y="54.18211478116093" d="M 771.4285714285714 54.18211478116093 V 51.64608970895168 h -3 h 6 h -3 V 56.71813985337022 h -3 h 6"/><path class="error-bar" x="788.5714285714286" y="41.82247127570076" d="M 788.5714285714286 41.82247127570076 V 35.492143563140345 h -3 h 6 h -3 V 48.15279898826117 h -3 h 6"/><path class="error-bar" x="805.7142857142857" y="27.657552200349087" d="M 805.7142857142857 27.657552200349087 V 19.828506302682 h -3 h 6 h -3 V 35.48659809801613 h -3 h 6"/><path class="error-bar" x="822.8571428571429" y="18.48224839373076" d="M 822.8571428571429 18.48224839373076 V 10.68147229378762 h -3 h 6 h -3 V 26.2830244936739 h -3 h 6"/><path class="error-bar" x="840" y="0" d="M 840 0 V -10.125823791398147 h -3 h 6 h -3 V 10.125823791398192 h -3 h 6"/><path class="line" d="M0,395.1491738899393L17.142857142857142,389.6902384828917L34.285714285714285,383.9435589828606L51.42857142857143,378.6418071149629L68.57142857142857,372.6235260803884L85.71428571428572,367.2022875804676L102.85714285714286,361.12725007201055L120,355.0567182211009L137.14285714285714,349.4523615578323L154.2857142857143,342.534699306829L171.42857142857144,335.3336993188033L188.57142857142858,329.71574834694246L205.71428571428572,323.0856868045766L222.85714285714286,314.44160746751646L240,308.18032775026467L257.14285714285717,301.9532696136139L274.2857142857143,294.8449604360295L291.42857142857144,287.5541594134214L308.5714285714286,279.12606631083696L325.7142857142857,271.63366069741494L342.8571428571429,264.6188412135939L360,258.23081283472186L377.14285714285717,249.23330871728712L394.2857142857143,242.42299793857342L411.42857142857144,233.97227181074282L428.57142857142856,225.87688464430528L445.7142857142857,219.86497975658529L462.85714285714283,213.83346221549039L480,203.9761589053776L497.1428571428571,194.48768741113724L514.2857142857143,188.54166801790777L531.4285714285714,175.74210862823568L548.5714285714286,171.36715228866245L565.7142857142857,152.86434071960073L582.8571428571429,151.26992477377672L600,137.95332701296218L617.1428571428572,134.71138958983596L634.2857142857142,127.22964247114663L651.4285714285714,113.01864912262207L668.5714285714286,107.30260721458369L685.7142857142858,104.17988868227872L702.8571428571429,89.27916795654825L720,80.56032953285678L737.1428571428571,69.20976925057558L754.2857142857143,61.61974075398433L771.4285714285714,54.18211478116093L788.5714285714286,41.82247127570076L805.7142857142857,27.657552200349087L822.8571428571429,18.48224839373076L840,0"/></g><g class="legend" transform="translate(50, 50)"><rect x="0" y="0" width="15" height="15" class="data-series-0"/><rect x="0" y="20" width="15" height="15" class="data-series-1"/><text x="24" y="13">Array</text><text x="24" y="33">Seq</text></g></g><style>
text {
  font: 14px sans-serif;
}

.axis path,
.axis line {
  fill: none;
  stroke: #000;
  shape-rendering: crispEdges;
}

.line {
  fill: none;
  stroke-width: 1.5px;
}

.data-series-0 {
  stroke: steelblue;
  fill: steelblue;
}

.data-series-1 {
  stroke: crimson;
  fill: crimson;
}

.data-series-2 {
  stroke: mediumseagreen;
  fill: mediumseagreen;
}

.data-series-3 {
  stroke: mediumslateblue;
  fill: mediumslateblue;
}

.data-series-4 {
  stroke: goldenrod;
  fill: goldenrod;
}

.error-bar {
  fill: none;
}
</style></svg>