<svg xmlns="http://www.w3.org/2000/svg" width="960" height="500"><defs><style type="text/css">
.background {
  fill: white;
}

text {
  font-size: 14px;
  font-family: sans-serif;
}

.axis-path,
.axis-line {
  fill: none;
  stroke: #000;
  stroke-width: 1px;
  shape-rendering: crispEdges;
}

.line {
  fill: none;
  stroke-width: 1.5px;
}

.data-series-0 {
  stroke: steelblue;
  fill: steelblue;
}

.data-series-1 {
  stroke: crimson;
  fill: crimson;
}

.data-series-2 {
  stroke: mediumseagreen;
  fill: mediumseagreen;
}

.data-series-3 {
  stroke: mediumslateblue;
  fill: mediumslateblue;
}

.data-series-4 {
  stroke: goldenrod;
  fill: goldenrod;
}

.error-bar {
  fill: none;
}
</style></defs><rect width="960" height="500" class="background"/><g transform="translate(80,40)"><g transform="translate(420, 0)"><text style="text-anchor: middle; font-size: 28px;">concatMap over a structure</text></g><g class="x axis" transform="translate(0,400)"><g class="tick" transform="translate(68.57142857142857,0)" style="opacity: 1;"><line y2="6" x2="0" class="axis-line"/><text dy=".71em" y="9" x="0" style="text-anchor: middle;">5,000</text></g><g class="tick" transform="translate(154.2857142857143,0)" style="opacity: 1;"><line y2="6" x2="0" class="axis-line"/><text dy=".71em" y="9" x="0" style="text-anchor: middle;">10,000</text></g><g class="tick" transform="translate(240,0)" style="opacity: 1;"><line y2="6" x2="0" class="axis-line"/><text dy=".71em" y="9" x="0" style="text-anchor: middle;">15,000</text></g><g class="tick" transform="translate(325.7142857142857,0)" style="opacity: 1;"><line y2="6" x2="0" class="axis-line"/><text dy=".71em" y="9" x="0" style="text-anchor: middle;">20,000</text></g><g class="tick" transform="translate(411.42857142857144,0)" style="opacity: 1;"><line y2="6" x2="0" class="axis-line"/><text dy=".71em" y="9" x="0" style="text-anchor: middle;">25,000</text></g><g class="tick" transform="translate(497.1428571428571,0)" style="opacity: 1;"><line y2="6" x2="0" class="axis-line"/><text dy=".71em" y="9" x="0" style="text-anchor: middle;">30,000</text></g><g class="tick" transform="translate(582.8571428571429,0)" style="opacity: 1;"><line y2="6" x2="0" class="axis-line"/><text dy=".71em" y="9" x="0" style="text-anchor: middle;">35,000</text></g><g class="tick" transform="translate(668.5714285714286,0)" style="opacity: 1;"><line y2="6" x2="0" class="axis-line"/><text dy=".71em" y="9" x="0" style="text-anchor: middle;">40,000</text></g><g class="tick" transform="translate(754.2857142857143,0)" style="opacity: 1;"><line y2="6" x2="0" class="axis-line"/><text dy=".71em" y="9" x="0" style="text-anchor: middle;">45,000</text></g><g class="tick" transform="translate(840,0)" style="opacity: 1;"><line y2="6" x2="0" class="axis-line"/><text dy=".71em" y="9" x="0" style="text-anchor: middle;">50,000</text></g><path class="axis-path" d="M0,6V0H840V6"/><text x="420" y="40" style="text-anchor: middle;">Number of elements in the structure</text></g><g class="y axis"><g class="tick" transform="translate(0,369.1919519808031)" style="opacity: 1;"><line x2="-6" y2="0" class="axis-line"/><text dy=".32em" x="-9" y="0" style="text-anchor: end;">0.10</text></g><g class="tick" transform="translate(0,338.3497715130112)" style="opacity: 1;"><line x2="-6" y2="0" class="axis-line"/><text dy=".32em" x="-9" y="0" style="text-anchor: end;">0.20</text></g><g class="tick" transform="translate(0,307.5075910452193)" style="opacity: 1;"><line x2="-6" y2="0" class="axis-line"/><text dy=".32em" x="-9" y="0" style="text-anchor: end;">0.30</text></g><g class="tick" transform="translate(0,276.66541057742745)" style="opacity: 1;"><line x2="-6" y2="0" class="axis-line"/><text dy=".32em" x="-9" y="0" style="text-anchor: end;">0.40</text></g><g class="tick" transform="translate(0,245.82323010963557)" style="opacity: 1;"><line x2="-6" y2="0" class="axis-line"/><text dy=".32em" x="-9" y="0" style="text-anchor: end;">0.50</text></g><g class="tick" transform="translate(0,214.98104964184367)" style="opacity: 1;"><line x2="-6" y2="0" class="axis-line"/><text dy=".32em" x="-9" y="0" style="text-anchor: end;">0.60</text></g><g class="tick" transform="translate(0,184.1388691740518)" style="opacity: 1;"><line x2="-6" y2="0" class="axis-line"/><text dy=".32em" x="-9" y="0" style="text-anchor: end;">0.70</text></g><g class="tick" transform="translate(0,153.29668870625989)" style="opacity: 1;"><line x2="-6" y2="0" class="axis-line"/><text dy=".32em" x="-9" y="0" style="text-anchor: end;">0.80</text></g><g class="tick" transform="translate(0,122.45450823846804)" style="opacity: 1;"><line x2="-6" y2="0" class="axis-line"/><text dy=".32em" x="-9" y="0" style="text-anchor: end;">0.90</text></g><g class="tick" transform="translate(0,91.61232777067613)" style="opacity: 1;"><line x2="-6" y2="0" class="axis-line"/><text dy=".32em" x="-9" y="0" style="text-anchor: end;">1.00</text></g><g class="tick" transform="translate(0,60.77014730288428)" style="opacity: 1;"><line x2="-6" y2="0" class="axis-line"/><text dy=".32em" x="-9" y="0" style="text-anchor: end;">1.10</text></g><g class="tick" transform="translate(0,29.92796683509247)" style="opacity: 1;"><line x2="-6" y2="0" class="axis-line"/><text dy=".32em" x="-9" y="0" style="text-anchor: end;">1.20</text></g><path class="axis-path" d="M-6,0H0V400H-6"/><text transform="rotate(-90)" y="6" dy=".71em" style="text-anchor: end;">Mean running time (seconds)</text></g><g class="data-series-0"><circle cx="0" cy="400" r="3"/><circle cx="17.142857142857142" cy="399.98767697963353" r="3"/><circle cx="34.285714285714285" cy="399.9641580492443" r="3"/><circle cx="51.42857142857143" cy="399.9176045862336" r="3"/><circle cx="68.57142857142857" cy="399.9194432056176" r="3"/><circle cx="85.71428571428572" cy="399.8964454564154" r="3"/><circle cx="102.85714285714286" cy="399.86913733938496" r="3"/><circle cx="120" cy="399.8436587114403" r="3"/><circle cx="137.14285714285714" cy="399.81744662312144" r="3"/><circle cx="154.2857142857143" cy="399.44840567101306" r="3"/><circle cx="171.42857142857144" cy="399.3202721244339" r="3"/><circle cx="188.57142857142858" cy="399.7356077832436" r="3"/><circle cx="205.71428571428572" cy="399.6943760943376" r="3"/><circle cx="222.85714285714286" cy="399.3811589588886" r="3"/><circle cx="240" cy="399.62023419249806" r="3"/><circle cx="257.14285714285717" cy="399.5855271044128" r="3"/><circle cx="274.2857142857143" cy="398.59254858872043" r="3"/><circle cx="291.42857142857144" cy="399.6088654344835" r="3"/><circle cx="308.5714285714286" cy="398.1775069853657" r="3"/><circle cx="325.7142857142857" cy="398.11172099599554" r="3"/><circle cx="342.8571428571429" cy="399.38303272158265" r="3"/><circle cx="360" cy="399.3693166492529" r="3"/><circle cx="377.14285714285717" cy="399.3517475824724" r="3"/><circle cx="394.2857142857143" cy="399.33253491439615" r="3"/><circle cx="411.42857142857144" cy="399.29899002841324" r="3"/><circle cx="428.57142857142856" cy="399.2790902442983" r="3"/><circle cx="445.7142857142857" cy="399.28414659703304" r="3"/><circle cx="462.85714285714283" cy="399.03534678396204" r="3"/><circle cx="480" cy="397.100088231908" r="3"/><circle cx="497.1428571428571" cy="398.9713344696738" r="3"/><circle cx="514.2857142857143" cy="398.968547715614" r="3"/><circle cx="531.4285714285714" cy="396.7213509213072" r="3"/><circle cx="548.5714285714286" cy="396.6589542003982" r="3"/><circle cx="565.7142857142857" cy="396.6268353371211" r="3"/><circle cx="582.8571428571429" cy="396.6523584787413" r="3"/><circle cx="600" cy="398.88279971080914" r="3"/><circle cx="617.1428571428572" cy="398.77926785806244" r="3"/><circle cx="634.2857142857142" cy="398.82319676077924" r="3"/><circle cx="651.4285714285714" cy="398.79237258889407" r="3"/><circle cx="668.5714285714286" cy="396.56909809132856" r="3"/><circle cx="685.7142857142858" cy="394.48662405451665" r="3"/><circle cx="702.8571428571429" cy="394.3373042774015" r="3"/><circle cx="720" cy="395.47561499640267" r="3"/><circle cx="737.1428571428571" cy="394.02205739795676" r="3"/><circle cx="754.2857142857143" cy="394.0835449564074" r="3"/><circle cx="771.4285714285714" cy="394.12009294026177" r="3"/><circle cx="788.5714285714286" cy="393.9517490184625" r="3"/><circle cx="805.7142857142857" cy="393.75211301587746" r="3"/><circle cx="822.8571428571429" cy="393.8891440843763" r="3"/><circle cx="840" cy="393.8067659827408" r="3"/><path class="error-bar" x="0" y="400" d="M 0 400 V 399.9901201869845 h -3 h 6 h -3 V 400.0098798130155 h -3 h 6"/><path class="error-bar" x="17.142857142857142" y="399.98767697963353" d="M 17.142857142857142 399.98767697963353 V 399.9872390991453 h -3 h 6 h -3 V 399.98811486012175 h -3 h 6"/><path class="error-bar" x="34.285714285714285" y="399.9641580492443" d="M 34.285714285714285 399.9641580492443 V 399.9629512600309 h -3 h 6 h -3 V 399.96536483845773 h -3 h 6"/><path class="error-bar" x="51.42857142857143" y="399.9176045862336" d="M 51.42857142857143 399.9176045862336 V 399.8923929846709 h -3 h 6 h -3 V 399.9428161877963 h -3 h 6"/><path class="error-bar" x="68.57142857142857" y="399.9194432056176" d="M 68.57142857142857 399.9194432056176 V 399.9183359612706 h -3 h 6 h -3 V 399.92055044996454 h -3 h 6"/><path class="error-bar" x="85.71428571428572" y="399.8964454564154" d="M 85.71428571428572 399.8964454564154 V 399.89441214209336 h -3 h 6 h -3 V 399.8984787707374 h -3 h 6"/><path class="error-bar" x="102.85714285714286" y="399.86913733938496" d="M 102.85714285714286 399.86913733938496 V 399.8646658688483 h -3 h 6 h -3 V 399.8736088099216 h -3 h 6"/><path class="error-bar" x="120" y="399.8436587114403" d="M 120 399.8436587114403 V 399.84211930625446 h -3 h 6 h -3 V 399.8451981166262 h -3 h 6"/><path class="error-bar" x="137.14285714285714" y="399.81744662312144" d="M 137.14285714285714 399.81744662312144 V 399.7665119266105 h -3 h 6 h -3 V 399.86838131963236 h -3 h 6"/><path class="error-bar" x="154.2857142857143" y="399.44840567101306" d="M 154.2857142857143 399.44840567101306 V 399.1842595743873 h -3 h 6 h -3 V 399.71255176763884 h -3 h 6"/><path class="error-bar" x="171.42857142857144" y="399.3202721244339" d="M 171.42857142857144 399.3202721244339 V 399.0409440088707 h -3 h 6 h -3 V 399.599600239997 h -3 h 6"/><path class="error-bar" x="188.57142857142858" y="399.7356077832436" d="M 188.57142857142858 399.7356077832436 V 399.732865167904 h -3 h 6 h -3 V 399.7383503985831 h -3 h 6"/><path class="error-bar" x="205.71428571428572" y="399.6943760943376" d="M 205.71428571428572 399.6943760943376 V 399.5906685609631 h -3 h 6 h -3 V 399.7980836277121 h -3 h 6"/><path class="error-bar" x="222.85714285714286" y="399.3811589588886" d="M 222.85714285714286 399.3811589588886 V 398.97192964472896 h -3 h 6 h -3 V 399.7903882730482 h -3 h 6"/><path class="error-bar" x="240" y="399.62023419249806" d="M 240 399.62023419249806 V 399.5491608618573 h -3 h 6 h -3 V 399.69130752313885 h -3 h 6"/><path class="error-bar" x="257.14285714285717" y="399.5855271044128" d="M 257.14285714285717 399.5855271044128 V 399.544733708693 h -3 h 6 h -3 V 399.6263205001327 h -3 h 6"/><path class="error-bar" x="274.2857142857143" y="398.59254858872043" d="M 274.2857142857143 398.59254858872043 V 398.3537451860227 h -3 h 6 h -3 V 398.8313519914181 h -3 h 6"/><path class="error-bar" x="291.42857142857144" y="399.6088654344835" d="M 291.42857142857144 399.6088654344835 V 399.5984981265733 h -3 h 6 h -3 V 399.6192327423937 h -3 h 6"/><path class="error-bar" x="308.5714285714286" y="398.1775069853657" d="M 308.5714285714286 398.1775069853657 V 398.13116671644264 h -3 h 6 h -3 V 398.2238472542888 h -3 h 6"/><path class="error-bar" x="325.7142857142857" y="398.11172099599554" d="M 325.7142857142857 398.11172099599554 V 398.03011390215227 h -3 h 6 h -3 V 398.19332808983876 h -3 h 6"/><path class="error-bar" x="342.8571428571429" y="399.38303272158265" d="M 342.8571428571429 399.38303272158265 V 399.37102280310876 h -3 h 6 h -3 V 399.3950426400565 h -3 h 6"/><path class="error-bar" x="360" y="399.3693166492529" d="M 360 399.3693166492529 V 399.35745870457663 h -3 h 6 h -3 V 399.38117459392913 h -3 h 6"/><path class="error-bar" x="377.14285714285717" y="399.3517475824724" d="M 377.14285714285717 399.3517475824724 V 399.3467947033732 h -3 h 6 h -3 V 399.3567004615717 h -3 h 6"/><path class="error-bar" x="394.2857142857143" y="399.33253491439615" d="M 394.2857142857143 399.33253491439615 V 399.32630434398743 h -3 h 6 h -3 V 399.33876548480487 h -3 h 6"/><path class="error-bar" x="411.42857142857144" y="399.29899002841324" d="M 411.42857142857144 399.29899002841324 V 399.2059962352361 h -3 h 6 h -3 V 399.3919838215904 h -3 h 6"/><path class="error-bar" x="428.57142857142856" y="399.2790902442983" d="M 428.57142857142856 399.2790902442983 V 399.2649424648777 h -3 h 6 h -3 V 399.2932380237188 h -3 h 6"/><path class="error-bar" x="445.7142857142857" y="399.28414659703304" d="M 445.7142857142857 399.28414659703304 V 399.27696932633046 h -3 h 6 h -3 V 399.2913238677355 h -3 h 6"/><path class="error-bar" x="462.85714285714283" y="399.03534678396204" d="M 462.85714285714283 399.03534678396204 V 399.026454675128 h -3 h 6 h -3 V 399.0442388927961 h -3 h 6"/><path class="error-bar" x="480" y="397.100088231908" d="M 480 397.100088231908 V 397.04218959081095 h -3 h 6 h -3 V 397.15798687300514 h -3 h 6"/><path class="error-bar" x="497.1428571428571" y="398.9713344696738" d="M 497.1428571428571 398.9713344696738 V 398.96362960896784 h -3 h 6 h -3 V 398.97903933037986 h -3 h 6"/><path class="error-bar" x="514.2857142857143" y="398.968547715614" d="M 514.2857142857143 398.968547715614 V 398.9605031787409 h -3 h 6 h -3 V 398.97659225248714 h -3 h 6"/><path class="error-bar" x="531.4285714285714" y="396.7213509213072" d="M 531.4285714285714 396.7213509213072 V 395.11795735761336 h -3 h 6 h -3 V 398.3247444850011 h -3 h 6"/><path class="error-bar" x="548.5714285714286" y="396.6589542003982" d="M 548.5714285714286 396.6589542003982 V 394.9998155061932 h -3 h 6 h -3 V 398.3180928946033 h -3 h 6"/><path class="error-bar" x="565.7142857142857" y="396.6268353371211" d="M 565.7142857142857 396.6268353371211 V 395.0386092668827 h -3 h 6 h -3 V 398.2150614073596 h -3 h 6"/><path class="error-bar" x="582.8571428571429" y="396.6523584787413" d="M 582.8571428571429 396.6523584787413 V 395.04896258537417 h -3 h 6 h -3 V 398.25575437210836 h -3 h 6"/><path class="error-bar" x="600" y="398.88279971080914" d="M 600 398.88279971080914 V 398.8727375873774 h -3 h 6 h -3 V 398.8928618342409 h -3 h 6"/><path class="error-bar" x="617.1428571428572" y="398.77926785806244" d="M 617.1428571428572 398.77926785806244 V 398.76960591944675 h -3 h 6 h -3 V 398.7889297966781 h -3 h 6"/><path class="error-bar" x="634.2857142857142" y="398.82319676077924" d="M 634.2857142857142 398.82319676077924 V 398.80753519992743 h -3 h 6 h -3 V 398.83885832163105 h -3 h 6"/><path class="error-bar" x="651.4285714285714" y="398.79237258889407" d="M 651.4285714285714 398.79237258889407 V 398.57518282066934 h -3 h 6 h -3 V 399.0095623571188 h -3 h 6"/><path class="error-bar" x="668.5714285714286" y="396.56909809132856" d="M 668.5714285714286 396.56909809132856 V 396.51070129541375 h -3 h 6 h -3 V 396.62749488724336 h -3 h 6"/><path class="error-bar" x="685.7142857142858" y="394.48662405451665" d="M 685.7142857142858 394.48662405451665 V 394.3586925365408 h -3 h 6 h -3 V 394.61455557249246 h -3 h 6"/><path class="error-bar" x="702.8571428571429" y="394.3373042774015" d="M 702.8571428571429 394.3373042774015 V 394.2581392026963 h -3 h 6 h -3 V 394.4164693521066 h -3 h 6"/><path class="error-bar" x="720" y="395.47561499640267" d="M 720 395.47561499640267 V 393.5845826181623 h -3 h 6 h -3 V 397.36664737464304 h -3 h 6"/><path class="error-bar" x="737.1428571428571" y="394.02205739795676" d="M 737.1428571428571 394.02205739795676 V 392.62498973951176 h -3 h 6 h -3 V 395.4191250564017 h -3 h 6"/><path class="error-bar" x="754.2857142857143" y="394.0835449564074" d="M 754.2857142857143 394.0835449564074 V 393.96412733704835 h -3 h 6 h -3 V 394.2029625757665 h -3 h 6"/><path class="error-bar" x="771.4285714285714" y="394.12009294026177" d="M 771.4285714285714 394.12009294026177 V 393.90077148154063 h -3 h 6 h -3 V 394.33941439898285 h -3 h 6"/><path class="error-bar" x="788.5714285714286" y="393.9517490184625" d="M 788.5714285714286 393.9517490184625 V 392.7320719065898 h -3 h 6 h -3 V 395.1714261303353 h -3 h 6"/><path class="error-bar" x="805.7142857142857" y="393.75211301587746" d="M 805.7142857142857 393.75211301587746 V 392.3247452659312 h -3 h 6 h -3 V 395.1794807658238 h -3 h 6"/><path class="error-bar" x="822.8571428571429" y="393.8891440843763" d="M 822.8571428571429 393.8891440843763 V 393.70874421131845 h -3 h 6 h -3 V 394.06954395743423 h -3 h 6"/><path class="error-bar" x="840" y="393.8067659827408" d="M 840 393.8067659827408 V 393.5696744276684 h -3 h 6 h -3 V 394.0438575378131 h -3 h 6"/><path class="line" d="M0,400L17.142857142857142,399.98767697963353L34.285714285714285,399.9641580492443L51.42857142857143,399.9176045862336L68.57142857142857,399.9194432056176L85.71428571428572,399.8964454564154L102.85714285714286,399.86913733938496L120,399.8436587114403L137.14285714285714,399.81744662312144L154.2857142857143,399.44840567101306L171.42857142857144,399.3202721244339L188.57142857142858,399.7356077832436L205.71428571428572,399.6943760943376L222.85714285714286,399.3811589588886L240,399.62023419249806L257.14285714285717,399.5855271044128L274.2857142857143,398.59254858872043L291.42857142857144,399.6088654344835L308.5714285714286,398.1775069853657L325.7142857142857,398.11172099599554L342.8571428571429,399.38303272158265L360,399.3693166492529L377.14285714285717,399.3517475824724L394.2857142857143,399.33253491439615L411.42857142857144,399.29899002841324L428.57142857142856,399.2790902442983L445.7142857142857,399.28414659703304L462.85714285714283,399.03534678396204L480,397.100088231908L497.1428571428571,398.9713344696738L514.2857142857143,398.968547715614L531.4285714285714,396.7213509213072L548.5714285714286,396.6589542003982L565.7142857142857,396.6268353371211L582.8571428571429,396.6523584787413L600,398.88279971080914L617.1428571428572,398.77926785806244L634.2857142857142,398.82319676077924L651.4285714285714,398.79237258889407L668.5714285714286,396.56909809132856L685.7142857142858,394.48662405451665L702.8571428571429,394.3373042774015L720,395.47561499640267L737.1428571428571,394.02205739795676L754.2857142857143,394.0835449564074L771.4285714285714,394.12009294026177L788.5714285714286,393.9517490184625L805.7142857142857,393.75211301587746L822.8571428571429,393.8891440843763L840,393.8067659827408"/></g><g class="data-series-1"><circle cx="0" cy="398.2223770951934" r="3"/><circle cx="17.142857142857142" cy="395.8464096280224" r="3"/><circle cx="34.285714285714285" cy="390.17263310436954" r="3"/><circle cx="51.42857142857143" cy="390.6487948195213" r="3"/><circle cx="68.57142857142857" cy="388.33720718173345" r="3"/><circle cx="85.71428571428572" cy="385.117303957096" r="3"/><circle cx="102.85714285714286" cy="382.05311319752644" r="3"/><circle cx="120" cy="370.99849787988734" r="3"/><circle cx="137.14285714285714" cy="366.3764264410474" r="3"/><circle cx="154.2857142857143" cy="362.0775219577549" r="3"/><circle cx="171.42857142857144" cy="371.06616164419745" r="3"/><circle cx="188.57142857142858" cy="352.43884965686414" r="3"/><circle cx="205.71428571428572" cy="348.55634182976445" r="3"/><circle cx="222.85714285714286" cy="359.93857818958793" r="3"/><circle cx="240" cy="355.58449411179686" r="3"/><circle cx="257.14285714285717" cy="330.00004148223104" r="3"/><circle cx="274.2857142857143" cy="350.35541491463044" r="3"/><circle cx="291.42857142857144" cy="316.4472631441955" r="3"/><circle cx="308.5714285714286" cy="304.80135578245" r="3"/><circle cx="325.7142857142857" cy="340.8675900500441" r="3"/><circle cx="342.8571428571429" cy="337.221491981663" r="3"/><circle cx="360" cy="333.4130178964341" r="3"/><circle cx="377.14285714285717" cy="328.66976812011194" r="3"/><circle cx="394.2857142857143" cy="328.6696036284828" r="3"/><circle cx="411.42857142857144" cy="326.2176914042006" r="3"/><circle cx="428.57142857142856" cy="320.71304512469584" r="3"/><circle cx="445.7142857142857" cy="316.3390952112692" r="3"/><circle cx="462.85714285714283" cy="239.80835380571736" r="3"/><circle cx="480" cy="238.41139151051814" r="3"/><circle cx="497.1428571428571" cy="307.2437243289403" r="3"/><circle cx="514.2857142857143" cy="218.68022221442507" r="3"/><circle cx="531.4285714285714" cy="210.833855845242" r="3"/><circle cx="548.5714285714286" cy="186.18355152816406" r="3"/><circle cx="565.7142857142857" cy="196.98887813870147" r="3"/><circle cx="582.8571428571429" cy="289.76873898751467" r="3"/><circle cx="600" cy="285.68299122590867" r="3"/><circle cx="617.1428571428572" cy="288.3533913258478" r="3"/><circle cx="634.2857142857142" cy="272.2556516908343" r="3"/><circle cx="651.4285714285714" cy="94.66799477039368" r="3"/><circle cx="668.5714285714286" cy="211.94695013832467" r="3"/><circle cx="685.7142857142858" cy="166.65227811422784" r="3"/><circle cx="702.8571428571429" cy="182.3107760322746" r="3"/><circle cx="720" cy="75.05487942757343" r="3"/><circle cx="737.1428571428571" cy="0" r="3"/><circle cx="754.2857142857143" cy="271.7746426519278" r="3"/><circle cx="771.4285714285714" cy="266.72223085859645" r="3"/><circle cx="788.5714285714286" cy="264.63557229686757" r="3"/><circle cx="805.7142857142857" cy="260.5071305459903" r="3"/><circle cx="822.8571428571429" cy="264.98597030916216" r="3"/><circle cx="840" cy="261.1532433846101" r="3"/><path class="error-bar" x="0" y="398.2223770951934" d="M 0 398.2223770951934 V 398.13846620123803 h -3 h 6 h -3 V 398.30628798914864 h -3 h 6"/><path class="error-bar" x="17.142857142857142" y="395.8464096280224" d="M 17.142857142857142 395.8464096280224 V 395.3472348338176 h -3 h 6 h -3 V 396.3455844222272 h -3 h 6"/><path class="error-bar" x="34.285714285714285" y="390.17263310436954" d="M 34.285714285714285 390.17263310436954 V 389.3379893756787 h -3 h 6 h -3 V 391.0072768330604 h -3 h 6"/><path class="error-bar" x="51.42857142857143" y="390.6487948195213" d="M 51.42857142857143 390.6487948195213 V 389.3265014825308 h -3 h 6 h -3 V 391.97108815651194 h -3 h 6"/><path class="error-bar" x="68.57142857142857" y="388.33720718173345" d="M 68.57142857142857 388.33720718173345 V 386.44240493155667 h -3 h 6 h -3 V 390.2320094319103 h -3 h 6"/><path class="error-bar" x="85.71428571428572" y="385.117303957096" d="M 85.71428571428572 385.117303957096 V 384.1819869782694 h -3 h 6 h -3 V 386.0526209359226 h -3 h 6"/><path class="error-bar" x="102.85714285714286" y="382.05311319752644" d="M 102.85714285714286 382.05311319752644 V 381.0936738214556 h -3 h 6 h -3 V 383.0125525735973 h -3 h 6"/><path class="error-bar" x="120" y="370.99849787988734" d="M 120 370.99849787988734 V 367.15528130926185 h -3 h 6 h -3 V 374.8417144505128 h -3 h 6"/><path class="error-bar" x="137.14285714285714" y="366.3764264410474" d="M 137.14285714285714 366.3764264410474 V 363.225405212777 h -3 h 6 h -3 V 369.5274476693177 h -3 h 6"/><path class="error-bar" x="154.2857142857143" y="362.0775219577549" d="M 154.2857142857143 362.0775219577549 V 358.6568929496281 h -3 h 6 h -3 V 365.4981509658817 h -3 h 6"/><path class="error-bar" x="171.42857142857144" y="371.06616164419745" d="M 171.42857142857144 371.06616164419745 V 367.4840287324475 h -3 h 6 h -3 V 374.64829455594753 h -3 h 6"/><path class="error-bar" x="188.57142857142858" y="352.43884965686414" d="M 188.57142857142858 352.43884965686414 V 346.05890221427944 h -3 h 6 h -3 V 358.81879709944883 h -3 h 6"/><path class="error-bar" x="205.71428571428572" y="348.55634182976445" d="M 205.71428571428572 348.55634182976445 V 341.4701536994184 h -3 h 6 h -3 V 355.6425299601105 h -3 h 6"/><path class="error-bar" x="222.85714285714286" y="359.93857818958793" d="M 222.85714285714286 359.93857818958793 V 357.7110597155691 h -3 h 6 h -3 V 362.1660966636068 h -3 h 6"/><path class="error-bar" x="240" y="355.58449411179686" d="M 240 355.58449411179686 V 354.26708534044866 h -3 h 6 h -3 V 356.90190288314494 h -3 h 6"/><path class="error-bar" x="257.14285714285717" y="330.00004148223104" d="M 257.14285714285717 330.00004148223104 V 320.2379066100701 h -3 h 6 h -3 V 339.7621763543919 h -3 h 6"/><path class="error-bar" x="274.2857142857143" y="350.35541491463044" d="M 274.2857142857143 350.35541491463044 V 346.89059287206857 h -3 h 6 h -3 V 353.8202369571923 h -3 h 6"/><path class="error-bar" x="291.42857142857144" y="316.4472631441955" d="M 291.42857142857144 316.4472631441955 V 299.93692724719955 h -3 h 6 h -3 V 332.9575990411915 h -3 h 6"/><path class="error-bar" x="308.5714285714286" y="304.80135578245" d="M 308.5714285714286 304.80135578245 V 287.7993956244747 h -3 h 6 h -3 V 321.8033159404253 h -3 h 6"/><path class="error-bar" x="325.7142857142857" y="340.8675900500441" d="M 325.7142857142857 340.8675900500441 V 339.25327865258794 h -3 h 6 h -3 V 342.48190144750026 h -3 h 6"/><path class="error-bar" x="342.8571428571429" y="337.221491981663" d="M 342.8571428571429 337.221491981663 V 334.47915149147536 h -3 h 6 h -3 V 339.96383247185065 h -3 h 6"/><path class="error-bar" x="360" y="333.4130178964341" d="M 360 333.4130178964341 V 329.5953636403381 h -3 h 6 h -3 V 337.2306721525301 h -3 h 6"/><path class="error-bar" x="377.14285714285717" y="328.66976812011194" d="M 377.14285714285717 328.66976812011194 V 326.42392592935846 h -3 h 6 h -3 V 330.91561031086536 h -3 h 6"/><path class="error-bar" x="394.2857142857143" y="328.6696036284828" d="M 394.2857142857143 328.6696036284828 V 326.08114538780654 h -3 h 6 h -3 V 331.25806186915895 h -3 h 6"/><path class="error-bar" x="411.42857142857144" y="326.2176914042006" d="M 411.42857142857144 326.2176914042006 V 323.4305050150995 h -3 h 6 h -3 V 329.0048777933016 h -3 h 6"/><path class="error-bar" x="428.57142857142856" y="320.71304512469584" d="M 428.57142857142856 320.71304512469584 V 318.544611106194 h -3 h 6 h -3 V 322.8814791431976 h -3 h 6"/><path class="error-bar" x="445.7142857142857" y="316.3390952112692" d="M 445.7142857142857 316.3390952112692 V 312.6492156672985 h -3 h 6 h -3 V 320.02897475523986 h -3 h 6"/><path class="error-bar" x="462.85714285714283" y="239.80835380571736" d="M 462.85714285714283 239.80835380571736 V 189.57604025924516 h -3 h 6 h -3 V 290.04066735218964 h -3 h 6"/><path class="error-bar" x="480" y="238.41139151051814" d="M 480 238.41139151051814 V 185.47525832377895 h -3 h 6 h -3 V 291.34752469725737 h -3 h 6"/><path class="error-bar" x="497.1428571428571" y="307.2437243289403" d="M 497.1428571428571 307.2437243289403 V 298.1400963426334 h -3 h 6 h -3 V 316.3473523152471 h -3 h 6"/><path class="error-bar" x="514.2857142857143" y="218.68022221442507" d="M 514.2857142857143 218.68022221442507 V 161.31258360767268 h -3 h 6 h -3 V 276.0478608211775 h -3 h 6"/><path class="error-bar" x="531.4285714285714" y="210.833855845242" d="M 531.4285714285714 210.833855845242 V 148.3978331788331 h -3 h 6 h -3 V 273.26987851165103 h -3 h 6"/><path class="error-bar" x="548.5714285714286" y="186.18355152816406" d="M 548.5714285714286 186.18355152816406 V 132.92543497163604 h -3 h 6 h -3 V 239.44166808469208 h -3 h 6"/><path class="error-bar" x="565.7142857142857" y="196.98887813870147" d="M 565.7142857142857 196.98887813870147 V 121.09031618449096 h -3 h 6 h -3 V 272.88744009291196 h -3 h 6"/><path class="error-bar" x="582.8571428571429" y="289.76873898751467" d="M 582.8571428571429 289.76873898751467 V 286.41496016019585 h -3 h 6 h -3 V 293.12251781483354 h -3 h 6"/><path class="error-bar" x="600" y="285.68299122590867" d="M 600 285.68299122590867 V 270.4553600020099 h -3 h 6 h -3 V 300.9106224498074 h -3 h 6"/><path class="error-bar" x="617.1428571428572" y="288.3533913258478" d="M 617.1428571428572 288.3533913258478 V 274.36400200863756 h -3 h 6 h -3 V 302.34278064305795 h -3 h 6"/><path class="error-bar" x="634.2857142857142" y="272.2556516908343" d="M 634.2857142857142 272.2556516908343 V 258.3577878951524 h -3 h 6 h -3 V 286.15351548651626 h -3 h 6"/><path class="error-bar" x="651.4285714285714" y="94.66799477039368" d="M 651.4285714285714 94.66799477039368 V 63.77180692454787 h -3 h 6 h -3 V 125.56418261623948 h -3 h 6"/><path class="error-bar" x="668.5714285714286" y="211.94695013832467" d="M 668.5714285714286 211.94695013832467 V 120.38141183439328 h -3 h 6 h -3 V 303.512488442256 h -3 h 6"/><path class="error-bar" x="685.7142857142858" y="166.65227811422784" d="M 685.7142857142858 166.65227811422784 V 54.43342285879922 h -3 h 6 h -3 V 278.87113336965655 h -3 h 6"/><path class="error-bar" x="702.8571428571429" y="182.3107760322746" d="M 702.8571428571429 182.3107760322746 V 65.70507664918014 h -3 h 6 h -3 V 298.9164754153691 h -3 h 6"/><path class="error-bar" x="720" y="75.05487942757343" d="M 720 75.05487942757343 V -11.371168171639656 h -3 h 6 h -3 V 161.48092702678647 h -3 h 6"/><path class="error-bar" x="737.1428571428571" y="0" d="M 737.1428571428571 0 V -10.09156621190872 h -3 h 6 h -3 V 10.09156621190872 h -3 h 6"/><path class="error-bar" x="754.2857142857143" y="271.7746426519278" d="M 754.2857142857143 271.7746426519278 V 262.28750272535814 h -3 h 6 h -3 V 281.2617825784975 h -3 h 6"/><path class="error-bar" x="771.4285714285714" y="266.72223085859645" d="M 771.4285714285714 266.72223085859645 V 256.35692235121417 h -3 h 6 h -3 V 277.0875393659788 h -3 h 6"/><path class="error-bar" x="788.5714285714286" y="264.63557229686757" d="M 788.5714285714286 264.63557229686757 V 256.1312303737495 h -3 h 6 h -3 V 273.1399142199857 h -3 h 6"/><path class="error-bar" x="805.7142857142857" y="260.5071305459903" d="M 805.7142857142857 260.5071305459903 V 251.57120156909238 h -3 h 6 h -3 V 269.4430595228883 h -3 h 6"/><path class="error-bar" x="822.8571428571429" y="264.98597030916216" d="M 822.8571428571429 264.98597030916216 V 254.67875797852653 h -3 h 6 h -3 V 275.2931826397977 h -3 h 6"/><path class="error-bar" x="840" y="261.1532433846101" d="M 840 261.1532433846101 V 250.7268099724425 h -3 h 6 h -3 V 271.5796767967778 h -3 h 6"/><path class="line" d="M0,398.2223770951934L17.142857142857142,395.8464096280224L34.285714285714285,390.17263310436954L51.42857142857143,390.6487948195213L68.57142857142857,388.33720718173345L85.71428571428572,385.117303957096L102.85714285714286,382.05311319752644L120,370.99849787988734L137.14285714285714,366.3764264410474L154.2857142857143,362.0775219577549L171.42857142857144,371.06616164419745L188.57142857142858,352.43884965686414L205.71428571428572,348.55634182976445L222.85714285714286,359.93857818958793L240,355.58449411179686L257.14285714285717,330.00004148223104L274.2857142857143,350.35541491463044L291.42857142857144,316.4472631441955L308.5714285714286,304.80135578245L325.7142857142857,340.8675900500441L342.8571428571429,337.221491981663L360,333.4130178964341L377.14285714285717,328.66976812011194L394.2857142857143,328.6696036284828L411.42857142857144,326.2176914042006L428.57142857142856,320.71304512469584L445.7142857142857,316.3390952112692L462.85714285714283,239.80835380571736L480,238.41139151051814L497.1428571428571,307.2437243289403L514.2857142857143,218.68022221442507L531.4285714285714,210.833855845242L548.5714285714286,186.18355152816406L565.7142857142857,196.98887813870147L582.8571428571429,289.76873898751467L600,285.68299122590867L617.1428571428572,288.3533913258478L634.2857142857142,272.2556516908343L651.4285714285714,94.66799477039368L668.5714285714286,211.94695013832467L685.7142857142858,166.65227811422784L702.8571428571429,182.3107760322746L720,75.05487942757343L737.1428571428571,0L754.2857142857143,271.7746426519278L771.4285714285714,266.72223085859645L788.5714285714286,264.63557229686757L805.7142857142857,260.5071305459903L822.8571428571429,264.98597030916216L840,261.1532433846101"/></g><g class="legend" transform="translate(50, 50)"><rect x="0" y="0" width="15" height="15" class="data-series-0"/><rect x="0" y="20" width="15" height="15" class="data-series-1"/><text x="24" y="13">Array</text><text x="24" y="33">Seq</text></g></g></svg>