<svg xmlns="http://www.w3.org/2000/svg" width="960" height="500"><defs><style type="text/css">
.background {
  fill: white;
}

text {
  font-size: 14px;
  font-family: sans-serif;
}

.axis-path,
.axis-line {
  fill: none;
  stroke: #000;
  stroke-width: 1px;
  shape-rendering: crispEdges;
}

.line {
  fill: none;
  stroke-width: 1.5px;
}

.data-series-0 {
  stroke: steelblue;
  fill: steelblue;
}

.data-series-1 {
  stroke: crimson;
  fill: crimson;
}

.data-series-2 {
  stroke: mediumseagreen;
  fill: mediumseagreen;
}

.data-series-3 {
  stroke: mediumslateblue;
  fill: mediumslateblue;
}

.data-series-4 {
  stroke: goldenrod;
  fill: goldenrod;
}

.error-bar {
  fill: none;
}
</style></defs><rect width="960" height="500" class="background"/><g transform="translate(80,40)"><g transform="translate(420, 0)"><text style="text-anchor: middle; font-size: 28px;">Filter a structure</text></g><g class="x axis" transform="translate(0,400)"><g class="tick" transform="translate(97.14285714285714,0)" style="opacity: 1;"><line y2="6" x2="0" class="axis-line"/><text dy=".71em" y="9" x="0" style="text-anchor: middle;">10,000</text></g><g class="tick" transform="translate(211.42857142857142,0)" style="opacity: 1;"><line y2="6" x2="0" class="axis-line"/><text dy=".71em" y="9" x="0" style="text-anchor: middle;">20,000</text></g><g class="tick" transform="translate(325.7142857142857,0)" style="opacity: 1;"><line y2="6" x2="0" class="axis-line"/><text dy=".71em" y="9" x="0" style="text-anchor: middle;">30,000</text></g><g class="tick" transform="translate(440,0)" style="opacity: 1;"><line y2="6" x2="0" class="axis-line"/><text dy=".71em" y="9" x="0" style="text-anchor: middle;">40,000</text></g><g class="tick" transform="translate(554.2857142857142,0)" style="opacity: 1;"><line y2="6" x2="0" class="axis-line"/><text dy=".71em" y="9" x="0" style="text-anchor: middle;">50,000</text></g><g class="tick" transform="translate(668.5714285714286,0)" style="opacity: 1;"><line y2="6" x2="0" class="axis-line"/><text dy=".71em" y="9" x="0" style="text-anchor: middle;">60,000</text></g><g class="tick" transform="translate(782.8571428571429,0)" style="opacity: 1;"><line y2="6" x2="0" class="axis-line"/><text dy=".71em" y="9" x="0" style="text-anchor: middle;">70,000</text></g><path class="axis-path" d="M0,6V0H840V6"/><text x="420" y="40" style="text-anchor: middle;">Number of elements in the structure</text></g><g class="y axis"><g class="tick" transform="translate(0,361.78045201220266)" style="opacity: 1;"><line x2="-6" y2="0" class="axis-line"/><text dy=".32em" x="-9" y="0" style="text-anchor: end;">1.00e-2</text></g><g class="tick" transform="translate(0,323.45896273975916)" style="opacity: 1;"><line x2="-6" y2="0" class="axis-line"/><text dy=".32em" x="-9" y="0" style="text-anchor: end;">0.02</text></g><g class="tick" transform="translate(0,285.1374734673156)" style="opacity: 1;"><line x2="-6" y2="0" class="axis-line"/><text dy=".32em" x="-9" y="0" style="text-anchor: end;">0.03</text></g><g class="tick" transform="translate(0,246.81598419487204)" style="opacity: 1;"><line x2="-6" y2="0" class="axis-line"/><text dy=".32em" x="-9" y="0" style="text-anchor: end;">0.04</text></g><g class="tick" transform="translate(0,208.49449492242852)" style="opacity: 1;"><line x2="-6" y2="0" class="axis-line"/><text dy=".32em" x="-9" y="0" style="text-anchor: end;">0.05</text></g><g class="tick" transform="translate(0,170.17300564998496)" style="opacity: 1;"><line x2="-6" y2="0" class="axis-line"/><text dy=".32em" x="-9" y="0" style="text-anchor: end;">0.06</text></g><g class="tick" transform="translate(0,131.85151637754134)" style="opacity: 1;"><line x2="-6" y2="0" class="axis-line"/><text dy=".32em" x="-9" y="0" style="text-anchor: end;">0.07</text></g><g class="tick" transform="translate(0,93.53002710509779)" style="opacity: 1;"><line x2="-6" y2="0" class="axis-line"/><text dy=".32em" x="-9" y="0" style="text-anchor: end;">0.08</text></g><g class="tick" transform="translate(0,55.208537832654244)" style="opacity: 1;"><line x2="-6" y2="0" class="axis-line"/><text dy=".32em" x="-9" y="0" style="text-anchor: end;">0.09</text></g><g class="tick" transform="translate(0,16.88704856021066)" style="opacity: 1;"><line x2="-6" y2="0" class="axis-line"/><text dy=".32em" x="-9" y="0" style="text-anchor: end;">0.10</text></g><path class="axis-path" d="M-6,0H0V400H-6"/><text transform="rotate(-90)" y="6" dy=".71em" style="text-anchor: end;">Mean running time (seconds)</text></g><g class="data-series-0"><circle cx="0" cy="400" r="3"/><circle cx="17.142857142857142" cy="399.8981028692006" r="3"/><circle cx="34.285714285714285" cy="399.7983859454314" r="3"/><circle cx="51.42857142857143" cy="399.69998610007195" r="3"/><circle cx="68.57142857142857" cy="399.5812340348659" r="3"/><circle cx="85.71428571428572" cy="399.4993952872682" r="3"/><circle cx="102.85714285714286" cy="399.3889498377958" r="3"/><circle cx="120" cy="399.2801082647792" r="3"/><circle cx="137.14285714285714" cy="399.1969108551652" r="3"/><circle cx="154.2857142857143" cy="399.08152694022385" r="3"/><circle cx="171.42857142857144" cy="398.9769093011473" r="3"/><circle cx="188.57142857142858" cy="398.88988473497034" r="3"/><circle cx="205.71428571428572" cy="398.7928126270018" r="3"/><circle cx="222.85714285714286" cy="398.6853024176277" r="3"/><circle cx="240" cy="398.56306679902224" r="3"/><circle cx="257.14285714285717" cy="398.46071853349747" r="3"/><circle cx="274.2857142857143" cy="398.37007254207725" r="3"/><circle cx="291.42857142857144" cy="398.2730110431222" r="3"/><circle cx="308.5714285714286" cy="398.19710135573445" r="3"/><circle cx="325.7142857142857" cy="398.03180208372936" r="3"/><circle cx="342.8571428571429" cy="398.0321950979544" r="3"/><circle cx="360" cy="397.9028392040592" r="3"/><circle cx="377.14285714285717" cy="397.748906157502" r="3"/><circle cx="394.2857142857143" cy="397.41747982156323" r="3"/><circle cx="411.42857142857144" cy="397.56217230058644" r="3"/><circle cx="428.57142857142856" cy="397.4685105128311" r="3"/><circle cx="445.7142857142857" cy="397.39175935048763" r="3"/><circle cx="462.85714285714283" cy="397.2940298814238" r="3"/><circle cx="480" cy="397.18425643629354" r="3"/><circle cx="497.1428571428571" cy="397.0848582290719" r="3"/><circle cx="514.2857142857143" cy="397.02503534168596" r="3"/><circle cx="531.4285714285714" cy="396.9037082872123" r="3"/><circle cx="548.5714285714286" cy="396.81220670672053" r="3"/><circle cx="565.7142857142857" cy="396.583394211926" r="3"/><circle cx="582.8571428571429" cy="396.53196987139086" r="3"/><circle cx="600" cy="396.43305707852994" r="3"/><circle cx="617.1428571428572" cy="396.3171755434638" r="3"/><circle cx="634.2857142857142" cy="396.23452351743475" r="3"/><circle cx="651.4285714285714" cy="396.157673248662" r="3"/><circle cx="668.5714285714286" cy="396.0273687756704" r="3"/><circle cx="685.7142857142858" cy="395.9451049041715" r="3"/><circle cx="702.8571428571429" cy="395.7911149677174" r="3"/><circle cx="720" cy="395.74468659596573" r="3"/><circle cx="737.1428571428571" cy="395.6441365627954" r="3"/><circle cx="754.2857142857143" cy="395.6216225470894" r="3"/><circle cx="771.4285714285714" cy="395.5009338339202" r="3"/><circle cx="788.5714285714286" cy="395.37736591298693" r="3"/><circle cx="805.7142857142857" cy="395.31346237897884" r="3"/><circle cx="822.8571428571429" cy="395.18696545371836" r="3"/><circle cx="840" cy="395.1385032855043" r="3"/><path class="error-bar" x="0" y="400" d="M 0 400 V 399.998926524255 h -3 h 6 h -3 V 400.00107347574493 h -3 h 6"/><path class="error-bar" x="17.142857142857142" y="399.8981028692006" d="M 17.142857142857142 399.8981028692006 V 399.8925724672294 h -3 h 6 h -3 V 399.9036332711718 h -3 h 6"/><path class="error-bar" x="34.285714285714285" y="399.7983859454314" d="M 34.285714285714285 399.7983859454314 V 399.7955229155536 h -3 h 6 h -3 V 399.8012489753092 h -3 h 6"/><path class="error-bar" x="51.42857142857143" y="399.69998610007195" d="M 51.42857142857143 399.69998610007195 V 399.69237854594473 h -3 h 6 h -3 V 399.70759365419923 h -3 h 6"/><path class="error-bar" x="68.57142857142857" y="399.5812340348659" d="M 68.57142857142857 399.5812340348659 V 399.5637779203006 h -3 h 6 h -3 V 399.5986901494312 h -3 h 6"/><path class="error-bar" x="85.71428571428572" y="399.4993952872682" d="M 85.71428571428572 399.4993952872682 V 399.49130043953846 h -3 h 6 h -3 V 399.50749013499797 h -3 h 6"/><path class="error-bar" x="102.85714285714286" y="399.3889498377958" d="M 102.85714285714286 399.3889498377958 V 399.3753191040113 h -3 h 6 h -3 V 399.40258057158024 h -3 h 6"/><path class="error-bar" x="120" y="399.2801082647792" d="M 120 399.2801082647792 V 399.24662170475193 h -3 h 6 h -3 V 399.31359482480644 h -3 h 6"/><path class="error-bar" x="137.14285714285714" y="399.1969108551652" d="M 137.14285714285714 399.1969108551652 V 399.1809306112472 h -3 h 6 h -3 V 399.2128910990831 h -3 h 6"/><path class="error-bar" x="154.2857142857143" y="399.08152694022385" d="M 154.2857142857143 399.08152694022385 V 399.0734398403682 h -3 h 6 h -3 V 399.0896140400795 h -3 h 6"/><path class="error-bar" x="171.42857142857144" y="398.9769093011473" d="M 171.42857142857144 398.9769093011473 V 398.95664364836654 h -3 h 6 h -3 V 398.9971749539281 h -3 h 6"/><path class="error-bar" x="188.57142857142858" y="398.88988473497034" d="M 188.57142857142858 398.88988473497034 V 398.87844214651636 h -3 h 6 h -3 V 398.9013273234242 h -3 h 6"/><path class="error-bar" x="205.71428571428572" y="398.7928126270018" d="M 205.71428571428572 398.7928126270018 V 398.78132556602355 h -3 h 6 h -3 V 398.80429968798006 h -3 h 6"/><path class="error-bar" x="222.85714285714286" y="398.6853024176277" d="M 222.85714285714286 398.6853024176277 V 398.66348474330624 h -3 h 6 h -3 V 398.70712009194926 h -3 h 6"/><path class="error-bar" x="240" y="398.56306679902224" d="M 240 398.56306679902224 V 398.5423342769336 h -3 h 6 h -3 V 398.58379932111086 h -3 h 6"/><path class="error-bar" x="257.14285714285717" y="398.46071853349747" d="M 257.14285714285717 398.46071853349747 V 398.436889328839 h -3 h 6 h -3 V 398.4845477381558 h -3 h 6"/><path class="error-bar" x="274.2857142857143" y="398.37007254207725" d="M 274.2857142857143 398.37007254207725 V 398.35507627235353 h -3 h 6 h -3 V 398.385068811801 h -3 h 6"/><path class="error-bar" x="291.42857142857144" y="398.2730110431222" d="M 291.42857142857144 398.2730110431222 V 398.2440572862662 h -3 h 6 h -3 V 398.3019647999783 h -3 h 6"/><path class="error-bar" x="308.5714285714286" y="398.19710135573445" d="M 308.5714285714286 398.19710135573445 V 398.16085794125877 h -3 h 6 h -3 V 398.23334477021007 h -3 h 6"/><path class="error-bar" x="325.7142857142857" y="398.03180208372936" d="M 325.7142857142857 398.03180208372936 V 397.99905487227767 h -3 h 6 h -3 V 398.064549295181 h -3 h 6"/><path class="error-bar" x="342.8571428571429" y="398.0321950979544" d="M 342.8571428571429 398.0321950979544 V 398.0135916122487 h -3 h 6 h -3 V 398.05079858366014 h -3 h 6"/><path class="error-bar" x="360" y="397.9028392040592" d="M 360 397.9028392040592 V 397.8632066574712 h -3 h 6 h -3 V 397.94247175064714 h -3 h 6"/><path class="error-bar" x="377.14285714285717" y="397.748906157502" d="M 377.14285714285717 397.748906157502 V 397.72670055734363 h -3 h 6 h -3 V 397.7711117576604 h -3 h 6"/><path class="error-bar" x="394.2857142857143" y="397.41747982156323" d="M 394.2857142857143 397.41747982156323 V 397.29291245321497 h -3 h 6 h -3 V 397.5420471899115 h -3 h 6"/><path class="error-bar" x="411.42857142857144" y="397.56217230058644" d="M 411.42857142857144 397.56217230058644 V 397.5341423890261 h -3 h 6 h -3 V 397.59020221214683 h -3 h 6"/><path class="error-bar" x="428.57142857142856" y="397.4685105128311" d="M 428.57142857142856 397.4685105128311 V 397.417588321797 h -3 h 6 h -3 V 397.5194327038652 h -3 h 6"/><path class="error-bar" x="445.7142857142857" y="397.39175935048763" d="M 445.7142857142857 397.39175935048763 V 397.3671359367405 h -3 h 6 h -3 V 397.4163827642348 h -3 h 6"/><path class="error-bar" x="462.85714285714283" y="397.2940298814238" d="M 462.85714285714283 397.2940298814238 V 397.24630796403505 h -3 h 6 h -3 V 397.3417517988126 h -3 h 6"/><path class="error-bar" x="480" y="397.18425643629354" d="M 480 397.18425643629354 V 397.11170694316036 h -3 h 6 h -3 V 397.2568059294268 h -3 h 6"/><path class="error-bar" x="497.1428571428571" y="397.0848582290719" d="M 497.1428571428571 397.0848582290719 V 397.0267763427251 h -3 h 6 h -3 V 397.14294011541875 h -3 h 6"/><path class="error-bar" x="514.2857142857143" y="397.02503534168596" d="M 514.2857142857143 397.02503534168596 V 396.9758149150904 h -3 h 6 h -3 V 397.07425576828166 h -3 h 6"/><path class="error-bar" x="531.4285714285714" y="396.9037082872123" d="M 531.4285714285714 396.9037082872123 V 396.8383074708609 h -3 h 6 h -3 V 396.9691091035636 h -3 h 6"/><path class="error-bar" x="548.5714285714286" y="396.81220670672053" d="M 548.5714285714286 396.81220670672053 V 396.7363610419224 h -3 h 6 h -3 V 396.88805237151865 h -3 h 6"/><path class="error-bar" x="565.7142857142857" y="396.583394211926" d="M 565.7142857142857 396.583394211926 V 396.5106033559448 h -3 h 6 h -3 V 396.6561850679072 h -3 h 6"/><path class="error-bar" x="582.8571428571429" y="396.53196987139086" d="M 582.8571428571429 396.53196987139086 V 396.5015431831888 h -3 h 6 h -3 V 396.5623965595929 h -3 h 6"/><path class="error-bar" x="600" y="396.43305707852994" d="M 600 396.43305707852994 V 396.4021197119653 h -3 h 6 h -3 V 396.46399444509456 h -3 h 6"/><path class="error-bar" x="617.1428571428572" y="396.3171755434638" d="M 617.1428571428572 396.3171755434638 V 396.2574757256311 h -3 h 6 h -3 V 396.37687536129647 h -3 h 6"/><path class="error-bar" x="634.2857142857142" y="396.23452351743475" d="M 634.2857142857142 396.23452351743475 V 396.2005258145171 h -3 h 6 h -3 V 396.26852122035234 h -3 h 6"/><path class="error-bar" x="651.4285714285714" y="396.157673248662" d="M 651.4285714285714 396.157673248662 V 396.12249851670083 h -3 h 6 h -3 V 396.1928479806232 h -3 h 6"/><path class="error-bar" x="668.5714285714286" y="396.0273687756704" d="M 668.5714285714286 396.0273687756704 V 395.9425048853244 h -3 h 6 h -3 V 396.1122326660165 h -3 h 6"/><path class="error-bar" x="685.7142857142858" y="395.9451049041715" d="M 685.7142857142858 395.9451049041715 V 395.8775429889991 h -3 h 6 h -3 V 396.01266681934396 h -3 h 6"/><path class="error-bar" x="702.8571428571429" y="395.7911149677174" d="M 702.8571428571429 395.7911149677174 V 395.72477299391596 h -3 h 6 h -3 V 395.8574569415189 h -3 h 6"/><path class="error-bar" x="720" y="395.74468659596573" d="M 720 395.74468659596573 V 395.6711432387325 h -3 h 6 h -3 V 395.81822995319897 h -3 h 6"/><path class="error-bar" x="737.1428571428571" y="395.6441365627954" d="M 737.1428571428571 395.6441365627954 V 395.57886491024544 h -3 h 6 h -3 V 395.7094082153452 h -3 h 6"/><path class="error-bar" x="754.2857142857143" y="395.6216225470894" d="M 754.2857142857143 395.6216225470894 V 395.5775148595163 h -3 h 6 h -3 V 395.66573023466236 h -3 h 6"/><path class="error-bar" x="771.4285714285714" y="395.5009338339202" d="M 771.4285714285714 395.5009338339202 V 395.4638988271889 h -3 h 6 h -3 V 395.53796884065144 h -3 h 6"/><path class="error-bar" x="788.5714285714286" y="395.37736591298693" d="M 788.5714285714286 395.37736591298693 V 395.2516691670911 h -3 h 6 h -3 V 395.50306265888275 h -3 h 6"/><path class="error-bar" x="805.7142857142857" y="395.31346237897884" d="M 805.7142857142857 395.31346237897884 V 395.20371950223876 h -3 h 6 h -3 V 395.4232052557189 h -3 h 6"/><path class="error-bar" x="822.8571428571429" y="395.18696545371836" d="M 822.8571428571429 395.18696545371836 V 395.1080325574394 h -3 h 6 h -3 V 395.26589834999737 h -3 h 6"/><path class="error-bar" x="840" y="395.1385032855043" d="M 840 395.1385032855043 V 395.02495100843987 h -3 h 6 h -3 V 395.2520555625688 h -3 h 6"/><path class="line" d="M0,400L17.142857142857142,399.8981028692006L34.285714285714285,399.7983859454314L51.42857142857143,399.69998610007195L68.57142857142857,399.5812340348659L85.71428571428572,399.4993952872682L102.85714285714286,399.3889498377958L120,399.2801082647792L137.14285714285714,399.1969108551652L154.2857142857143,399.08152694022385L171.42857142857144,398.9769093011473L188.57142857142858,398.88988473497034L205.71428571428572,398.7928126270018L222.85714285714286,398.6853024176277L240,398.56306679902224L257.14285714285717,398.46071853349747L274.2857142857143,398.37007254207725L291.42857142857144,398.2730110431222L308.5714285714286,398.19710135573445L325.7142857142857,398.03180208372936L342.8571428571429,398.0321950979544L360,397.9028392040592L377.14285714285717,397.748906157502L394.2857142857143,397.41747982156323L411.42857142857144,397.56217230058644L428.57142857142856,397.4685105128311L445.7142857142857,397.39175935048763L462.85714285714283,397.2940298814238L480,397.18425643629354L497.1428571428571,397.0848582290719L514.2857142857143,397.02503534168596L531.4285714285714,396.9037082872123L548.5714285714286,396.81220670672053L565.7142857142857,396.583394211926L582.8571428571429,396.53196987139086L600,396.43305707852994L617.1428571428572,396.3171755434638L634.2857142857142,396.23452351743475L651.4285714285714,396.157673248662L668.5714285714286,396.0273687756704L685.7142857142858,395.9451049041715L702.8571428571429,395.7911149677174L720,395.74468659596573L737.1428571428571,395.6441365627954L754.2857142857143,395.6216225470894L771.4285714285714,395.5009338339202L788.5714285714286,395.37736591298693L805.7142857142857,395.31346237897884L822.8571428571429,395.18696545371836L840,395.1385032855043"/></g><g class="data-series-1"><circle cx="0" cy="391.095619528652" r="3"/><circle cx="17.142857142857142" cy="384.22546571589487" r="3"/><circle cx="34.285714285714285" cy="375.8742725642453" r="3"/><circle cx="51.42857142857143" cy="367.5015766356551" r="3"/><circle cx="68.57142857142857" cy="358.9103914456354" r="3"/><circle cx="85.71428571428572" cy="352.8903108081178" r="3"/><circle cx="102.85714285714286" cy="342.6259143777645" r="3"/><circle cx="120" cy="335.4434995524365" r="3"/><circle cx="137.14285714285714" cy="327.8587659223916" r="3"/><circle cx="154.2857142857143" cy="319.5254414979238" r="3"/><circle cx="171.42857142857144" cy="313.8238545611374" r="3"/><circle cx="188.57142857142858" cy="303.6546772914035" r="3"/><circle cx="205.71428571428572" cy="296.16892779915133" r="3"/><circle cx="222.85714285714286" cy="288.9608146329127" r="3"/><circle cx="240" cy="280.9140819560596" r="3"/><circle cx="257.14285714285717" cy="273.8027433703122" r="3"/><circle cx="274.2857142857143" cy="263.166561424623" r="3"/><circle cx="291.42857142857144" cy="257.44726470093894" r="3"/><circle cx="308.5714285714286" cy="248.5007968014936" r="3"/><circle cx="325.7142857142857" cy="241.87979316168858" r="3"/><circle cx="342.8571428571429" cy="235.4877509270965" r="3"/><circle cx="360" cy="226.43030717411366" r="3"/><circle cx="377.14285714285717" cy="218.50259401695715" r="3"/><circle cx="394.2857142857143" cy="211.74042590982882" r="3"/><circle cx="411.42857142857144" cy="201.04324383397608" r="3"/><circle cx="428.57142857142856" cy="189.9829723947101" r="3"/><circle cx="445.7142857142857" cy="189.53039427115903" r="3"/><circle cx="462.85714285714283" cy="178.6759852644883" r="3"/><circle cx="480" cy="171.50784309044664" r="3"/><circle cx="497.1428571428571" cy="162.14160534712497" r="3"/><circle cx="514.2857142857143" cy="155.68810654319876" r="3"/><circle cx="531.4285714285714" cy="141.11847365838833" r="3"/><circle cx="548.5714285714286" cy="138.0829644014287" r="3"/><circle cx="565.7142857142857" cy="126.90991120574525" r="3"/><circle cx="582.8571428571429" cy="126.10172082301236" r="3"/><circle cx="600" cy="119.1391690796034" r="3"/><circle cx="617.1428571428572" cy="106.19020430160174" r="3"/><circle cx="634.2857142857142" cy="103.03567251912744" r="3"/><circle cx="651.4285714285714" cy="90.67387176463791" r="3"/><circle cx="668.5714285714286" cy="83.06661818418056" r="3"/><circle cx="685.7142857142858" cy="72.18394318798364" r="3"/><circle cx="702.8571428571429" cy="68.69805043372956" r="3"/><circle cx="720" cy="54.80735974183335" r="3"/><circle cx="737.1428571428571" cy="50.501940422074384" r="3"/><circle cx="754.2857142857143" cy="44.13412190374735" r="3"/><circle cx="771.4285714285714" cy="35.25568801317105" r="3"/><circle cx="788.5714285714286" cy="19.92619813611065" r="3"/><circle cx="805.7142857142857" cy="12.307762735220207" r="3"/><circle cx="822.8571428571429" cy="7.3674620526699375" r="3"/><circle cx="840" cy="0" r="3"/><path class="error-bar" x="0" y="391.095619528652" d="M 0 391.095619528652 V 390.1077608584715 h -3 h 6 h -3 V 392.08347819883255 h -3 h 6"/><path class="error-bar" x="17.142857142857142" y="384.22546571589487" d="M 17.142857142857142 384.22546571589487 V 383.6178552474059 h -3 h 6 h -3 V 384.8330761843838 h -3 h 6"/><path class="error-bar" x="34.285714285714285" y="375.8742725642453" d="M 34.285714285714285 375.8742725642453 V 375.1647021229233 h -3 h 6 h -3 V 376.58384300556725 h -3 h 6"/><path class="error-bar" x="51.42857142857143" y="367.5015766356551" d="M 51.42857142857143 367.5015766356551 V 366.163874744478 h -3 h 6 h -3 V 368.8392785268323 h -3 h 6"/><path class="error-bar" x="68.57142857142857" y="358.9103914456354" d="M 68.57142857142857 358.9103914456354 V 356.6977049733135 h -3 h 6 h -3 V 361.1230779179573 h -3 h 6"/><path class="error-bar" x="85.71428571428572" y="352.8903108081178" d="M 85.71428571428572 352.8903108081178 V 351.6096022091317 h -3 h 6 h -3 V 354.17101940710387 h -3 h 6"/><path class="error-bar" x="102.85714285714286" y="342.6259143777645" d="M 102.85714285714286 342.6259143777645 V 339.1808150427046 h -3 h 6 h -3 V 346.07101371282437 h -3 h 6"/><path class="error-bar" x="120" y="335.4434995524365" d="M 120 335.4434995524365 V 331.67286729756034 h -3 h 6 h -3 V 339.2141318073126 h -3 h 6"/><path class="error-bar" x="137.14285714285714" y="327.8587659223916" d="M 137.14285714285714 327.8587659223916 V 324.1897899741498 h -3 h 6 h -3 V 331.52774187063346 h -3 h 6"/><path class="error-bar" x="154.2857142857143" y="319.5254414979238" d="M 154.2857142857143 319.5254414979238 V 314.7516397640885 h -3 h 6 h -3 V 324.2992432317591 h -3 h 6"/><path class="error-bar" x="171.42857142857144" y="313.8238545611374" d="M 171.42857142857144 313.8238545611374 V 310.3184084798266 h -3 h 6 h -3 V 317.3293006424483 h -3 h 6"/><path class="error-bar" x="188.57142857142858" y="303.6546772914035" d="M 188.57142857142858 303.6546772914035 V 300.0410355364367 h -3 h 6 h -3 V 307.2683190463703 h -3 h 6"/><path class="error-bar" x="205.71428571428572" y="296.16892779915133" d="M 205.71428571428572 296.16892779915133 V 292.6624028502418 h -3 h 6 h -3 V 299.6754527480609 h -3 h 6"/><path class="error-bar" x="222.85714285714286" y="288.9608146329127" d="M 222.85714285714286 288.9608146329127 V 283.23846895605396 h -3 h 6 h -3 V 294.6831603097713 h -3 h 6"/><path class="error-bar" x="240" y="280.9140819560596" d="M 240 280.9140819560596 V 274.5005533229791 h -3 h 6 h -3 V 287.32761058914014 h -3 h 6"/><path class="error-bar" x="257.14285714285717" y="273.8027433703122" d="M 257.14285714285717 273.8027433703122 V 268.25349480034635 h -3 h 6 h -3 V 279.35199194027814 h -3 h 6"/><path class="error-bar" x="274.2857142857143" y="263.166561424623" d="M 274.2857142857143 263.166561424623 V 260.8609393502909 h -3 h 6 h -3 V 265.47218349895513 h -3 h 6"/><path class="error-bar" x="291.42857142857144" y="257.44726470093894" d="M 291.42857142857144 257.44726470093894 V 252.22274462175713 h -3 h 6 h -3 V 262.67178478012073 h -3 h 6"/><path class="error-bar" x="308.5714285714286" y="248.5007968014936" d="M 308.5714285714286 248.5007968014936 V 241.626795890645 h -3 h 6 h -3 V 255.37479771234217 h -3 h 6"/><path class="error-bar" x="325.7142857142857" y="241.87979316168858" d="M 325.7142857142857 241.87979316168858 V 235.29241818101312 h -3 h 6 h -3 V 248.46716814236407 h -3 h 6"/><path class="error-bar" x="342.8571428571429" y="235.4877509270965" d="M 342.8571428571429 235.4877509270965 V 227.8175188630548 h -3 h 6 h -3 V 243.15798299113825 h -3 h 6"/><path class="error-bar" x="360" y="226.43030717411366" d="M 360 226.43030717411366 V 217.18812580988947 h -3 h 6 h -3 V 235.6724885383379 h -3 h 6"/><path class="error-bar" x="377.14285714285717" y="218.50259401695715" d="M 377.14285714285717 218.50259401695715 V 211.94242863367828 h -3 h 6 h -3 V 225.06275940023608 h -3 h 6"/><path class="error-bar" x="394.2857142857143" y="211.74042590982882" d="M 394.2857142857143 211.74042590982882 V 206.0462170512235 h -3 h 6 h -3 V 217.43463476843425 h -3 h 6"/><path class="error-bar" x="411.42857142857144" y="201.04324383397608" d="M 411.42857142857144 201.04324383397608 V 196.15113375957387 h -3 h 6 h -3 V 205.93535390837818 h -3 h 6"/><path class="error-bar" x="428.57142857142856" y="189.9829723947101" d="M 428.57142857142856 189.9829723947101 V 179.67341261239892 h -3 h 6 h -3 V 200.29253217702126 h -3 h 6"/><path class="error-bar" x="445.7142857142857" y="189.53039427115903" d="M 445.7142857142857 189.53039427115903 V 183.7766572385434 h -3 h 6 h -3 V 195.28413130377461 h -3 h 6"/><path class="error-bar" x="462.85714285714283" y="178.6759852644883" d="M 462.85714285714283 178.6759852644883 V 166.01024969343263 h -3 h 6 h -3 V 191.34172083554398 h -3 h 6"/><path class="error-bar" x="480" y="171.50784309044664" d="M 480 171.50784309044664 V 160.63228305099645 h -3 h 6 h -3 V 182.38340312989686 h -3 h 6"/><path class="error-bar" x="497.1428571428571" y="162.14160534712497" d="M 497.1428571428571 162.14160534712497 V 148.93370875225492 h -3 h 6 h -3 V 175.34950194199502 h -3 h 6"/><path class="error-bar" x="514.2857142857143" y="155.68810654319876" d="M 514.2857142857143 155.68810654319876 V 144.06944538437202 h -3 h 6 h -3 V 167.3067677020255 h -3 h 6"/><path class="error-bar" x="531.4285714285714" y="141.11847365838833" d="M 531.4285714285714 141.11847365838833 V 128.65792153022286 h -3 h 6 h -3 V 153.57902578655379 h -3 h 6"/><path class="error-bar" x="548.5714285714286" y="138.0829644014287" d="M 548.5714285714286 138.0829644014287 V 129.53518760095682 h -3 h 6 h -3 V 146.6307412019006 h -3 h 6"/><path class="error-bar" x="565.7142857142857" y="126.90991120574525" d="M 565.7142857142857 126.90991120574525 V 120.93241209516204 h -3 h 6 h -3 V 132.88741031632844 h -3 h 6"/><path class="error-bar" x="582.8571428571429" y="126.10172082301236" d="M 582.8571428571429 126.10172082301236 V 114.86752085506131 h -3 h 6 h -3 V 137.33592079096343 h -3 h 6"/><path class="error-bar" x="600" y="119.1391690796034" d="M 600 119.1391690796034 V 113.1476517760837 h -3 h 6 h -3 V 125.13068638312315 h -3 h 6"/><path class="error-bar" x="617.1428571428572" y="106.19020430160174" d="M 617.1428571428572 106.19020430160174 V 96.39689560396137 h -3 h 6 h -3 V 115.98351299924205 h -3 h 6"/><path class="error-bar" x="634.2857142857142" y="103.03567251912744" d="M 634.2857142857142 103.03567251912744 V 92.32057610388318 h -3 h 6 h -3 V 113.75076893437175 h -3 h 6"/><path class="error-bar" x="651.4285714285714" y="90.67387176463791" d="M 651.4285714285714 90.67387176463791 V 78.05796106217771 h -3 h 6 h -3 V 103.2897824670981 h -3 h 6"/><path class="error-bar" x="668.5714285714286" y="83.06661818418056" d="M 668.5714285714286 83.06661818418056 V 71.08835255115831 h -3 h 6 h -3 V 95.0448838172028 h -3 h 6"/><path class="error-bar" x="685.7142857142858" y="72.18394318798364" d="M 685.7142857142858 72.18394318798364 V 59.57059310011723 h -3 h 6 h -3 V 84.79729327585002 h -3 h 6"/><path class="error-bar" x="702.8571428571429" y="68.69805043372956" d="M 702.8571428571429 68.69805043372956 V 54.60004016645827 h -3 h 6 h -3 V 82.7960607010009 h -3 h 6"/><path class="error-bar" x="720" y="54.80735974183335" d="M 720 54.80735974183335 V 41.798967950831134 h -3 h 6 h -3 V 67.81575153283556 h -3 h 6"/><path class="error-bar" x="737.1428571428571" y="50.501940422074384" d="M 737.1428571428571 50.501940422074384 V 38.32808295733629 h -3 h 6 h -3 V 62.675797886812475 h -3 h 6"/><path class="error-bar" x="754.2857142857143" y="44.13412190374735" d="M 754.2857142857143 44.13412190374735 V 29.558256617634136 h -3 h 6 h -3 V 58.7099871898606 h -3 h 6"/><path class="error-bar" x="771.4285714285714" y="35.25568801317105" d="M 771.4285714285714 35.25568801317105 V 19.15646855635331 h -3 h 6 h -3 V 51.35490746998879 h -3 h 6"/><path class="error-bar" x="788.5714285714286" y="19.92619813611065" d="M 788.5714285714286 19.92619813611065 V 6.450763396097603 h -3 h 6 h -3 V 33.4016328761237 h -3 h 6"/><path class="error-bar" x="805.7142857142857" y="12.307762735220207" d="M 805.7142857142857 12.307762735220207 V -0.4261118612233439 h -3 h 6 h -3 V 25.0416373316638 h -3 h 6"/><path class="error-bar" x="822.8571428571429" y="7.3674620526699375" d="M 822.8571428571429 7.3674620526699375 V -5.902264012422975 h -3 h 6 h -3 V 20.63718811776285 h -3 h 6"/><path class="error-bar" x="840" y="0" d="M 840 0 V -12.071006840091325 h -3 h 6 h -3 V 12.07100684009128 h -3 h 6"/><path class="line" d="M0,391.095619528652L17.142857142857142,384.22546571589487L34.285714285714285,375.8742725642453L51.42857142857143,367.5015766356551L68.57142857142857,358.9103914456354L85.71428571428572,352.8903108081178L102.85714285714286,342.6259143777645L120,335.4434995524365L137.14285714285714,327.8587659223916L154.2857142857143,319.5254414979238L171.42857142857144,313.8238545611374L188.57142857142858,303.6546772914035L205.71428571428572,296.16892779915133L222.85714285714286,288.9608146329127L240,280.9140819560596L257.14285714285717,273.8027433703122L274.2857142857143,263.166561424623L291.42857142857144,257.44726470093894L308.5714285714286,248.5007968014936L325.7142857142857,241.87979316168858L342.8571428571429,235.4877509270965L360,226.43030717411366L377.14285714285717,218.50259401695715L394.2857142857143,211.74042590982882L411.42857142857144,201.04324383397608L428.57142857142856,189.9829723947101L445.7142857142857,189.53039427115903L462.85714285714283,178.6759852644883L480,171.50784309044664L497.1428571428571,162.14160534712497L514.2857142857143,155.68810654319876L531.4285714285714,141.11847365838833L548.5714285714286,138.0829644014287L565.7142857142857,126.90991120574525L582.8571428571429,126.10172082301236L600,119.1391690796034L617.1428571428572,106.19020430160174L634.2857142857142,103.03567251912744L651.4285714285714,90.67387176463791L668.5714285714286,83.06661818418056L685.7142857142858,72.18394318798364L702.8571428571429,68.69805043372956L720,54.80735974183335L737.1428571428571,50.501940422074384L754.2857142857143,44.13412190374735L771.4285714285714,35.25568801317105L788.5714285714286,19.92619813611065L805.7142857142857,12.307762735220207L822.8571428571429,7.3674620526699375L840,0"/></g><g class="legend" transform="translate(50, 50)"><rect x="0" y="0" width="15" height="15" class="data-series-0"/><rect x="0" y="20" width="15" height="15" class="data-series-1"/><text x="24" y="13">Array</text><text x="24" y="33">Seq</text></g></g></svg>