<svg xmlns="http://www.w3.org/2000/svg" width="960" height="500"><defs><style type="text/css">
.background {
  fill: white;
}

text {
  font-size: 14px;
  font-family: sans-serif;
}

.axis-path,
.axis-line {
  fill: none;
  stroke: #000;
  stroke-width: 1px;
  shape-rendering: crispEdges;
}

.line {
  fill: none;
  stroke-width: 1.5px;
}

.data-series-0 {
  stroke: steelblue;
  fill: steelblue;
}

.data-series-1 {
  stroke: crimson;
  fill: crimson;
}

.data-series-2 {
  stroke: mediumseagreen;
  fill: mediumseagreen;
}

.data-series-3 {
  stroke: mediumslateblue;
  fill: mediumslateblue;
}

.data-series-4 {
  stroke: goldenrod;
  fill: goldenrod;
}

.error-bar {
  fill: none;
}
</style></defs><rect width="960" height="500" class="background"/><g transform="translate(80,40)"><g transform="translate(420, 0)"><text style="text-anchor: middle; font-size: 28px;">Insert lots of elements into an empty structure</text></g><g class="x axis" transform="translate(0,400)"><g class="tick" transform="translate(68.57142857142857,0)" style="opacity: 1;"><line y2="6" x2="0" class="axis-line"/><text dy=".71em" y="9" x="0" style="text-anchor: middle;">5,000</text></g><g class="tick" transform="translate(154.2857142857143,0)" style="opacity: 1;"><line y2="6" x2="0" class="axis-line"/><text dy=".71em" y="9" x="0" style="text-anchor: middle;">10,000</text></g><g class="tick" transform="translate(240,0)" style="opacity: 1;"><line y2="6" x2="0" class="axis-line"/><text dy=".71em" y="9" x="0" style="text-anchor: middle;">15,000</text></g><g class="tick" transform="translate(325.7142857142857,0)" style="opacity: 1;"><line y2="6" x2="0" class="axis-line"/><text dy=".71em" y="9" x="0" style="text-anchor: middle;">20,000</text></g><g class="tick" transform="translate(411.42857142857144,0)" style="opacity: 1;"><line y2="6" x2="0" class="axis-line"/><text dy=".71em" y="9" x="0" style="text-anchor: middle;">25,000</text></g><g class="tick" transform="translate(497.1428571428571,0)" style="opacity: 1;"><line y2="6" x2="0" class="axis-line"/><text dy=".71em" y="9" x="0" style="text-anchor: middle;">30,000</text></g><g class="tick" transform="translate(582.8571428571429,0)" style="opacity: 1;"><line y2="6" x2="0" class="axis-line"/><text dy=".71em" y="9" x="0" style="text-anchor: middle;">35,000</text></g><g class="tick" transform="translate(668.5714285714286,0)" style="opacity: 1;"><line y2="6" x2="0" class="axis-line"/><text dy=".71em" y="9" x="0" style="text-anchor: middle;">40,000</text></g><g class="tick" transform="translate(754.2857142857143,0)" style="opacity: 1;"><line y2="6" x2="0" class="axis-line"/><text dy=".71em" y="9" x="0" style="text-anchor: middle;">45,000</text></g><g class="tick" transform="translate(840,0)" style="opacity: 1;"><line y2="6" x2="0" class="axis-line"/><text dy=".71em" y="9" x="0" style="text-anchor: middle;">50,000</text></g><path class="axis-path" d="M0,6V0H840V6"/><text x="420" y="40" style="text-anchor: middle;">Number of elements to be inserted</text></g><g class="y axis"><g class="tick" transform="translate(0,360.0371229746142)" style="opacity: 1;"><line x2="-6" y2="0" class="axis-line"/><text dy=".32em" x="-9" y="0" style="text-anchor: end;">0.10</text></g><g class="tick" transform="translate(0,319.85447883029906)" style="opacity: 1;"><line x2="-6" y2="0" class="axis-line"/><text dy=".32em" x="-9" y="0" style="text-anchor: end;">0.20</text></g><g class="tick" transform="translate(0,279.671834685984)" style="opacity: 1;"><line x2="-6" y2="0" class="axis-line"/><text dy=".32em" x="-9" y="0" style="text-anchor: end;">0.30</text></g><g class="tick" transform="translate(0,239.48919054166885)" style="opacity: 1;"><line x2="-6" y2="0" class="axis-line"/><text dy=".32em" x="-9" y="0" style="text-anchor: end;">0.40</text></g><g class="tick" transform="translate(0,199.30654639735374)" style="opacity: 1;"><line x2="-6" y2="0" class="axis-line"/><text dy=".32em" x="-9" y="0" style="text-anchor: end;">0.50</text></g><g class="tick" transform="translate(0,159.12390225303866)" style="opacity: 1;"><line x2="-6" y2="0" class="axis-line"/><text dy=".32em" x="-9" y="0" style="text-anchor: end;">0.60</text></g><g class="tick" transform="translate(0,118.9412581087236)" style="opacity: 1;"><line x2="-6" y2="0" class="axis-line"/><text dy=".32em" x="-9" y="0" style="text-anchor: end;">0.70</text></g><g class="tick" transform="translate(0,78.75861396440844)" style="opacity: 1;"><line x2="-6" y2="0" class="axis-line"/><text dy=".32em" x="-9" y="0" style="text-anchor: end;">0.80</text></g><g class="tick" transform="translate(0,38.57596982009337)" style="opacity: 1;"><line x2="-6" y2="0" class="axis-line"/><text dy=".32em" x="-9" y="0" style="text-anchor: end;">0.90</text></g><path class="axis-path" d="M-6,0H0V400H-6"/><text transform="rotate(-90)" y="6" dy=".71em" style="text-anchor: end;">Mean running time (seconds)</text></g><g class="data-series-0"><circle cx="0" cy="400" r="3"/><circle cx="17.142857142857142" cy="399.5296691884865" r="3"/><circle cx="34.285714285714285" cy="398.7574512186864" r="3"/><circle cx="51.42857142857143" cy="397.7283450890563" r="3"/><circle cx="68.57142857142857" cy="396.47561613543894" r="3"/><circle cx="85.71428571428572" cy="394.92053777172794" r="3"/><circle cx="102.85714285714286" cy="393.1424051493722" r="3"/><circle cx="120" cy="391.0964521399626" r="3"/><circle cx="137.14285714285714" cy="388.74295656426835" r="3"/><circle cx="154.2857142857143" cy="386.1887102985859" r="3"/><circle cx="171.42857142857144" cy="383.3279926529724" r="3"/><circle cx="188.57142857142858" cy="380.2448742581799" r="3"/><circle cx="205.71428571428572" cy="376.82657733094203" r="3"/><circle cx="222.85714285714286" cy="373.0454699647431" r="3"/><circle cx="240" cy="368.8500347892158" r="3"/><circle cx="257.14285714285717" cy="364.7198622044867" r="3"/><circle cx="274.2857142857143" cy="359.4091513831437" r="3"/><circle cx="291.42857142857144" cy="354.0711594339183" r="3"/><circle cx="308.5714285714286" cy="348.7799049892791" r="3"/><circle cx="325.7142857142857" cy="342.5655814467982" r="3"/><circle cx="342.8571428571429" cy="336.01973556501423" r="3"/><circle cx="360" cy="329.2368936016358" r="3"/><circle cx="377.14285714285717" cy="321.9339070279179" r="3"/><circle cx="394.2857142857143" cy="314.3279588679107" r="3"/><circle cx="411.42857142857144" cy="306.5540236185307" r="3"/><circle cx="428.57142857142856" cy="298.7873786488741" r="3"/><circle cx="445.7142857142857" cy="289.59505346497724" r="3"/><circle cx="462.85714285714283" cy="280.9840143853797" r="3"/><circle cx="480" cy="271.5794184962236" r="3"/><circle cx="497.1428571428571" cy="262.6000039225142" r="3"/><circle cx="514.2857142857143" cy="252.953079526075" r="3"/><circle cx="531.4285714285714" cy="242.25697107032929" r="3"/><circle cx="548.5714285714286" cy="232.17735569994855" r="3"/><circle cx="565.7142857142857" cy="221.3825696290873" r="3"/><circle cx="582.8571428571429" cy="209.3287005866081" r="3"/><circle cx="600" cy="198.8210954087081" r="3"/><circle cx="617.1428571428572" cy="186.07051735836347" r="3"/><circle cx="634.2857142857142" cy="174.05153131573977" r="3"/><circle cx="651.4285714285714" cy="161.59388474120732" r="3"/><circle cx="668.5714285714286" cy="148.4796705041251" r="3"/><circle cx="685.7142857142858" cy="135.50826091959357" r="3"/><circle cx="702.8571428571429" cy="122.35612989302305" r="3"/><circle cx="720" cy="108.4092866218882" r="3"/><circle cx="737.1428571428571" cy="94.41507805896836" r="3"/><circle cx="754.2857142857143" cy="79.36562303251353" r="3"/><circle cx="771.4285714285714" cy="64.08167357558798" r="3"/><circle cx="788.5714285714286" cy="48.69579653650704" r="3"/><circle cx="805.7142857142857" cy="32.554772806399825" r="3"/><circle cx="822.8571428571429" cy="16.611447685482574" r="3"/><circle cx="840" cy="0" r="3"/><path class="error-bar" x="0" y="400" d="M 0 400 V 399.9962812716512 h -3 h 6 h -3 V 400.0037187283488 h -3 h 6"/><path class="error-bar" x="17.142857142857142" y="399.5296691884865" d="M 17.142857142857142 399.5296691884865 V 399.52013721806384 h -3 h 6 h -3 V 399.5392011589091 h -3 h 6"/><path class="error-bar" x="34.285714285714285" y="398.7574512186864" d="M 34.285714285714285 398.7574512186864 V 398.71604268614067 h -3 h 6 h -3 V 398.7988597512321 h -3 h 6"/><path class="error-bar" x="51.42857142857143" y="397.7283450890563" d="M 51.42857142857143 397.7283450890563 V 397.658622544396 h -3 h 6 h -3 V 397.79806763371664 h -3 h 6"/><path class="error-bar" x="68.57142857142857" y="396.47561613543894" d="M 68.57142857142857 396.47561613543894 V 396.39620329007414 h -3 h 6 h -3 V 396.5550289808037 h -3 h 6"/><path class="error-bar" x="85.71428571428572" y="394.92053777172794" d="M 85.71428571428572 394.92053777172794 V 394.78556248052627 h -3 h 6 h -3 V 395.0555130629296 h -3 h 6"/><path class="error-bar" x="102.85714285714286" y="393.1424051493722" d="M 102.85714285714286 393.1424051493722 V 392.9656088021717 h -3 h 6 h -3 V 393.31920149657276 h -3 h 6"/><path class="error-bar" x="120" y="391.0964521399626" d="M 120 391.0964521399626 V 390.9514181851158 h -3 h 6 h -3 V 391.24148609480943 h -3 h 6"/><path class="error-bar" x="137.14285714285714" y="388.74295656426835" d="M 137.14285714285714 388.74295656426835 V 388.48555171125156 h -3 h 6 h -3 V 389.0003614172851 h -3 h 6"/><path class="error-bar" x="154.2857142857143" y="386.1887102985859" d="M 154.2857142857143 386.1887102985859 V 385.92710927262647 h -3 h 6 h -3 V 386.4503113245453 h -3 h 6"/><path class="error-bar" x="171.42857142857144" y="383.3279926529724" d="M 171.42857142857144 383.3279926529724 V 383.0691458966868 h -3 h 6 h -3 V 383.58683940925795 h -3 h 6"/><path class="error-bar" x="188.57142857142858" y="380.2448742581799" d="M 188.57142857142858 380.2448742581799 V 379.9910351446455 h -3 h 6 h -3 V 380.4987133717143 h -3 h 6"/><path class="error-bar" x="205.71428571428572" y="376.82657733094203" d="M 205.71428571428572 376.82657733094203 V 376.33460188534247 h -3 h 6 h -3 V 377.3185527765417 h -3 h 6"/><path class="error-bar" x="222.85714285714286" y="373.0454699647431" d="M 222.85714285714286 373.0454699647431 V 372.55683801677196 h -3 h 6 h -3 V 373.5341019127143 h -3 h 6"/><path class="error-bar" x="240" y="368.8500347892158" d="M 240 368.8500347892158 V 368.30853189072883 h -3 h 6 h -3 V 369.39153768770285 h -3 h 6"/><path class="error-bar" x="257.14285714285717" y="364.7198622044867" d="M 257.14285714285717 364.7198622044867 V 364.27095509786693 h -3 h 6 h -3 V 365.1687693111064 h -3 h 6"/><path class="error-bar" x="274.2857142857143" y="359.4091513831437" d="M 274.2857142857143 359.4091513831437 V 358.8989545418089 h -3 h 6 h -3 V 359.91934822447837 h -3 h 6"/><path class="error-bar" x="291.42857142857144" y="354.0711594339183" d="M 291.42857142857144 354.0711594339183 V 353.3601463558989 h -3 h 6 h -3 V 354.78217251193774 h -3 h 6"/><path class="error-bar" x="308.5714285714286" y="348.7799049892791" d="M 308.5714285714286 348.7799049892791 V 348.38526699671615 h -3 h 6 h -3 V 349.174542981842 h -3 h 6"/><path class="error-bar" x="325.7142857142857" y="342.5655814467982" d="M 325.7142857142857 342.5655814467982 V 342.0416314284331 h -3 h 6 h -3 V 343.0895314651633 h -3 h 6"/><path class="error-bar" x="342.8571428571429" y="336.01973556501423" d="M 342.8571428571429 336.01973556501423 V 335.5967629013275 h -3 h 6 h -3 V 336.44270822870095 h -3 h 6"/><path class="error-bar" x="360" y="329.2368936016358" d="M 360 329.2368936016358 V 328.9685634729848 h -3 h 6 h -3 V 329.5052237302868 h -3 h 6"/><path class="error-bar" x="377.14285714285717" y="321.9339070279179" d="M 377.14285714285717 321.9339070279179 V 321.37963667258117 h -3 h 6 h -3 V 322.4881773832546 h -3 h 6"/><path class="error-bar" x="394.2857142857143" y="314.3279588679107" d="M 394.2857142857143 314.3279588679107 V 313.6290135729723 h -3 h 6 h -3 V 315.026904162849 h -3 h 6"/><path class="error-bar" x="411.42857142857144" y="306.5540236185307" d="M 411.42857142857144 306.5540236185307 V 306.07613902005716 h -3 h 6 h -3 V 307.03190821700434 h -3 h 6"/><path class="error-bar" x="428.57142857142856" y="298.7873786488741" d="M 428.57142857142856 298.7873786488741 V 298.4828116757664 h -3 h 6 h -3 V 299.0919456219819 h -3 h 6"/><path class="error-bar" x="445.7142857142857" y="289.59505346497724" d="M 445.7142857142857 289.59505346497724 V 287.28724388641194 h -3 h 6 h -3 V 291.90286304354254 h -3 h 6"/><path class="error-bar" x="462.85714285714283" y="280.9840143853797" d="M 462.85714285714283 280.9840143853797 V 280.20302906465 h -3 h 6 h -3 V 281.76499970610934 h -3 h 6"/><path class="error-bar" x="480" y="271.5794184962236" d="M 480 271.5794184962236 V 270.6320851093593 h -3 h 6 h -3 V 272.5267518830878 h -3 h 6"/><path class="error-bar" x="497.1428571428571" y="262.6000039225142" d="M 497.1428571428571 262.6000039225142 V 261.87156588984334 h -3 h 6 h -3 V 263.328441955185 h -3 h 6"/><path class="error-bar" x="514.2857142857143" y="252.953079526075" d="M 514.2857142857143 252.953079526075 V 252.2357217237607 h -3 h 6 h -3 V 253.67043732838934 h -3 h 6"/><path class="error-bar" x="531.4285714285714" y="242.25697107032929" d="M 531.4285714285714 242.25697107032929 V 241.38757373200156 h -3 h 6 h -3 V 243.12636840865696 h -3 h 6"/><path class="error-bar" x="548.5714285714286" y="232.17735569994855" d="M 548.5714285714286 232.17735569994855 V 231.3670171502161 h -3 h 6 h -3 V 232.987694249681 h -3 h 6"/><path class="error-bar" x="565.7142857142857" y="221.3825696290873" d="M 565.7142857142857 221.3825696290873 V 220.68389131650673 h -3 h 6 h -3 V 222.08124794166784 h -3 h 6"/><path class="error-bar" x="582.8571428571429" y="209.3287005866081" d="M 582.8571428571429 209.3287005866081 V 208.2559721831865 h -3 h 6 h -3 V 210.4014289900297 h -3 h 6"/><path class="error-bar" x="600" y="198.8210954087081" d="M 600 198.8210954087081 V 198.27170205687264 h -3 h 6 h -3 V 199.37048876054345 h -3 h 6"/><path class="error-bar" x="617.1428571428572" y="186.07051735836347" d="M 617.1428571428572 186.07051735836347 V 185.5575647368284 h -3 h 6 h -3 V 186.58346997989864 h -3 h 6"/><path class="error-bar" x="634.2857142857142" y="174.05153131573977" d="M 634.2857142857142 174.05153131573977 V 171.89799854603675 h -3 h 6 h -3 V 176.2050640854428 h -3 h 6"/><path class="error-bar" x="651.4285714285714" y="161.59388474120732" d="M 651.4285714285714 161.59388474120732 V 160.96978274028265 h -3 h 6 h -3 V 162.21798674213198 h -3 h 6"/><path class="error-bar" x="668.5714285714286" y="148.4796705041251" d="M 668.5714285714286 148.4796705041251 V 147.35021883179925 h -3 h 6 h -3 V 149.60912217645097 h -3 h 6"/><path class="error-bar" x="685.7142857142858" y="135.50826091959357" d="M 685.7142857142858 135.50826091959357 V 134.5913114001757 h -3 h 6 h -3 V 136.42521043901144 h -3 h 6"/><path class="error-bar" x="702.8571428571429" y="122.35612989302305" d="M 702.8571428571429 122.35612989302305 V 121.22641267624022 h -3 h 6 h -3 V 123.48584710980587 h -3 h 6"/><path class="error-bar" x="720" y="108.4092866218882" d="M 720 108.4092866218882 V 107.52143551464117 h -3 h 6 h -3 V 109.29713772913519 h -3 h 6"/><path class="error-bar" x="737.1428571428571" y="94.41507805896836" d="M 737.1428571428571 94.41507805896836 V 94.00857926400512 h -3 h 6 h -3 V 94.82157685393156 h -3 h 6"/><path class="error-bar" x="754.2857142857143" y="79.36562303251353" d="M 754.2857142857143 79.36562303251353 V 78.72789880921674 h -3 h 6 h -3 V 80.00334725581033 h -3 h 6"/><path class="error-bar" x="771.4285714285714" y="64.08167357558798" d="M 771.4285714285714 64.08167357558798 V 62.81693689201382 h -3 h 6 h -3 V 65.3464102591621 h -3 h 6"/><path class="error-bar" x="788.5714285714286" y="48.69579653650704" d="M 788.5714285714286 48.69579653650704 V 48.06566763671061 h -3 h 6 h -3 V 49.32592543630348 h -3 h 6"/><path class="error-bar" x="805.7142857142857" y="32.554772806399825" d="M 805.7142857142857 32.554772806399825 V 31.3291305171592 h -3 h 6 h -3 V 33.78041509564045 h -3 h 6"/><path class="error-bar" x="822.8571428571429" y="16.611447685482574" d="M 822.8571428571429 16.611447685482574 V 15.337412722449573 h -3 h 6 h -3 V 17.885482648515527 h -3 h 6"/><path class="error-bar" x="840" y="0" d="M 840 0 V -0.9646306586749809 h -3 h 6 h -3 V 0.9646306586749809 h -3 h 6"/><path class="line" d="M0,400L17.142857142857142,399.5296691884865L34.285714285714285,398.7574512186864L51.42857142857143,397.7283450890563L68.57142857142857,396.47561613543894L85.71428571428572,394.92053777172794L102.85714285714286,393.1424051493722L120,391.0964521399626L137.14285714285714,388.74295656426835L154.2857142857143,386.1887102985859L171.42857142857144,383.3279926529724L188.57142857142858,380.2448742581799L205.71428571428572,376.82657733094203L222.85714285714286,373.0454699647431L240,368.8500347892158L257.14285714285717,364.7198622044867L274.2857142857143,359.4091513831437L291.42857142857144,354.0711594339183L308.5714285714286,348.7799049892791L325.7142857142857,342.5655814467982L342.8571428571429,336.01973556501423L360,329.2368936016358L377.14285714285717,321.9339070279179L394.2857142857143,314.3279588679107L411.42857142857144,306.5540236185307L428.57142857142856,298.7873786488741L445.7142857142857,289.59505346497724L462.85714285714283,280.9840143853797L480,271.5794184962236L497.1428571428571,262.6000039225142L514.2857142857143,252.953079526075L531.4285714285714,242.25697107032929L548.5714285714286,232.17735569994855L565.7142857142857,221.3825696290873L582.8571428571429,209.3287005866081L600,198.8210954087081L617.1428571428572,186.07051735836347L634.2857142857142,174.05153131573977L651.4285714285714,161.59388474120732L668.5714285714286,148.4796705041251L685.7142857142858,135.50826091959357L702.8571428571429,122.35612989302305L720,108.4092866218882L737.1428571428571,94.41507805896836L754.2857142857143,79.36562303251353L771.4285714285714,64.08167357558798L788.5714285714286,48.69579653650704L805.7142857142857,32.554772806399825L822.8571428571429,16.611447685482574L840,0"/></g><g class="data-series-1"><circle cx="0" cy="399.1480957865429" r="3"/><circle cx="17.142857142857142" cy="398.0566570219545" r="3"/><circle cx="34.285714285714285" cy="396.93616003406527" r="3"/><circle cx="51.42857142857143" cy="395.82885173289225" r="3"/><circle cx="68.57142857142857" cy="394.7160964691884" r="3"/><circle cx="85.71428571428572" cy="393.5867763218967" r="3"/><circle cx="102.85714285714286" cy="392.46416340707214" r="3"/><circle cx="120" cy="391.33762418698336" r="3"/><circle cx="137.14285714285714" cy="390.4266946623065" r="3"/><circle cx="154.2857142857143" cy="389.2864436549489" r="3"/><circle cx="171.42857142857144" cy="388.15338118279914" r="3"/><circle cx="188.57142857142858" cy="387.09401143202984" r="3"/><circle cx="205.71428571428572" cy="386.126253332952" r="3"/><circle cx="222.85714285714286" cy="384.9973090666648" r="3"/><circle cx="240" cy="383.8409909750768" r="3"/><circle cx="257.14285714285717" cy="382.7497504927251" r="3"/><circle cx="274.2857142857143" cy="381.5797617879761" r="3"/><circle cx="291.42857142857144" cy="380.46208788572994" r="3"/><circle cx="308.5714285714286" cy="379.4729466588629" r="3"/><circle cx="325.7142857142857" cy="378.24945638741053" r="3"/><circle cx="342.8571428571429" cy="377.15708385377843" r="3"/><circle cx="360" cy="376.3666856676997" r="3"/><circle cx="377.14285714285717" cy="375.03423554086146" r="3"/><circle cx="394.2857142857143" cy="374.2210637039025" r="3"/><circle cx="411.42857142857144" cy="373.0857898179162" r="3"/><circle cx="428.57142857142856" cy="371.89934089584705" r="3"/><circle cx="445.7142857142857" cy="370.92071903366235" r="3"/><circle cx="462.85714285714283" cy="369.79098199298653" r="3"/><circle cx="480" cy="368.44756246908565" r="3"/><circle cx="497.1428571428571" cy="366.9481014987285" r="3"/><circle cx="514.2857142857143" cy="366.131175511842" r="3"/><circle cx="531.4285714285714" cy="365.0268576057492" r="3"/><circle cx="548.5714285714286" cy="363.62794451196055" r="3"/><circle cx="565.7142857142857" cy="362.7539104316411" r="3"/><circle cx="582.8571428571429" cy="361.4319831007958" r="3"/><circle cx="600" cy="360.13925617116166" r="3"/><circle cx="617.1428571428572" cy="359.2942428769751" r="3"/><circle cx="634.2857142857142" cy="358.31611467685747" r="3"/><circle cx="651.4285714285714" cy="357.21602868774085" r="3"/><circle cx="668.5714285714286" cy="356.0684171546273" r="3"/><circle cx="685.7142857142858" cy="355.4278016297414" r="3"/><circle cx="702.8571428571429" cy="354.9856855049166" r="3"/><circle cx="720" cy="352.6236662258529" r="3"/><circle cx="737.1428571428571" cy="351.9047826490534" r="3"/><circle cx="754.2857142857143" cy="350.71550496684296" r="3"/><circle cx="771.4285714285714" cy="349.5847466087214" r="3"/><circle cx="788.5714285714286" cy="349.1036933872403" r="3"/><circle cx="805.7142857142857" cy="347.68166309650985" r="3"/><circle cx="822.8571428571429" cy="345.723174123952" r="3"/><circle cx="840" cy="344.89799732037625" r="3"/><path class="error-bar" x="0" y="399.1480957865429" d="M 0 399.1480957865429 V 399.0900879016477 h -3 h 6 h -3 V 399.20610367143803 h -3 h 6"/><path class="error-bar" x="17.142857142857142" y="398.0566570219545" d="M 17.142857142857142 398.0566570219545 V 397.9769447998249 h -3 h 6 h -3 V 398.13636924408405 h -3 h 6"/><path class="error-bar" x="34.285714285714285" y="396.93616003406527" d="M 34.285714285714285 396.93616003406527 V 396.7711573499842 h -3 h 6 h -3 V 397.1011627181464 h -3 h 6"/><path class="error-bar" x="51.42857142857143" y="395.82885173289225" d="M 51.42857142857143 395.82885173289225 V 395.60530167053145 h -3 h 6 h -3 V 396.05240179525305 h -3 h 6"/><path class="error-bar" x="68.57142857142857" y="394.7160964691884" d="M 68.57142857142857 394.7160964691884 V 394.448173517919 h -3 h 6 h -3 V 394.9840194204578 h -3 h 6"/><path class="error-bar" x="85.71428571428572" y="393.5867763218967" d="M 85.71428571428572 393.5867763218967 V 393.1396645400819 h -3 h 6 h -3 V 394.0338881037115 h -3 h 6"/><path class="error-bar" x="102.85714285714286" y="392.46416340707214" d="M 102.85714285714286 392.46416340707214 V 392.1822230479743 h -3 h 6 h -3 V 392.74610376616994 h -3 h 6"/><path class="error-bar" x="120" y="391.33762418698336" d="M 120 391.33762418698336 V 390.8745022413073 h -3 h 6 h -3 V 391.8007461326593 h -3 h 6"/><path class="error-bar" x="137.14285714285714" y="390.4266946623065" d="M 137.14285714285714 390.4266946623065 V 390.22101016563084 h -3 h 6 h -3 V 390.6323791589821 h -3 h 6"/><path class="error-bar" x="154.2857142857143" y="389.2864436549489" d="M 154.2857142857143 389.2864436549489 V 388.7636608613912 h -3 h 6 h -3 V 389.80922644850665 h -3 h 6"/><path class="error-bar" x="171.42857142857144" y="388.15338118279914" d="M 171.42857142857144 388.15338118279914 V 387.4698147882733 h -3 h 6 h -3 V 388.83694757732485 h -3 h 6"/><path class="error-bar" x="188.57142857142858" y="387.09401143202984" d="M 188.57142857142858 387.09401143202984 V 386.3546449998471 h -3 h 6 h -3 V 387.83337786421265 h -3 h 6"/><path class="error-bar" x="205.71428571428572" y="386.126253332952" d="M 205.71428571428572 386.126253332952 V 385.505253584787 h -3 h 6 h -3 V 386.74725308111687 h -3 h 6"/><path class="error-bar" x="222.85714285714286" y="384.9973090666648" d="M 222.85714285714286 384.9973090666648 V 384.7303654682015 h -3 h 6 h -3 V 385.26425266512814 h -3 h 6"/><path class="error-bar" x="240" y="383.8409909750768" d="M 240 383.8409909750768 V 383.12017777614574 h -3 h 6 h -3 V 384.56180417400793 h -3 h 6"/><path class="error-bar" x="257.14285714285717" y="382.7497504927251" d="M 257.14285714285717 382.7497504927251 V 382.05738195674047 h -3 h 6 h -3 V 383.44211902870984 h -3 h 6"/><path class="error-bar" x="274.2857142857143" y="381.5797617879761" d="M 274.2857142857143 381.5797617879761 V 380.6665974857062 h -3 h 6 h -3 V 382.492926090246 h -3 h 6"/><path class="error-bar" x="291.42857142857144" y="380.46208788572994" d="M 291.42857142857144 380.46208788572994 V 379.58812681202716 h -3 h 6 h -3 V 381.3360489594328 h -3 h 6"/><path class="error-bar" x="308.5714285714286" y="379.4729466588629" d="M 308.5714285714286 379.4729466588629 V 378.4773497963334 h -3 h 6 h -3 V 380.46854352139246 h -3 h 6"/><path class="error-bar" x="325.7142857142857" y="378.24945638741053" d="M 325.7142857142857 378.24945638741053 V 377.10000294153315 h -3 h 6 h -3 V 379.398909833288 h -3 h 6"/><path class="error-bar" x="342.8571428571429" y="377.15708385377843" d="M 342.8571428571429 377.15708385377843 V 375.7703042729293 h -3 h 6 h -3 V 378.54386343462755 h -3 h 6"/><path class="error-bar" x="360" y="376.3666856676997" d="M 360 376.3666856676997 V 375.0971820444677 h -3 h 6 h -3 V 377.6361892909317 h -3 h 6"/><path class="error-bar" x="377.14285714285717" y="375.03423554086146" d="M 377.14285714285717 375.03423554086146 V 373.73469319843326 h -3 h 6 h -3 V 376.3337778832896 h -3 h 6"/><path class="error-bar" x="394.2857142857143" y="374.2210637039025" d="M 394.2857142857143 374.2210637039025 V 372.7490245071829 h -3 h 6 h -3 V 375.69310290062197 h -3 h 6"/><path class="error-bar" x="411.42857142857144" y="373.0857898179162" d="M 411.42857142857144 373.0857898179162 V 371.8164921382042 h -3 h 6 h -3 V 374.3550874976283 h -3 h 6"/><path class="error-bar" x="428.57142857142856" y="371.89934089584705" d="M 428.57142857142856 371.89934089584705 V 370.58519215237214 h -3 h 6 h -3 V 373.213489639322 h -3 h 6"/><path class="error-bar" x="445.7142857142857" y="370.92071903366235" d="M 445.7142857142857 370.92071903366235 V 370.1878141593553 h -3 h 6 h -3 V 371.6536239079694 h -3 h 6"/><path class="error-bar" x="462.85714285714283" y="369.79098199298653" d="M 462.85714285714283 369.79098199298653 V 369.32665129023303 h -3 h 6 h -3 V 370.2553126957401 h -3 h 6"/><path class="error-bar" x="480" y="368.44756246908565" d="M 480 368.44756246908565 V 367.5665807689354 h -3 h 6 h -3 V 369.32854416923584 h -3 h 6"/><path class="error-bar" x="497.1428571428571" y="366.9481014987285" d="M 497.1428571428571 366.9481014987285 V 365.59124501461275 h -3 h 6 h -3 V 368.3049579828443 h -3 h 6"/><path class="error-bar" x="514.2857142857143" y="366.131175511842" d="M 514.2857142857143 366.131175511842 V 364.56118933121815 h -3 h 6 h -3 V 367.70116169246586 h -3 h 6"/><path class="error-bar" x="531.4285714285714" y="365.0268576057492" d="M 531.4285714285714 365.0268576057492 V 363.52939719911484 h -3 h 6 h -3 V 366.5243180123836 h -3 h 6"/><path class="error-bar" x="548.5714285714286" y="363.62794451196055" d="M 548.5714285714286 363.62794451196055 V 361.0850278412541 h -3 h 6 h -3 V 366.17086118266695 h -3 h 6"/><path class="error-bar" x="565.7142857142857" y="362.7539104316411" d="M 565.7142857142857 362.7539104316411 V 361.1757632419492 h -3 h 6 h -3 V 364.33205762133304 h -3 h 6"/><path class="error-bar" x="582.8571428571429" y="361.4319831007958" d="M 582.8571428571429 361.4319831007958 V 359.85976660186896 h -3 h 6 h -3 V 363.0041995997226 h -3 h 6"/><path class="error-bar" x="600" y="360.13925617116166" d="M 600 360.13925617116166 V 358.8060491913408 h -3 h 6 h -3 V 361.47246315098255 h -3 h 6"/><path class="error-bar" x="617.1428571428572" y="359.2942428769751" d="M 617.1428571428572 359.2942428769751 V 358.90490211873833 h -3 h 6 h -3 V 359.68358363521185 h -3 h 6"/><path class="error-bar" x="634.2857142857142" y="358.31611467685747" d="M 634.2857142857142 358.31611467685747 V 357.5373461176544 h -3 h 6 h -3 V 359.0948832360606 h -3 h 6"/><path class="error-bar" x="651.4285714285714" y="357.21602868774085" d="M 651.4285714285714 357.21602868774085 V 356.09230516044465 h -3 h 6 h -3 V 358.33975221503704 h -3 h 6"/><path class="error-bar" x="668.5714285714286" y="356.0684171546273" d="M 668.5714285714286 356.0684171546273 V 354.70329964925907 h -3 h 6 h -3 V 357.43353465999553 h -3 h 6"/><path class="error-bar" x="685.7142857142858" y="355.4278016297414" d="M 685.7142857142858 355.4278016297414 V 354.2299609950366 h -3 h 6 h -3 V 356.62564226444607 h -3 h 6"/><path class="error-bar" x="702.8571428571429" y="354.9856855049166" d="M 702.8571428571429 354.9856855049166 V 354.1372237298584 h -3 h 6 h -3 V 355.83414727997484 h -3 h 6"/><path class="error-bar" x="720" y="352.6236662258529" d="M 720 352.6236662258529 V 351.32278657661857 h -3 h 6 h -3 V 353.92454587508723 h -3 h 6"/><path class="error-bar" x="737.1428571428571" y="351.9047826490534" d="M 737.1428571428571 351.9047826490534 V 350.5155336201463 h -3 h 6 h -3 V 353.29403167796056 h -3 h 6"/><path class="error-bar" x="754.2857142857143" y="350.71550496684296" d="M 754.2857142857143 350.71550496684296 V 349.07797107689396 h -3 h 6 h -3 V 352.35303885679195 h -3 h 6"/><path class="error-bar" x="771.4285714285714" y="349.5847466087214" d="M 771.4285714285714 349.5847466087214 V 348.8176264174585 h -3 h 6 h -3 V 350.3518667999842 h -3 h 6"/><path class="error-bar" x="788.5714285714286" y="349.1036933872403" d="M 788.5714285714286 349.1036933872403 V 348.3339093204345 h -3 h 6 h -3 V 349.8734774540461 h -3 h 6"/><path class="error-bar" x="805.7142857142857" y="347.68166309650985" d="M 805.7142857142857 347.68166309650985 V 346.82071450454384 h -3 h 6 h -3 V 348.54261168847574 h -3 h 6"/><path class="error-bar" x="822.8571428571429" y="345.723174123952" d="M 822.8571428571429 345.723174123952 V 344.3212153176385 h -3 h 6 h -3 V 347.12513293026547 h -3 h 6"/><path class="error-bar" x="840" y="344.89799732037625" d="M 840 344.89799732037625 V 343.17605129360885 h -3 h 6 h -3 V 346.6199433471436 h -3 h 6"/><path class="line" d="M0,399.1480957865429L17.142857142857142,398.0566570219545L34.285714285714285,396.93616003406527L51.42857142857143,395.82885173289225L68.57142857142857,394.7160964691884L85.71428571428572,393.5867763218967L102.85714285714286,392.46416340707214L120,391.33762418698336L137.14285714285714,390.4266946623065L154.2857142857143,389.2864436549489L171.42857142857144,388.15338118279914L188.57142857142858,387.09401143202984L205.71428571428572,386.126253332952L222.85714285714286,384.9973090666648L240,383.8409909750768L257.14285714285717,382.7497504927251L274.2857142857143,381.5797617879761L291.42857142857144,380.46208788572994L308.5714285714286,379.4729466588629L325.7142857142857,378.24945638741053L342.8571428571429,377.15708385377843L360,376.3666856676997L377.14285714285717,375.03423554086146L394.2857142857143,374.2210637039025L411.42857142857144,373.0857898179162L428.57142857142856,371.89934089584705L445.7142857142857,370.92071903366235L462.85714285714283,369.79098199298653L480,368.44756246908565L497.1428571428571,366.9481014987285L514.2857142857143,366.131175511842L531.4285714285714,365.0268576057492L548.5714285714286,363.62794451196055L565.7142857142857,362.7539104316411L582.8571428571429,361.4319831007958L600,360.13925617116166L617.1428571428572,359.2942428769751L634.2857142857142,358.31611467685747L651.4285714285714,357.21602868774085L668.5714285714286,356.0684171546273L685.7142857142858,355.4278016297414L702.8571428571429,354.9856855049166L720,352.6236662258529L737.1428571428571,351.9047826490534L754.2857142857143,350.71550496684296L771.4285714285714,349.5847466087214L788.5714285714286,349.1036933872403L805.7142857142857,347.68166309650985L822.8571428571429,345.723174123952L840,344.89799732037625"/></g><g class="legend" transform="translate(50, 50)"><rect x="0" y="0" width="15" height="15" class="data-series-0"/><rect x="0" y="20" width="15" height="15" class="data-series-1"/><text x="24" y="13">Array</text><text x="24" y="33">Seq</text></g></g></svg>