<svg xmlns="http://www.w3.org/2000/svg" width="960" height="500"><g transform="translate(80,40)"><g transform="translate(420, 0)"><text style="text-anchor: middle; font-size: 28px;">Map over a structure</text></g><g class="x axis" transform="translate(0,400)"><g class="tick" transform="translate(97.14285714285714,0)" style="opacity: 1;"><line y2="6" x2="0"/><text dy=".71em" y="9" x="0" style="text-anchor: middle;">10,000</text></g><g class="tick" transform="translate(211.42857142857142,0)" style="opacity: 1;"><line y2="6" x2="0"/><text dy=".71em" y="9" x="0" style="text-anchor: middle;">20,000</text></g><g class="tick" transform="translate(325.7142857142857,0)" style="opacity: 1;"><line y2="6" x2="0"/><text dy=".71em" y="9" x="0" style="text-anchor: middle;">30,000</text></g><g class="tick" transform="translate(440,0)" style="opacity: 1;"><line y2="6" x2="0"/><text dy=".71em" y="9" x="0" style="text-anchor: middle;">40,000</text></g><g class="tick" transform="translate(554.2857142857142,0)" style="opacity: 1;"><line y2="6" x2="0"/><text dy=".71em" y="9" x="0" style="text-anchor: middle;">50,000</text></g><g class="tick" transform="translate(668.5714285714286,0)" style="opacity: 1;"><line y2="6" x2="0"/><text dy=".71em" y="9" x="0" style="text-anchor: middle;">60,000</text></g><g class="tick" transform="translate(782.8571428571429,0)" style="opacity: 1;"><line y2="6" x2="0"/><text dy=".71em" y="9" x="0" style="text-anchor: middle;">70,000</text></g><path class="domain" d="M0,6V0H840V6"/><text x="420" y="40" style="text-anchor: middle;">Number of elements in the structure</text></g><g class="y axis"><g class="tick" transform="translate(0,365.87763830612295)" style="opacity: 1;"><line x2="-6" y2="0"/><text dy=".32em" x="-9" y="0" style="text-anchor: end;">5.00e-4</text></g><g class="tick" transform="translate(0,330.6234413481864)" style="opacity: 1;"><line x2="-6" y2="0"/><text dy=".32em" x="-9" y="0" style="text-anchor: end;">1.00e-3</text></g><g class="tick" transform="translate(0,295.36924439024995)" style="opacity: 1;"><line x2="-6" y2="0"/><text dy=".32em" x="-9" y="0" style="text-anchor: end;">1.50e-3</text></g><g class="tick" transform="translate(0,260.1150474323134)" style="opacity: 1;"><line x2="-6" y2="0"/><text dy=".32em" x="-9" y="0" style="text-anchor: end;">2.00e-3</text></g><g class="tick" transform="translate(0,224.86085047437695)" style="opacity: 1;"><line x2="-6" y2="0"/><text dy=".32em" x="-9" y="0" style="text-anchor: end;">2.50e-3</text></g><g class="tick" transform="translate(0,189.60665351644047)" style="opacity: 1;"><line x2="-6" y2="0"/><text dy=".32em" x="-9" y="0" style="text-anchor: end;">3.00e-3</text></g><g class="tick" transform="translate(0,154.35245655850395)" style="opacity: 1;"><line x2="-6" y2="0"/><text dy=".32em" x="-9" y="0" style="text-anchor: end;">3.50e-3</text></g><g class="tick" transform="translate(0,119.09825960056746)" style="opacity: 1;"><line x2="-6" y2="0"/><text dy=".32em" x="-9" y="0" style="text-anchor: end;">4.00e-3</text></g><g class="tick" transform="translate(0,83.84406264263097)" style="opacity: 1;"><line x2="-6" y2="0"/><text dy=".32em" x="-9" y="0" style="text-anchor: end;">4.50e-3</text></g><g class="tick" transform="translate(0,48.58986568469446)" style="opacity: 1;"><line x2="-6" y2="0"/><text dy=".32em" x="-9" y="0" style="text-anchor: end;">5.00e-3</text></g><g class="tick" transform="translate(0,13.335668726757977)" style="opacity: 1;"><line x2="-6" y2="0"/><text dy=".32em" x="-9" y="0" style="text-anchor: end;">5.50e-3</text></g><path class="domain" d="M-6,0H0V400H-6"/><text transform="rotate(-90)" y="6" dy=".71em" style="text-anchor: end;">Mean running time (seconds)</text></g><g class="data-series-0"><circle cx="0" cy="400" r="3"/><circle cx="17.142857142857142" cy="398.8804625982109" r="3"/><circle cx="34.285714285714285" cy="397.74552794588044" r="3"/><circle cx="51.42857142857143" cy="396.64667772610665" r="3"/><circle cx="68.57142857142857" cy="395.4940127007631" r="3"/><circle cx="85.71428571428572" cy="394.3710964379101" r="3"/><circle cx="102.85714285714286" cy="393.36477910545955" r="3"/><circle cx="120" cy="392.2491823499297" r="3"/><circle cx="137.14285714285714" cy="391.17000726147535" r="3"/><circle cx="154.2857142857143" cy="389.7947582160351" r="3"/><circle cx="171.42857142857144" cy="388.9895056294771" r="3"/><circle cx="188.57142857142858" cy="387.77783620213967" r="3"/><circle cx="205.71428571428572" cy="386.53143484844543" r="3"/><circle cx="222.85714285714286" cy="385.6385488355399" r="3"/><circle cx="240" cy="384.5236339938557" r="3"/><circle cx="257.14285714285717" cy="383.46884136160344" r="3"/><circle cx="274.2857142857143" cy="381.81109599311964" r="3"/><circle cx="291.42857142857144" cy="381.37423361603624" r="3"/><circle cx="308.5714285714286" cy="380.22898997474203" r="3"/><circle cx="325.7142857142857" cy="378.66443910466694" r="3"/><circle cx="342.8571428571429" cy="378.01872221388993" r="3"/><circle cx="360" cy="377.2213280445966" r="3"/><circle cx="377.14285714285717" cy="376.07370535836566" r="3"/><circle cx="394.2857142857143" cy="374.925908058933" r="3"/><circle cx="411.42857142857144" cy="373.11511124724694" r="3"/><circle cx="428.57142857142856" cy="372.6225117540214" r="3"/><circle cx="445.7142857142857" cy="371.72143464114697" r="3"/><circle cx="462.85714285714283" cy="370.7400703320594" r="3"/><circle cx="480" cy="367.2625636221208" r="3"/><circle cx="497.1428571428571" cy="365.64258762935077" r="3"/><circle cx="514.2857142857143" cy="366.11166704050066" r="3"/><circle cx="531.4285714285714" cy="337.3501824507624" r="3"/><circle cx="548.5714285714286" cy="363.03737546617157" r="3"/><circle cx="565.7142857142857" cy="360.95551072256086" r="3"/><circle cx="582.8571428571429" cy="362.7746830109464" r="3"/><circle cx="600" cy="361.53160997435435" r="3"/><circle cx="617.1428571428572" cy="356.9800734160167" r="3"/><circle cx="634.2857142857142" cy="356.24391889916905" r="3"/><circle cx="651.4285714285714" cy="355.33769369230015" r="3"/><circle cx="668.5714285714286" cy="219.6239036540434" r="3"/><circle cx="685.7142857142858" cy="353.344938281141" r="3"/><circle cx="702.8571428571429" cy="352.4693758894947" r="3"/><circle cx="720" cy="352.70144851287057" r="3"/><circle cx="737.1428571428571" cy="351.7140137505772" r="3"/><circle cx="754.2857142857143" cy="193.70638658407137" r="3"/><circle cx="771.4285714285714" cy="351.1099180971344" r="3"/><circle cx="788.5714285714286" cy="350.05530783327106" r="3"/><circle cx="805.7142857142857" cy="262.816108992352" r="3"/><circle cx="822.8571428571429" cy="284.26017782005266" r="3"/><circle cx="840" cy="346.80003911606303" r="3"/><path class="error-bar" x="0" y="400" d="M 0 400 V 399.98858509277375 h -3 h 6 h -3 V 400.0114149072263 h -3 h 6"/><path class="error-bar" x="17.142857142857142" y="398.8804625982109" d="M 17.142857142857142 398.8804625982109 V 398.86099978454223 h -3 h 6 h -3 V 398.89992541187956 h -3 h 6"/><path class="error-bar" x="34.285714285714285" y="397.74552794588044" d="M 34.285714285714285 397.74552794588044 V 397.7195552844303 h -3 h 6 h -3 V 397.77150060733055 h -3 h 6"/><path class="error-bar" x="51.42857142857143" y="396.64667772610665" d="M 51.42857142857143 396.64667772610665 V 396.57710413624835 h -3 h 6 h -3 V 396.716251315965 h -3 h 6"/><path class="error-bar" x="68.57142857142857" y="395.4940127007631" d="M 68.57142857142857 395.4940127007631 V 395.35772286963095 h -3 h 6 h -3 V 395.6303025318953 h -3 h 6"/><path class="error-bar" x="85.71428571428572" y="394.3710964379101" d="M 85.71428571428572 394.3710964379101 V 394.19916020598396 h -3 h 6 h -3 V 394.54303266983624 h -3 h 6"/><path class="error-bar" x="102.85714285714286" y="393.36477910545955" d="M 102.85714285714286 393.36477910545955 V 393.29206970011705 h -3 h 6 h -3 V 393.43748851080204 h -3 h 6"/><path class="error-bar" x="120" y="392.2491823499297" d="M 120 392.2491823499297 V 391.97244879493746 h -3 h 6 h -3 V 392.5259159049219 h -3 h 6"/><path class="error-bar" x="137.14285714285714" y="391.17000726147535" d="M 137.14285714285714 391.17000726147535 V 391.0793373568204 h -3 h 6 h -3 V 391.2606771661303 h -3 h 6"/><path class="error-bar" x="154.2857142857143" y="389.7947582160351" d="M 154.2857142857143 389.7947582160351 V 389.6772101294202 h -3 h 6 h -3 V 389.9123063026501 h -3 h 6"/><path class="error-bar" x="171.42857142857144" y="388.9895056294771" d="M 171.42857142857144 388.9895056294771 V 388.65535726054367 h -3 h 6 h -3 V 389.32365399841063 h -3 h 6"/><path class="error-bar" x="188.57142857142858" y="387.77783620213967" d="M 188.57142857142858 387.77783620213967 V 387.32232670543624 h -3 h 6 h -3 V 388.2333456988431 h -3 h 6"/><path class="error-bar" x="205.71428571428572" y="386.53143484844543" d="M 205.71428571428572 386.53143484844543 V 386.4055505158074 h -3 h 6 h -3 V 386.65731918108344 h -3 h 6"/><path class="error-bar" x="222.85714285714286" y="385.6385488355399" d="M 222.85714285714286 385.6385488355399 V 385.1672424834471 h -3 h 6 h -3 V 386.1098551876327 h -3 h 6"/><path class="error-bar" x="240" y="384.5236339938557" d="M 240 384.5236339938557 V 384.0342240948019 h -3 h 6 h -3 V 385.0130438929094 h -3 h 6"/><path class="error-bar" x="257.14285714285717" y="383.46884136160344" d="M 257.14285714285717 383.46884136160344 V 382.98639148625807 h -3 h 6 h -3 V 383.9512912369488 h -3 h 6"/><path class="error-bar" x="274.2857142857143" y="381.81109599311964" d="M 274.2857142857143 381.81109599311964 V 381.20656903771595 h -3 h 6 h -3 V 382.41562294852326 h -3 h 6"/><path class="error-bar" x="291.42857142857144" y="381.37423361603624" d="M 291.42857142857144 381.37423361603624 V 381.0633124944045 h -3 h 6 h -3 V 381.6851547376679 h -3 h 6"/><path class="error-bar" x="308.5714285714286" y="380.22898997474203" d="M 308.5714285714286 380.22898997474203 V 379.6397406736181 h -3 h 6 h -3 V 380.81823927586595 h -3 h 6"/><path class="error-bar" x="325.7142857142857" y="378.66443910466694" d="M 325.7142857142857 378.66443910466694 V 377.3818056874444 h -3 h 6 h -3 V 379.94707252188954 h -3 h 6"/><path class="error-bar" x="342.8571428571429" y="378.01872221388993" d="M 342.8571428571429 378.01872221388993 V 377.80976650609125 h -3 h 6 h -3 V 378.22767792168867 h -3 h 6"/><path class="error-bar" x="360" y="377.2213280445966" d="M 360 377.2213280445966 V 377.0261885182552 h -3 h 6 h -3 V 377.416467570938 h -3 h 6"/><path class="error-bar" x="377.14285714285717" y="376.07370535836566" d="M 377.14285714285717 376.07370535836566 V 375.83590712336303 h -3 h 6 h -3 V 376.3115035933683 h -3 h 6"/><path class="error-bar" x="394.2857142857143" y="374.925908058933" d="M 394.2857142857143 374.925908058933 V 374.169791193925 h -3 h 6 h -3 V 375.68202492394096 h -3 h 6"/><path class="error-bar" x="411.42857142857144" y="373.11511124724694" d="M 411.42857142857144 373.11511124724694 V 372.4775727085911 h -3 h 6 h -3 V 373.75264978590275 h -3 h 6"/><path class="error-bar" x="428.57142857142856" y="372.6225117540214" d="M 428.57142857142856 372.6225117540214 V 372.35744071308216 h -3 h 6 h -3 V 372.88758279496057 h -3 h 6"/><path class="error-bar" x="445.7142857142857" y="371.72143464114697" d="M 445.7142857142857 371.72143464114697 V 371.46836025901814 h -3 h 6 h -3 V 371.97450902327586 h -3 h 6"/><path class="error-bar" x="462.85714285714283" y="370.7400703320594" d="M 462.85714285714283 370.7400703320594 V 370.45264597121366 h -3 h 6 h -3 V 371.0274946929052 h -3 h 6"/><path class="error-bar" x="480" y="367.2625636221208" d="M 480 367.2625636221208 V 365.68335210864615 h -3 h 6 h -3 V 368.8417751355955 h -3 h 6"/><path class="error-bar" x="497.1428571428571" y="365.64258762935077" d="M 497.1428571428571 365.64258762935077 V 365.3133174228768 h -3 h 6 h -3 V 365.97185783582466 h -3 h 6"/><path class="error-bar" x="514.2857142857143" y="366.11166704050066" d="M 514.2857142857143 366.11166704050066 V 365.7721209004406 h -3 h 6 h -3 V 366.4512131805607 h -3 h 6"/><path class="error-bar" x="531.4285714285714" y="337.3501824507624" d="M 531.4285714285714 337.3501824507624 V 287.8810717852128 h -3 h 6 h -3 V 386.81929311631205 h -3 h 6"/><path class="error-bar" x="548.5714285714286" y="363.03737546617157" d="M 548.5714285714286 363.03737546617157 V 361.601118349571 h -3 h 6 h -3 V 364.4736325827722 h -3 h 6"/><path class="error-bar" x="565.7142857142857" y="360.95551072256086" d="M 565.7142857142857 360.95551072256086 V 359.84055189005016 h -3 h 6 h -3 V 362.07046955507155 h -3 h 6"/><path class="error-bar" x="582.8571428571429" y="362.7746830109464" d="M 582.8571428571429 362.7746830109464 V 362.3905203684957 h -3 h 6 h -3 V 363.1588456533971 h -3 h 6"/><path class="error-bar" x="600" y="361.53160997435435" d="M 600 361.53160997435435 V 361.0974393069994 h -3 h 6 h -3 V 361.9657806417094 h -3 h 6"/><path class="error-bar" x="617.1428571428572" y="356.9800734160167" d="M 617.1428571428572 356.9800734160167 V 355.92748596664677 h -3 h 6 h -3 V 358.03266086538673 h -3 h 6"/><path class="error-bar" x="634.2857142857142" y="356.24391889916905" d="M 634.2857142857142 356.24391889916905 V 355.27050307010575 h -3 h 6 h -3 V 357.2173347282323 h -3 h 6"/><path class="error-bar" x="651.4285714285714" y="355.33769369230015" d="M 651.4285714285714 355.33769369230015 V 354.8841284803234 h -3 h 6 h -3 V 355.7912589042769 h -3 h 6"/><path class="error-bar" x="668.5714285714286" y="219.6239036540434" d="M 668.5714285714286 219.6239036540434 V 191.3418323640084 h -3 h 6 h -3 V 247.90597494407837 h -3 h 6"/><path class="error-bar" x="685.7142857142858" y="353.344938281141" d="M 685.7142857142858 353.344938281141 V 352.8703313264954 h -3 h 6 h -3 V 353.81954523578673 h -3 h 6"/><path class="error-bar" x="702.8571428571429" y="352.4693758894947" d="M 702.8571428571429 352.4693758894947 V 351.9457912742316 h -3 h 6 h -3 V 352.9929605047578 h -3 h 6"/><path class="error-bar" x="720" y="352.70144851287057" d="M 720 352.70144851287057 V 350.8975817897774 h -3 h 6 h -3 V 354.5053152359638 h -3 h 6"/><path class="error-bar" x="737.1428571428571" y="351.7140137505772" d="M 737.1428571428571 351.7140137505772 V 350.0417488023906 h -3 h 6 h -3 V 353.3862786987638 h -3 h 6"/><path class="error-bar" x="754.2857142857143" y="193.70638658407137" d="M 754.2857142857143 193.70638658407137 V 159.97738416322537 h -3 h 6 h -3 V 227.43538900491734 h -3 h 6"/><path class="error-bar" x="771.4285714285714" y="351.1099180971344" d="M 771.4285714285714 351.1099180971344 V 350.56166172296645 h -3 h 6 h -3 V 351.65817447130246 h -3 h 6"/><path class="error-bar" x="788.5714285714286" y="350.05530783327106" d="M 788.5714285714286 350.05530783327106 V 349.59085781644575 h -3 h 6 h -3 V 350.51975785009637 h -3 h 6"/><path class="error-bar" x="805.7142857142857" y="262.816108992352" d="M 805.7142857142857 262.816108992352 V 176.02618237328952 h -3 h 6 h -3 V 349.60603561141437 h -3 h 6"/><path class="error-bar" x="822.8571428571429" y="284.26017782005266" d="M 822.8571428571429 284.26017782005266 V 199.1718799761995 h -3 h 6 h -3 V 369.3484756639058 h -3 h 6"/><path class="error-bar" x="840" y="346.80003911606303" d="M 840 346.80003911606303 V 346.22208856363505 h -3 h 6 h -3 V 347.377989668491 h -3 h 6"/><path class="line" d="M0,400L17.142857142857142,398.8804625982109L34.285714285714285,397.74552794588044L51.42857142857143,396.64667772610665L68.57142857142857,395.4940127007631L85.71428571428572,394.3710964379101L102.85714285714286,393.36477910545955L120,392.2491823499297L137.14285714285714,391.17000726147535L154.2857142857143,389.7947582160351L171.42857142857144,388.9895056294771L188.57142857142858,387.77783620213967L205.71428571428572,386.53143484844543L222.85714285714286,385.6385488355399L240,384.5236339938557L257.14285714285717,383.46884136160344L274.2857142857143,381.81109599311964L291.42857142857144,381.37423361603624L308.5714285714286,380.22898997474203L325.7142857142857,378.66443910466694L342.8571428571429,378.01872221388993L360,377.2213280445966L377.14285714285717,376.07370535836566L394.2857142857143,374.925908058933L411.42857142857144,373.11511124724694L428.57142857142856,372.6225117540214L445.7142857142857,371.72143464114697L462.85714285714283,370.7400703320594L480,367.2625636221208L497.1428571428571,365.64258762935077L514.2857142857143,366.11166704050066L531.4285714285714,337.3501824507624L548.5714285714286,363.03737546617157L565.7142857142857,360.95551072256086L582.8571428571429,362.7746830109464L600,361.53160997435435L617.1428571428572,356.9800734160167L634.2857142857142,356.24391889916905L651.4285714285714,355.33769369230015L668.5714285714286,219.6239036540434L685.7142857142858,353.344938281141L702.8571428571429,352.4693758894947L720,352.70144851287057L737.1428571428571,351.7140137505772L754.2857142857143,193.70638658407137L771.4285714285714,351.1099180971344L788.5714285714286,350.05530783327106L805.7142857142857,262.816108992352L822.8571428571429,284.26017782005266L840,346.80003911606303"/></g><g class="data-series-1"><circle cx="0" cy="393.99395253817596" r="3"/><circle cx="17.142857142857142" cy="387.68902664513166" r="3"/><circle cx="34.285714285714285" cy="381.54213556917904" r="3"/><circle cx="51.42857142857143" cy="375.2508232509554" r="3"/><circle cx="68.57142857142857" cy="369.0626958074439" r="3"/><circle cx="85.71428571428572" cy="362.42168222628163" r="3"/><circle cx="102.85714285714286" cy="356.1319630910283" r="3"/><circle cx="120" cy="341.0574523711208" r="3"/><circle cx="137.14285714285714" cy="342.7114792767269" r="3"/><circle cx="154.2857142857143" cy="335.6357474051084" r="3"/><circle cx="171.42857142857144" cy="328.2708053807679" r="3"/><circle cx="188.57142857142858" cy="321.43796417112253" r="3"/><circle cx="205.71428571428572" cy="315.4278501030238" r="3"/><circle cx="222.85714285714286" cy="304.02609905393564" r="3"/><circle cx="240" cy="289.44588484174983" r="3"/><circle cx="257.14285714285717" cy="294.12757953963046" r="3"/><circle cx="274.2857142857143" cy="289.293464498303" r="3"/><circle cx="291.42857142857144" cy="282.75583641867786" r="3"/><circle cx="308.5714285714286" cy="277.92007357825923" r="3"/><circle cx="325.7142857142857" cy="270.83446840416644" r="3"/><circle cx="342.8571428571429" cy="264.9826229180204" r="3"/><circle cx="360" cy="255.7596004374693" r="3"/><circle cx="377.14285714285717" cy="246.51677545641343" r="3"/><circle cx="394.2857142857143" cy="242.6015584461225" r="3"/><circle cx="411.42857142857144" cy="233.13449825993607" r="3"/><circle cx="428.57142857142856" cy="226.0332127695781" r="3"/><circle cx="445.7142857142857" cy="219.92385273238756" r="3"/><circle cx="462.85714285714283" cy="214.35414327169212" r="3"/><circle cx="480" cy="208.65248860215343" r="3"/><circle cx="497.1428571428571" cy="209.17827617094846" r="3"/><circle cx="514.2857142857143" cy="151.26142988087895" r="3"/><circle cx="531.4285714285714" cy="180.695678148611" r="3"/><circle cx="548.5714285714286" cy="184.78000458698313" r="3"/><circle cx="565.7142857142857" cy="162.26687274778917" r="3"/><circle cx="582.8571428571429" cy="166.59565048966334" r="3"/><circle cx="600" cy="150.8663188177289" r="3"/><circle cx="617.1428571428572" cy="135.1314872505833" r="3"/><circle cx="634.2857142857142" cy="128.55395035450462" r="3"/><circle cx="651.4285714285714" cy="91.44428460748024" r="3"/><circle cx="668.5714285714286" cy="122.75065458327074" r="3"/><circle cx="685.7142857142858" cy="112.15893679886038" r="3"/><circle cx="702.8571428571429" cy="94.56503237425818" r="3"/><circle cx="720" cy="97.43111182017388" r="3"/><circle cx="737.1428571428571" cy="51.47127510633509" r="3"/><circle cx="754.2857142857143" cy="81.27815766698974" r="3"/><circle cx="771.4285714285714" cy="72.28697074446954" r="3"/><circle cx="788.5714285714286" cy="31.239042261088912" r="3"/><circle cx="805.7142857142857" cy="18.315159064371443" r="3"/><circle cx="822.8571428571429" cy="35.037389035326115" r="3"/><circle cx="840" cy="0" r="3"/><path class="error-bar" x="0" y="393.99395253817596" d="M 0 393.99395253817596 V 393.75123600271587 h -3 h 6 h -3 V 394.2366690736361 h -3 h 6"/><path class="error-bar" x="17.142857142857142" y="387.68902664513166" d="M 17.142857142857142 387.68902664513166 V 386.96262209509246 h -3 h 6 h -3 V 388.41543119517087 h -3 h 6"/><path class="error-bar" x="34.285714285714285" y="381.54213556917904" d="M 34.285714285714285 381.54213556917904 V 381.36883906020324 h -3 h 6 h -3 V 381.7154320781549 h -3 h 6"/><path class="error-bar" x="51.42857142857143" y="375.2508232509554" d="M 51.42857142857143 375.2508232509554 V 373.76268905344784 h -3 h 6 h -3 V 376.73895744846305 h -3 h 6"/><path class="error-bar" x="68.57142857142857" y="369.0626958074439" d="M 68.57142857142857 369.0626958074439 V 367.7095061093744 h -3 h 6 h -3 V 370.41588550551336 h -3 h 6"/><path class="error-bar" x="85.71428571428572" y="362.42168222628163" d="M 85.71428571428572 362.42168222628163 V 360.0943003966988 h -3 h 6 h -3 V 364.74906405586444 h -3 h 6"/><path class="error-bar" x="102.85714285714286" y="356.1319630910283" d="M 102.85714285714286 356.1319630910283 V 353.0514085160932 h -3 h 6 h -3 V 359.21251766596345 h -3 h 6"/><path class="error-bar" x="120" y="341.0574523711208" d="M 120 341.0574523711208 V 326.1252295250506 h -3 h 6 h -3 V 355.98967521719106 h -3 h 6"/><path class="error-bar" x="137.14285714285714" y="342.7114792767269" d="M 137.14285714285714 342.7114792767269 V 340.31166311885704 h -3 h 6 h -3 V 345.11129543459674 h -3 h 6"/><path class="error-bar" x="154.2857142857143" y="335.6357474051084" d="M 154.2857142857143 335.6357474051084 V 332.75208711131876 h -3 h 6 h -3 V 338.5194076988981 h -3 h 6"/><path class="error-bar" x="171.42857142857144" y="328.2708053807679" d="M 171.42857142857144 328.2708053807679 V 326.33084706725 h -3 h 6 h -3 V 330.21076369428584 h -3 h 6"/><path class="error-bar" x="188.57142857142858" y="321.43796417112253" d="M 188.57142857142858 321.43796417112253 V 320.1102257297528 h -3 h 6 h -3 V 322.76570261249225 h -3 h 6"/><path class="error-bar" x="205.71428571428572" y="315.4278501030238" d="M 205.71428571428572 315.4278501030238 V 311.78468599430266 h -3 h 6 h -3 V 319.07101421174485 h -3 h 6"/><path class="error-bar" x="222.85714285714286" y="304.02609905393564" d="M 222.85714285714286 304.02609905393564 V 286.30066530728175 h -3 h 6 h -3 V 321.75153280058953 h -3 h 6"/><path class="error-bar" x="240" y="289.44588484174983" d="M 240 289.44588484174983 V 264.78861502329397 h -3 h 6 h -3 V 314.1031546602057 h -3 h 6"/><path class="error-bar" x="257.14285714285717" y="294.12757953963046" d="M 257.14285714285717 294.12757953963046 V 289.44908874466336 h -3 h 6 h -3 V 298.8060703345975 h -3 h 6"/><path class="error-bar" x="274.2857142857143" y="289.293464498303" d="M 274.2857142857143 289.293464498303 V 283.1106895916615 h -3 h 6 h -3 V 295.4762394049444 h -3 h 6"/><path class="error-bar" x="291.42857142857144" y="282.75583641867786" d="M 291.42857142857144 282.75583641867786 V 279.7993483061143 h -3 h 6 h -3 V 285.71232453124134 h -3 h 6"/><path class="error-bar" x="308.5714285714286" y="277.92007357825923" d="M 308.5714285714286 277.92007357825923 V 272.5161484149819 h -3 h 6 h -3 V 283.3239987415366 h -3 h 6"/><path class="error-bar" x="325.7142857142857" y="270.83446840416644" d="M 325.7142857142857 270.83446840416644 V 265.2237077845638 h -3 h 6 h -3 V 276.445229023769 h -3 h 6"/><path class="error-bar" x="342.8571428571429" y="264.9826229180204" d="M 342.8571428571429 264.9826229180204 V 259.73406888023607 h -3 h 6 h -3 V 270.23117695580476 h -3 h 6"/><path class="error-bar" x="360" y="255.7596004374693" d="M 360 255.7596004374693 V 250.87258471228938 h -3 h 6 h -3 V 260.64661616264925 h -3 h 6"/><path class="error-bar" x="377.14285714285717" y="246.51677545641343" d="M 377.14285714285717 246.51677545641343 V 237.34047721261896 h -3 h 6 h -3 V 255.69307370020792 h -3 h 6"/><path class="error-bar" x="394.2857142857143" y="242.6015584461225" d="M 394.2857142857143 242.6015584461225 V 235.61307547076154 h -3 h 6 h -3 V 249.59004142148348 h -3 h 6"/><path class="error-bar" x="411.42857142857144" y="233.13449825993607" d="M 411.42857142857144 233.13449825993607 V 226.05527688576066 h -3 h 6 h -3 V 240.2137196341114 h -3 h 6"/><path class="error-bar" x="428.57142857142856" y="226.0332127695781" d="M 428.57142857142856 226.0332127695781 V 217.33918749477547 h -3 h 6 h -3 V 234.72723804438078 h -3 h 6"/><path class="error-bar" x="445.7142857142857" y="219.92385273238756" d="M 445.7142857142857 219.92385273238756 V 212.82798656716633 h -3 h 6 h -3 V 227.01971889760887 h -3 h 6"/><path class="error-bar" x="462.85714285714283" y="214.35414327169212" d="M 462.85714285714283 214.35414327169212 V 205.33218221234665 h -3 h 6 h -3 V 223.37610433103757 h -3 h 6"/><path class="error-bar" x="480" y="208.65248860215343" d="M 480 208.65248860215343 V 199.98754424319637 h -3 h 6 h -3 V 217.3174329611105 h -3 h 6"/><path class="error-bar" x="497.1428571428571" y="209.17827617094846" d="M 497.1428571428571 209.17827617094846 V 198.6464830735738 h -3 h 6 h -3 V 219.7100692683231 h -3 h 6"/><path class="error-bar" x="514.2857142857143" y="151.26142988087895" d="M 514.2857142857143 151.26142988087895 V 143.06167289590059 h -3 h 6 h -3 V 159.46118686585731 h -3 h 6"/><path class="error-bar" x="531.4285714285714" y="180.695678148611" d="M 531.4285714285714 180.695678148611 V 175.38528452352006 h -3 h 6 h -3 V 186.006071773702 h -3 h 6"/><path class="error-bar" x="548.5714285714286" y="184.78000458698313" d="M 548.5714285714286 184.78000458698313 V 172.87227969138635 h -3 h 6 h -3 V 196.6877294825799 h -3 h 6"/><path class="error-bar" x="565.7142857142857" y="162.26687274778917" d="M 565.7142857142857 162.26687274778917 V 158.0250384179621 h -3 h 6 h -3 V 166.50870707761624 h -3 h 6"/><path class="error-bar" x="582.8571428571429" y="166.59565048966334" d="M 582.8571428571429 166.59565048966334 V 158.2872546691518 h -3 h 6 h -3 V 174.9040463101749 h -3 h 6"/><path class="error-bar" x="600" y="150.8663188177289" d="M 600 150.8663188177289 V 144.91312240177564 h -3 h 6 h -3 V 156.8195152336822 h -3 h 6"/><path class="error-bar" x="617.1428571428572" y="135.1314872505833" d="M 617.1428571428572 135.1314872505833 V 130.1008894036944 h -3 h 6 h -3 V 140.16208509747221 h -3 h 6"/><path class="error-bar" x="634.2857142857142" y="128.55395035450462" d="M 634.2857142857142 128.55395035450462 V 103.49489268269285 h -3 h 6 h -3 V 153.61300802631632 h -3 h 6"/><path class="error-bar" x="651.4285714285714" y="91.44428460748024" d="M 651.4285714285714 91.44428460748024 V 81.01909399052491 h -3 h 6 h -3 V 101.86947522443562 h -3 h 6"/><path class="error-bar" x="668.5714285714286" y="122.75065458327074" d="M 668.5714285714286 122.75065458327074 V 116.99497345358574 h -3 h 6 h -3 V 128.50633571295575 h -3 h 6"/><path class="error-bar" x="685.7142857142858" y="112.15893679886038" d="M 685.7142857142858 112.15893679886038 V 86.34925592871943 h -3 h 6 h -3 V 137.96861766900125 h -3 h 6"/><path class="error-bar" x="702.8571428571429" y="94.56503237425818" d="M 702.8571428571429 94.56503237425818 V 61.913488927392194 h -3 h 6 h -3 V 127.21657582112415 h -3 h 6"/><path class="error-bar" x="720" y="97.43111182017388" d="M 720 97.43111182017388 V 87.31144644383994 h -3 h 6 h -3 V 107.55077719650781 h -3 h 6"/><path class="error-bar" x="737.1428571428571" y="51.47127510633509" d="M 737.1428571428571 51.47127510633509 V 30.730223930868704 h -3 h 6 h -3 V 72.21232628180148 h -3 h 6"/><path class="error-bar" x="754.2857142857143" y="81.27815766698974" d="M 754.2857142857143 81.27815766698974 V 76.05185469148114 h -3 h 6 h -3 V 86.50446064249833 h -3 h 6"/><path class="error-bar" x="771.4285714285714" y="72.28697074446954" d="M 771.4285714285714 72.28697074446954 V 58.69460069565413 h -3 h 6 h -3 V 85.87934079328497 h -3 h 6"/><path class="error-bar" x="788.5714285714286" y="31.239042261088912" d="M 788.5714285714286 31.239042261088912 V 19.48959552592484 h -3 h 6 h -3 V 42.988488996253025 h -3 h 6"/><path class="error-bar" x="805.7142857142857" y="18.315159064371443" d="M 805.7142857142857 18.315159064371443 V 4.690374197777736 h -3 h 6 h -3 V 31.939943930965107 h -3 h 6"/><path class="error-bar" x="822.8571428571429" y="35.037389035326115" d="M 822.8571428571429 35.037389035326115 V 26.139736694970452 h -3 h 6 h -3 V 43.935041375681784 h -3 h 6"/><path class="error-bar" x="840" y="0" d="M 840 0 V -13.492323261524586 h -3 h 6 h -3 V 13.49232326152463 h -3 h 6"/><path class="line" d="M0,393.99395253817596L17.142857142857142,387.68902664513166L34.285714285714285,381.54213556917904L51.42857142857143,375.2508232509554L68.57142857142857,369.0626958074439L85.71428571428572,362.42168222628163L102.85714285714286,356.1319630910283L120,341.0574523711208L137.14285714285714,342.7114792767269L154.2857142857143,335.6357474051084L171.42857142857144,328.2708053807679L188.57142857142858,321.43796417112253L205.71428571428572,315.4278501030238L222.85714285714286,304.02609905393564L240,289.44588484174983L257.14285714285717,294.12757953963046L274.2857142857143,289.293464498303L291.42857142857144,282.75583641867786L308.5714285714286,277.92007357825923L325.7142857142857,270.83446840416644L342.8571428571429,264.9826229180204L360,255.7596004374693L377.14285714285717,246.51677545641343L394.2857142857143,242.6015584461225L411.42857142857144,233.13449825993607L428.57142857142856,226.0332127695781L445.7142857142857,219.92385273238756L462.85714285714283,214.35414327169212L480,208.65248860215343L497.1428571428571,209.17827617094846L514.2857142857143,151.26142988087895L531.4285714285714,180.695678148611L548.5714285714286,184.78000458698313L565.7142857142857,162.26687274778917L582.8571428571429,166.59565048966334L600,150.8663188177289L617.1428571428572,135.1314872505833L634.2857142857142,128.55395035450462L651.4285714285714,91.44428460748024L668.5714285714286,122.75065458327074L685.7142857142858,112.15893679886038L702.8571428571429,94.56503237425818L720,97.43111182017388L737.1428571428571,51.47127510633509L754.2857142857143,81.27815766698974L771.4285714285714,72.28697074446954L788.5714285714286,31.239042261088912L805.7142857142857,18.315159064371443L822.8571428571429,35.037389035326115L840,0"/></g><g class="legend" transform="translate(50, 50)"><rect x="0" y="0" width="15" height="15" class="data-series-0"/><rect x="0" y="20" width="15" height="15" class="data-series-1"/><text x="24" y="13">Array</text><text x="24" y="33">Seq</text></g></g><style>
text {
  font: 14px sans-serif;
}

.axis path,
.axis line {
  fill: none;
  stroke: #000;
  shape-rendering: crispEdges;
}

.line {
  fill: none;
  stroke-width: 1.5px;
}

.data-series-0 {
  stroke: steelblue;
  fill: steelblue;
}

.data-series-1 {
  stroke: crimson;
  fill: crimson;
}

.data-series-2 {
  stroke: mediumseagreen;
  fill: mediumseagreen;
}

.data-series-3 {
  stroke: mediumslateblue;
  fill: mediumslateblue;
}

.data-series-4 {
  stroke: goldenrod;
  fill: goldenrod;
}

.error-bar {
  fill: none;
}
</style></svg>