<svg xmlns="http://www.w3.org/2000/svg" width="960" height="500"><defs><style type="text/css">
.background {
  fill: white;
}

text {
  font-size: 14px;
  font-family: sans-serif;
}

.axis-path,
.axis-line {
  fill: none;
  stroke: #000;
  stroke-width: 1px;
  shape-rendering: crispEdges;
}

.line {
  fill: none;
  stroke-width: 1.5px;
}

.data-series-0 {
  stroke: steelblue;
  fill: steelblue;
}

.data-series-1 {
  stroke: crimson;
  fill: crimson;
}

.data-series-2 {
  stroke: mediumseagreen;
  fill: mediumseagreen;
}

.data-series-3 {
  stroke: mediumslateblue;
  fill: mediumslateblue;
}

.data-series-4 {
  stroke: goldenrod;
  fill: goldenrod;
}

.error-bar {
  fill: none;
}
</style></defs><rect width="960" height="500" class="background"/><g transform="translate(80,40)"><g transform="translate(420, 0)"><text style="text-anchor: middle; font-size: 28px;">Sort a structure</text></g><g class="x axis" transform="translate(0,400)"><g class="tick" transform="translate(40,0)" style="opacity: 1;"><line y2="6" x2="0" class="axis-line"/><text dy=".71em" y="9" x="0" style="text-anchor: middle;">2,000</text></g><g class="tick" transform="translate(120,0)" style="opacity: 1;"><line y2="6" x2="0" class="axis-line"/><text dy=".71em" y="9" x="0" style="text-anchor: middle;">3,000</text></g><g class="tick" transform="translate(200,0)" style="opacity: 1;"><line y2="6" x2="0" class="axis-line"/><text dy=".71em" y="9" x="0" style="text-anchor: middle;">4,000</text></g><g class="tick" transform="translate(280,0)" style="opacity: 1;"><line y2="6" x2="0" class="axis-line"/><text dy=".71em" y="9" x="0" style="text-anchor: middle;">5,000</text></g><g class="tick" transform="translate(360,0)" style="opacity: 1;"><line y2="6" x2="0" class="axis-line"/><text dy=".71em" y="9" x="0" style="text-anchor: middle;">6,000</text></g><g class="tick" transform="translate(440,0)" style="opacity: 1;"><line y2="6" x2="0" class="axis-line"/><text dy=".71em" y="9" x="0" style="text-anchor: middle;">7,000</text></g><g class="tick" transform="translate(520,0)" style="opacity: 1;"><line y2="6" x2="0" class="axis-line"/><text dy=".71em" y="9" x="0" style="text-anchor: middle;">8,000</text></g><g class="tick" transform="translate(600,0)" style="opacity: 1;"><line y2="6" x2="0" class="axis-line"/><text dy=".71em" y="9" x="0" style="text-anchor: middle;">9,000</text></g><g class="tick" transform="translate(680,0)" style="opacity: 1;"><line y2="6" x2="0" class="axis-line"/><text dy=".71em" y="9" x="0" style="text-anchor: middle;">10,000</text></g><g class="tick" transform="translate(760,0)" style="opacity: 1;"><line y2="6" x2="0" class="axis-line"/><text dy=".71em" y="9" x="0" style="text-anchor: middle;">11,000</text></g><g class="tick" transform="translate(840,0)" style="opacity: 1;"><line y2="6" x2="0" class="axis-line"/><text dy=".71em" y="9" x="0" style="text-anchor: middle;">12,000</text></g><path class="axis-path" d="M0,6V0H840V6"/><text x="420" y="40" style="text-anchor: middle;">Number of elements in the structure</text></g><g class="y axis"><g class="tick" transform="translate(0,366.04005704551804)" style="opacity: 1;"><line x2="-6" y2="0" class="axis-line"/><text dy=".32em" x="-9" y="0" style="text-anchor: end;">0.50</text></g><g class="tick" transform="translate(0,331.86639982566487)" style="opacity: 1;"><line x2="-6" y2="0" class="axis-line"/><text dy=".32em" x="-9" y="0" style="text-anchor: end;">1.00</text></g><g class="tick" transform="translate(0,297.6927426058117)" style="opacity: 1;"><line x2="-6" y2="0" class="axis-line"/><text dy=".32em" x="-9" y="0" style="text-anchor: end;">1.50</text></g><g class="tick" transform="translate(0,263.51908538595853)" style="opacity: 1;"><line x2="-6" y2="0" class="axis-line"/><text dy=".32em" x="-9" y="0" style="text-anchor: end;">2.00</text></g><g class="tick" transform="translate(0,229.34542816610534)" style="opacity: 1;"><line x2="-6" y2="0" class="axis-line"/><text dy=".32em" x="-9" y="0" style="text-anchor: end;">2.50</text></g><g class="tick" transform="translate(0,195.17177094625217)" style="opacity: 1;"><line x2="-6" y2="0" class="axis-line"/><text dy=".32em" x="-9" y="0" style="text-anchor: end;">3.00</text></g><g class="tick" transform="translate(0,160.99811372639897)" style="opacity: 1;"><line x2="-6" y2="0" class="axis-line"/><text dy=".32em" x="-9" y="0" style="text-anchor: end;">3.50</text></g><g class="tick" transform="translate(0,126.82445650654581)" style="opacity: 1;"><line x2="-6" y2="0" class="axis-line"/><text dy=".32em" x="-9" y="0" style="text-anchor: end;">4.00</text></g><g class="tick" transform="translate(0,92.65079928669265)" style="opacity: 1;"><line x2="-6" y2="0" class="axis-line"/><text dy=".32em" x="-9" y="0" style="text-anchor: end;">4.50</text></g><g class="tick" transform="translate(0,58.47714206683947)" style="opacity: 1;"><line x2="-6" y2="0" class="axis-line"/><text dy=".32em" x="-9" y="0" style="text-anchor: end;">5.00</text></g><g class="tick" transform="translate(0,24.3034848469863)" style="opacity: 1;"><line x2="-6" y2="0" class="axis-line"/><text dy=".32em" x="-9" y="0" style="text-anchor: end;">5.50</text></g><path class="axis-path" d="M-6,0H0V400H-6"/><text transform="rotate(-90)" y="6" dy=".71em" style="text-anchor: end;">Mean running time (seconds)</text></g><g class="data-series-0"><circle cx="0" cy="400" r="3"/><circle cx="120" cy="399.75652523286084" r="3"/><circle cx="240" cy="399.423010659627" r="3"/><circle cx="360" cy="399.14673981666897" r="3"/><circle cx="480" cy="398.8302037632907" r="3"/><circle cx="600" cy="398.5568053087252" r="3"/><circle cx="720" cy="398.2950180075925" r="3"/><circle cx="840" cy="397.8938619812269" r="3"/><path class="error-bar" x="0" y="400" d="M 0 400 V 399.9973114033524 h -3 h 6 h -3 V 400.0026885966476 h -3 h 6"/><path class="error-bar" x="120" y="399.75652523286084" d="M 120 399.75652523286084 V 399.75483011323354 h -3 h 6 h -3 V 399.7582203524882 h -3 h 6"/><path class="error-bar" x="240" y="399.423010659627" d="M 240 399.423010659627 V 399.4125971651923 h -3 h 6 h -3 V 399.43342415406164 h -3 h 6"/><path class="error-bar" x="360" y="399.14673981666897" d="M 360 399.14673981666897 V 399.1249449021281 h -3 h 6 h -3 V 399.16853473120983 h -3 h 6"/><path class="error-bar" x="480" y="398.8302037632907" d="M 480 398.8302037632907 V 398.72163817176113 h -3 h 6 h -3 V 398.9387693548203 h -3 h 6"/><path class="error-bar" x="600" y="398.5568053087252" d="M 600 398.5568053087252 V 398.48947990380594 h -3 h 6 h -3 V 398.6241307136444 h -3 h 6"/><path class="error-bar" x="720" y="398.2950180075925" d="M 720 398.2950180075925 V 398.2245452670595 h -3 h 6 h -3 V 398.36549074812547 h -3 h 6"/><path class="error-bar" x="840" y="397.8938619812269" d="M 840 397.8938619812269 V 397.8037388414007 h -3 h 6 h -3 V 397.9839851210531 h -3 h 6"/><path class="line" d="M0,400L120,399.75652523286084L240,399.423010659627L360,399.14673981666897L480,398.8302037632907L600,398.5568053087252L720,398.2950180075925L840,397.8938619812269"/></g><g class="data-series-1"><circle cx="0" cy="366.6525241649437" r="3"/><circle cx="120" cy="323.5161155035041" r="3"/><circle cx="240" cy="275.1021098059989" r="3"/><circle cx="360" cy="223.64192679288917" r="3"/><circle cx="480" cy="170.7227063195093" r="3"/><circle cx="600" cy="112.29979101194627" r="3"/><circle cx="720" cy="36.14173180860738" r="3"/><circle cx="840" cy="0" r="3"/><path class="error-bar" x="0" y="366.6525241649437" d="M 0 366.6525241649437 V 366.0184242949698 h -3 h 6 h -3 V 367.28662403491757 h -3 h 6"/><path class="error-bar" x="120" y="323.5161155035041" d="M 120 323.5161155035041 V 322.8986594471284 h -3 h 6 h -3 V 324.1335715598798 h -3 h 6"/><path class="error-bar" x="240" y="275.1021098059989" d="M 240 275.1021098059989 V 274.59264770466143 h -3 h 6 h -3 V 275.6115719073363 h -3 h 6"/><path class="error-bar" x="360" y="223.64192679288917" d="M 360 223.64192679288917 V 221.37786080321976 h -3 h 6 h -3 V 225.9059927825586 h -3 h 6"/><path class="error-bar" x="480" y="170.7227063195093" d="M 480 170.7227063195093 V 170.2350218243446 h -3 h 6 h -3 V 171.21039081467404 h -3 h 6"/><path class="error-bar" x="600" y="112.29979101194627" d="M 600 112.29979101194627 V 108.9773867207323 h -3 h 6 h -3 V 115.62219530316025 h -3 h 6"/><path class="error-bar" x="720" y="36.14173180860738" d="M 720 36.14173180860738 V -14.505352688965623 h -3 h 6 h -3 V 86.78881630618034 h -3 h 6"/><path class="error-bar" x="840" y="0" d="M 840 0 V -1.2089899005588656 h -3 h 6 h -3 V 1.20898990055891 h -3 h 6"/><path class="line" d="M0,366.6525241649437L120,323.5161155035041L240,275.1021098059989L360,223.64192679288917L480,170.7227063195093L600,112.29979101194627L720,36.14173180860738L840,0"/></g><g class="legend" transform="translate(50, 50)"><rect x="0" y="0" width="15" height="15" class="data-series-0"/><rect x="0" y="20" width="15" height="15" class="data-series-1"/><text x="24" y="13">Array</text><text x="24" y="33">Seq</text></g></g></svg>