<svg xmlns="http://www.w3.org/2000/svg" width="960" height="500"><defs><style type="text/css">
text {
  font-size: 14px;
  font-family: sans-serif;
}

.axis path,
.axis line {
  fill: none;
  stroke: #000;
  shape-rendering: crispEdges;
}

.line {
  fill: none;
  stroke-width: 1.5px;
}

.data-series-0 {
  stroke: steelblue;
  fill: steelblue;
}

.data-series-1 {
  stroke: crimson;
  fill: crimson;
}

.data-series-2 {
  stroke: mediumseagreen;
  fill: mediumseagreen;
}

.data-series-3 {
  stroke: mediumslateblue;
  fill: mediumslateblue;
}

.data-series-4 {
  stroke: goldenrod;
  fill: goldenrod;
}

.error-bar {
  fill: none;
}
</style></defs><g transform="translate(80,40)"><g transform="translate(420, 0)"><text style="text-anchor: middle; font-size: 28px;">Traverse a structure</text></g><g class="x axis" transform="translate(0,400)"><g class="tick" transform="translate(68.57142857142857,0)" style="opacity: 1;"><line y2="6" x2="0"/><text dy=".71em" y="9" x="0" style="text-anchor: middle;">5,000</text></g><g class="tick" transform="translate(154.2857142857143,0)" style="opacity: 1;"><line y2="6" x2="0"/><text dy=".71em" y="9" x="0" style="text-anchor: middle;">10,000</text></g><g class="tick" transform="translate(240,0)" style="opacity: 1;"><line y2="6" x2="0"/><text dy=".71em" y="9" x="0" style="text-anchor: middle;">15,000</text></g><g class="tick" transform="translate(325.7142857142857,0)" style="opacity: 1;"><line y2="6" x2="0"/><text dy=".71em" y="9" x="0" style="text-anchor: middle;">20,000</text></g><g class="tick" transform="translate(411.42857142857144,0)" style="opacity: 1;"><line y2="6" x2="0"/><text dy=".71em" y="9" x="0" style="text-anchor: middle;">25,000</text></g><g class="tick" transform="translate(497.1428571428571,0)" style="opacity: 1;"><line y2="6" x2="0"/><text dy=".71em" y="9" x="0" style="text-anchor: middle;">30,000</text></g><g class="tick" transform="translate(582.8571428571429,0)" style="opacity: 1;"><line y2="6" x2="0"/><text dy=".71em" y="9" x="0" style="text-anchor: middle;">35,000</text></g><g class="tick" transform="translate(668.5714285714286,0)" style="opacity: 1;"><line y2="6" x2="0"/><text dy=".71em" y="9" x="0" style="text-anchor: middle;">40,000</text></g><g class="tick" transform="translate(754.2857142857143,0)" style="opacity: 1;"><line y2="6" x2="0"/><text dy=".71em" y="9" x="0" style="text-anchor: middle;">45,000</text></g><g class="tick" transform="translate(840,0)" style="opacity: 1;"><line y2="6" x2="0"/><text dy=".71em" y="9" x="0" style="text-anchor: middle;">50,000</text></g><path class="domain" d="M0,6V0H840V6"/><text x="420" y="40" style="text-anchor: middle;">Number of elements in the structure</text></g><g class="y axis"><g class="tick" transform="translate(0,361.0029246505241)" style="opacity: 1;"><line x2="-6" y2="0"/><text dy=".32em" x="-9" y="0" style="text-anchor: end;">0.10</text></g><g class="tick" transform="translate(0,321.92096327231894)" style="opacity: 1;"><line x2="-6" y2="0"/><text dy=".32em" x="-9" y="0" style="text-anchor: end;">0.20</text></g><g class="tick" transform="translate(0,282.83900189411384)" style="opacity: 1;"><line x2="-6" y2="0"/><text dy=".32em" x="-9" y="0" style="text-anchor: end;">0.30</text></g><g class="tick" transform="translate(0,243.75704051590867)" style="opacity: 1;"><line x2="-6" y2="0"/><text dy=".32em" x="-9" y="0" style="text-anchor: end;">0.40</text></g><g class="tick" transform="translate(0,204.67507913770353)" style="opacity: 1;"><line x2="-6" y2="0"/><text dy=".32em" x="-9" y="0" style="text-anchor: end;">0.50</text></g><g class="tick" transform="translate(0,165.59311775949848)" style="opacity: 1;"><line x2="-6" y2="0"/><text dy=".32em" x="-9" y="0" style="text-anchor: end;">0.60</text></g><g class="tick" transform="translate(0,126.51115638129333)" style="opacity: 1;"><line x2="-6" y2="0"/><text dy=".32em" x="-9" y="0" style="text-anchor: end;">0.70</text></g><g class="tick" transform="translate(0,87.42919500308818)" style="opacity: 1;"><line x2="-6" y2="0"/><text dy=".32em" x="-9" y="0" style="text-anchor: end;">0.80</text></g><g class="tick" transform="translate(0,48.347233624883046)" style="opacity: 1;"><line x2="-6" y2="0"/><text dy=".32em" x="-9" y="0" style="text-anchor: end;">0.90</text></g><g class="tick" transform="translate(0,9.265272246677947)" style="opacity: 1;"><line x2="-6" y2="0"/><text dy=".32em" x="-9" y="0" style="text-anchor: end;">1.00</text></g><path class="domain" d="M-6,0H0V400H-6"/><text transform="rotate(-90)" y="6" dy=".71em" style="text-anchor: end;">Mean running time (seconds)</text></g><g class="data-series-0"><circle cx="0" cy="399.7832969047568" r="3"/><circle cx="17.142857142857142" cy="399.22995507390243" r="3"/><circle cx="34.285714285714285" cy="398.37607859794184" r="3"/><circle cx="51.42857142857143" cy="397.28278718735595" r="3"/><circle cx="68.57142857142857" cy="395.9484817394542" r="3"/><circle cx="85.71428571428572" cy="394.34847237697505" r="3"/><circle cx="102.85714285714286" cy="392.49956820975865" r="3"/><circle cx="120" cy="390.3843713438747" r="3"/><circle cx="137.14285714285714" cy="388.0164807983121" r="3"/><circle cx="154.2857142857143" cy="385.38730090958563" r="3"/><circle cx="171.42857142857144" cy="382.5325583760555" r="3"/><circle cx="188.57142857142858" cy="379.25497459024376" r="3"/><circle cx="205.71428571428572" cy="375.9215080698202" r="3"/><circle cx="222.85714285714286" cy="371.96473338804043" r="3"/><circle cx="240" cy="367.89269478816254" r="3"/><circle cx="257.14285714285717" cy="363.6103092215818" r="3"/><circle cx="274.2857142857143" cy="358.42026302206216" r="3"/><circle cx="291.42857142857144" cy="353.0592971414202" r="3"/><circle cx="308.5714285714286" cy="347.19346652694935" r="3"/><circle cx="325.7142857142857" cy="341.27094483302886" r="3"/><circle cx="342.8571428571429" cy="334.7917227657365" r="3"/><circle cx="360" cy="327.8328264333977" r="3"/><circle cx="377.14285714285717" cy="320.8649916652689" r="3"/><circle cx="394.2857142857143" cy="313.1004332777425" r="3"/><circle cx="411.42857142857144" cy="305.4200901949042" r="3"/><circle cx="428.57142857142856" cy="296.724180710996" r="3"/><circle cx="445.7142857142857" cy="288.8285529797015" r="3"/><circle cx="462.85714285714283" cy="279.53576445538073" r="3"/><circle cx="480" cy="270.46910516169584" r="3"/><circle cx="497.1428571428571" cy="260.81901982649055" r="3"/><circle cx="514.2857142857143" cy="251.15941270433132" r="3"/><circle cx="531.4285714285714" cy="241.19710098752466" r="3"/><circle cx="548.5714285714286" cy="230.33445812644828" r="3"/><circle cx="565.7142857142857" cy="220.1169092256917" r="3"/><circle cx="582.8571428571429" cy="208.01580519631253" r="3"/><circle cx="600" cy="197.41182688876876" r="3"/><circle cx="617.1428571428572" cy="185.0953638824351" r="3"/><circle cx="634.2857142857142" cy="172.84277817075395" r="3"/><circle cx="651.4285714285714" cy="161.5532588362349" r="3"/><circle cx="668.5714285714286" cy="148.21004756789344" r="3"/><circle cx="685.7142857142858" cy="135.19707344514762" r="3"/><circle cx="702.8571428571429" cy="121.49254401581456" r="3"/><circle cx="720" cy="107.79988573225" r="3"/><circle cx="737.1428571428571" cy="93.54894163039789" r="3"/><circle cx="754.2857142857143" cy="78.34029406497281" r="3"/><circle cx="771.4285714285714" cy="62.74352074953207" r="3"/><circle cx="788.5714285714286" cy="48.26063916474364" r="3"/><circle cx="805.7142857142857" cy="33.440089433647515" r="3"/><circle cx="822.8571428571429" cy="16.659467676687576" r="3"/><circle cx="840" cy="0" r="3"/><path class="error-bar" x="0" y="399.7832969047568" d="M 0 399.7832969047568 V 399.78024094141887 h -3 h 6 h -3 V 399.7863528680948 h -3 h 6"/><path class="error-bar" x="17.142857142857142" y="399.22995507390243" d="M 17.142857142857142 399.22995507390243 V 399.2157667182492 h -3 h 6 h -3 V 399.2441434295556 h -3 h 6"/><path class="error-bar" x="34.285714285714285" y="398.37607859794184" d="M 34.285714285714285 398.37607859794184 V 398.3324660557027 h -3 h 6 h -3 V 398.419691140181 h -3 h 6"/><path class="error-bar" x="51.42857142857143" y="397.28278718735595" d="M 51.42857142857143 397.28278718735595 V 397.208914037678 h -3 h 6 h -3 V 397.3566603370339 h -3 h 6"/><path class="error-bar" x="68.57142857142857" y="395.9484817394542" d="M 68.57142857142857 395.9484817394542 V 395.88197375650634 h -3 h 6 h -3 V 396.0149897224021 h -3 h 6"/><path class="error-bar" x="85.71428571428572" y="394.34847237697505" d="M 85.71428571428572 394.34847237697505 V 394.20777456432717 h -3 h 6 h -3 V 394.48917018962294 h -3 h 6"/><path class="error-bar" x="102.85714285714286" y="392.49956820975865" d="M 102.85714285714286 392.49956820975865 V 392.33025051305356 h -3 h 6 h -3 V 392.66888590646374 h -3 h 6"/><path class="error-bar" x="120" y="390.3843713438747" d="M 120 390.3843713438747 V 390.2155881125161 h -3 h 6 h -3 V 390.5531545752332 h -3 h 6"/><path class="error-bar" x="137.14285714285714" y="388.0164807983121" d="M 137.14285714285714 388.0164807983121 V 387.7319275196596 h -3 h 6 h -3 V 388.30103407696464 h -3 h 6"/><path class="error-bar" x="154.2857142857143" y="385.38730090958563" d="M 154.2857142857143 385.38730090958563 V 385.12556470826314 h -3 h 6 h -3 V 385.64903711090824 h -3 h 6"/><path class="error-bar" x="171.42857142857144" y="382.5325583760555" d="M 171.42857142857144 382.5325583760555 V 382.32178875413484 h -3 h 6 h -3 V 382.74332799797605 h -3 h 6"/><path class="error-bar" x="188.57142857142858" y="379.25497459024376" d="M 188.57142857142858 379.25497459024376 V 378.83494816730405 h -3 h 6 h -3 V 379.6750010131834 h -3 h 6"/><path class="error-bar" x="205.71428571428572" y="375.9215080698202" d="M 205.71428571428572 375.9215080698202 V 375.5919915963728 h -3 h 6 h -3 V 376.25102454326765 h -3 h 6"/><path class="error-bar" x="222.85714285714286" y="371.96473338804043" d="M 222.85714285714286 371.96473338804043 V 371.49671917981544 h -3 h 6 h -3 V 372.4327475962654 h -3 h 6"/><path class="error-bar" x="240" y="367.89269478816254" d="M 240 367.89269478816254 V 367.0656820937628 h -3 h 6 h -3 V 368.7197074825622 h -3 h 6"/><path class="error-bar" x="257.14285714285717" y="363.6103092215818" d="M 257.14285714285717 363.6103092215818 V 363.21246727090073 h -3 h 6 h -3 V 364.0081511722629 h -3 h 6"/><path class="error-bar" x="274.2857142857143" y="358.42026302206216" d="M 274.2857142857143 358.42026302206216 V 358.072920356439 h -3 h 6 h -3 V 358.7676056876853 h -3 h 6"/><path class="error-bar" x="291.42857142857144" y="353.0592971414202" d="M 291.42857142857144 353.0592971414202 V 352.84909539920733 h -3 h 6 h -3 V 353.26949888363305 h -3 h 6"/><path class="error-bar" x="308.5714285714286" y="347.19346652694935" d="M 308.5714285714286 347.19346652694935 V 346.6807116440209 h -3 h 6 h -3 V 347.70622140987786 h -3 h 6"/><path class="error-bar" x="325.7142857142857" y="341.27094483302886" d="M 325.7142857142857 341.27094483302886 V 340.5871845670208 h -3 h 6 h -3 V 341.954705099037 h -3 h 6"/><path class="error-bar" x="342.8571428571429" y="334.7917227657365" d="M 342.8571428571429 334.7917227657365 V 334.41845823285024 h -3 h 6 h -3 V 335.16498729862263 h -3 h 6"/><path class="error-bar" x="360" y="327.8328264333977" d="M 360 327.8328264333977 V 327.4519863290445 h -3 h 6 h -3 V 328.213666537751 h -3 h 6"/><path class="error-bar" x="377.14285714285717" y="320.8649916652689" d="M 377.14285714285717 320.8649916652689 V 320.4716906651324 h -3 h 6 h -3 V 321.2582926654054 h -3 h 6"/><path class="error-bar" x="394.2857142857143" y="313.1004332777425" d="M 394.2857142857143 313.1004332777425 V 312.62612904437935 h -3 h 6 h -3 V 313.5747375111057 h -3 h 6"/><path class="error-bar" x="411.42857142857144" y="305.4200901949042" d="M 411.42857142857144 305.4200901949042 V 304.951477148164 h -3 h 6 h -3 V 305.88870324164446 h -3 h 6"/><path class="error-bar" x="428.57142857142856" y="296.724180710996" d="M 428.57142857142856 296.724180710996 V 295.93258637395985 h -3 h 6 h -3 V 297.5157750480322 h -3 h 6"/><path class="error-bar" x="445.7142857142857" y="288.8285529797015" d="M 445.7142857142857 288.8285529797015 V 288.3788213233896 h -3 h 6 h -3 V 289.2782846360133 h -3 h 6"/><path class="error-bar" x="462.85714285714283" y="279.53576445538073" d="M 462.85714285714283 279.53576445538073 V 278.8570218226381 h -3 h 6 h -3 V 280.21450708812336 h -3 h 6"/><path class="error-bar" x="480" y="270.46910516169584" d="M 480 270.46910516169584 V 270.1569273537957 h -3 h 6 h -3 V 270.78128296959596 h -3 h 6"/><path class="error-bar" x="497.1428571428571" y="260.81901982649055" d="M 497.1428571428571 260.81901982649055 V 259.99549489774324 h -3 h 6 h -3 V 261.64254475523785 h -3 h 6"/><path class="error-bar" x="514.2857142857143" y="251.15941270433132" d="M 514.2857142857143 251.15941270433132 V 250.59521423500132 h -3 h 6 h -3 V 251.72361117366128 h -3 h 6"/><path class="error-bar" x="531.4285714285714" y="241.19710098752466" d="M 531.4285714285714 241.19710098752466 V 240.2766527120356 h -3 h 6 h -3 V 242.11754926301376 h -3 h 6"/><path class="error-bar" x="548.5714285714286" y="230.33445812644828" d="M 548.5714285714286 230.33445812644828 V 229.45052168702165 h -3 h 6 h -3 V 231.21839456587486 h -3 h 6"/><path class="error-bar" x="565.7142857142857" y="220.1169092256917" d="M 565.7142857142857 220.1169092256917 V 219.42003833509327 h -3 h 6 h -3 V 220.81378011629022 h -3 h 6"/><path class="error-bar" x="582.8571428571429" y="208.01580519631253" d="M 582.8571428571429 208.01580519631253 V 207.30406050269005 h -3 h 6 h -3 V 208.72754988993495 h -3 h 6"/><path class="error-bar" x="600" y="197.41182688876876" d="M 600 197.41182688876876 V 196.89535096908804 h -3 h 6 h -3 V 197.92830280844944 h -3 h 6"/><path class="error-bar" x="617.1428571428572" y="185.0953638824351" d="M 617.1428571428572 185.0953638824351 V 184.0704528866602 h -3 h 6 h -3 V 186.12027487820995 h -3 h 6"/><path class="error-bar" x="634.2857142857142" y="172.84277817075395" d="M 634.2857142857142 172.84277817075395 V 172.13463100148942 h -3 h 6 h -3 V 173.55092534001852 h -3 h 6"/><path class="error-bar" x="651.4285714285714" y="161.5532588362349" d="M 651.4285714285714 161.5532588362349 V 161.102417477383 h -3 h 6 h -3 V 162.0041001950868 h -3 h 6"/><path class="error-bar" x="668.5714285714286" y="148.21004756789344" d="M 668.5714285714286 148.21004756789344 V 146.8699519508319 h -3 h 6 h -3 V 149.55014318495498 h -3 h 6"/><path class="error-bar" x="685.7142857142858" y="135.19707344514762" d="M 685.7142857142858 135.19707344514762 V 134.33551648026904 h -3 h 6 h -3 V 136.05863041002624 h -3 h 6"/><path class="error-bar" x="702.8571428571429" y="121.49254401581456" d="M 702.8571428571429 121.49254401581456 V 120.18820915176632 h -3 h 6 h -3 V 122.79687887986279 h -3 h 6"/><path class="error-bar" x="720" y="107.79988573225" d="M 720 107.79988573225 V 106.6790295245347 h -3 h 6 h -3 V 108.92074193996532 h -3 h 6"/><path class="error-bar" x="737.1428571428571" y="93.54894163039789" d="M 737.1428571428571 93.54894163039789 V 92.50998738258454 h -3 h 6 h -3 V 94.58789587821124 h -3 h 6"/><path class="error-bar" x="754.2857142857143" y="78.34029406497281" d="M 754.2857142857143 78.34029406497281 V 77.41428292069953 h -3 h 6 h -3 V 79.26630520924607 h -3 h 6"/><path class="error-bar" x="771.4285714285714" y="62.74352074953207" d="M 771.4285714285714 62.74352074953207 V 61.98206380254256 h -3 h 6 h -3 V 63.50497769652152 h -3 h 6"/><path class="error-bar" x="788.5714285714286" y="48.26063916474364" d="M 788.5714285714286 48.26063916474364 V 47.4124494919601 h -3 h 6 h -3 V 49.10882883752716 h -3 h 6"/><path class="error-bar" x="805.7142857142857" y="33.440089433647515" d="M 805.7142857142857 33.440089433647515 V 32.674947012661406 h -3 h 6 h -3 V 34.205231854633624 h -3 h 6"/><path class="error-bar" x="822.8571428571429" y="16.659467676687576" d="M 822.8571428571429 16.659467676687576 V 15.882574618739298 h -3 h 6 h -3 V 17.436360734635812 h -3 h 6"/><path class="error-bar" x="840" y="0" d="M 840 0 V -0.9080529997175013 h -3 h 6 h -3 V 0.9080529997174569 h -3 h 6"/><path class="line" d="M0,399.7832969047568L17.142857142857142,399.22995507390243L34.285714285714285,398.37607859794184L51.42857142857143,397.28278718735595L68.57142857142857,395.9484817394542L85.71428571428572,394.34847237697505L102.85714285714286,392.49956820975865L120,390.3843713438747L137.14285714285714,388.0164807983121L154.2857142857143,385.38730090958563L171.42857142857144,382.5325583760555L188.57142857142858,379.25497459024376L205.71428571428572,375.9215080698202L222.85714285714286,371.96473338804043L240,367.89269478816254L257.14285714285717,363.6103092215818L274.2857142857143,358.42026302206216L291.42857142857144,353.0592971414202L308.5714285714286,347.19346652694935L325.7142857142857,341.27094483302886L342.8571428571429,334.7917227657365L360,327.8328264333977L377.14285714285717,320.8649916652689L394.2857142857143,313.1004332777425L411.42857142857144,305.4200901949042L428.57142857142856,296.724180710996L445.7142857142857,288.8285529797015L462.85714285714283,279.53576445538073L480,270.46910516169584L497.1428571428571,260.81901982649055L514.2857142857143,251.15941270433132L531.4285714285714,241.19710098752466L548.5714285714286,230.33445812644828L565.7142857142857,220.1169092256917L582.8571428571429,208.01580519631253L600,197.41182688876876L617.1428571428572,185.0953638824351L634.2857142857142,172.84277817075395L651.4285714285714,161.5532588362349L668.5714285714286,148.21004756789344L685.7142857142858,135.19707344514762L702.8571428571429,121.49254401581456L720,107.79988573225L737.1428571428571,93.54894163039789L754.2857142857143,78.34029406497281L771.4285714285714,62.74352074953207L788.5714285714286,48.26063916474364L805.7142857142857,33.440089433647515L822.8571428571429,16.659467676687576L840,0"/></g><g class="data-series-1"><circle cx="0" cy="400" r="3"/><circle cx="17.142857142857142" cy="399.9191122583436" r="3"/><circle cx="34.285714285714285" cy="399.8468249946792" r="3"/><circle cx="51.42857142857143" cy="399.7678957928962" r="3"/><circle cx="68.57142857142857" cy="399.69430169579016" r="3"/><circle cx="85.71428571428572" cy="399.62588346527497" r="3"/><circle cx="102.85714285714286" cy="399.54612703712303" r="3"/><circle cx="120" cy="399.4618359306726" r="3"/><circle cx="137.14285714285714" cy="399.38869520547723" r="3"/><circle cx="154.2857142857143" cy="399.3055359317499" r="3"/><circle cx="171.42857142857144" cy="399.2221899636589" r="3"/><circle cx="188.57142857142858" cy="399.1521308090719" r="3"/><circle cx="205.71428571428572" cy="399.0570678484095" r="3"/><circle cx="222.85714285714286" cy="398.99363481171883" r="3"/><circle cx="240" cy="398.9038715425659" r="3"/><circle cx="257.14285714285717" cy="398.82864879483645" r="3"/><circle cx="274.2857142857143" cy="398.72658109677144" r="3"/><circle cx="291.42857142857144" cy="398.68530745092016" r="3"/><circle cx="308.5714285714286" cy="398.5984473218275" r="3"/><circle cx="325.7142857142857" cy="398.5081535518263" r="3"/><circle cx="342.8571428571429" cy="398.42143100939876" r="3"/><circle cx="360" cy="398.3339980537818" r="3"/><circle cx="377.14285714285717" cy="398.26276969000423" r="3"/><circle cx="394.2857142857143" cy="398.17841663295314" r="3"/><circle cx="411.42857142857144" cy="398.0641982330728" r="3"/><circle cx="428.57142857142856" cy="398.0263605295443" r="3"/><circle cx="445.7142857142857" cy="397.93137562102123" r="3"/><circle cx="462.85714285714283" cy="397.7639197101806" r="3"/><circle cx="480" cy="397.6183112664467" r="3"/><circle cx="497.1428571428571" cy="397.5136550209911" r="3"/><circle cx="514.2857142857143" cy="397.38432709537307" r="3"/><circle cx="531.4285714285714" cy="397.2339027453626" r="3"/><circle cx="548.5714285714286" cy="397.14764927936255" r="3"/><circle cx="565.7142857142857" cy="397.0245188109717" r="3"/><circle cx="582.8571428571429" cy="396.9154971498481" r="3"/><circle cx="600" cy="396.7985331316977" r="3"/><circle cx="617.1428571428572" cy="396.64140493284634" r="3"/><circle cx="634.2857142857142" cy="396.47488215448146" r="3"/><circle cx="651.4285714285714" cy="396.34766288724046" r="3"/><circle cx="668.5714285714286" cy="396.2322188443669" r="3"/><circle cx="685.7142857142858" cy="396.00666842091937" r="3"/><circle cx="702.8571428571429" cy="395.95876905519884" r="3"/><circle cx="720" cy="395.83526874349826" r="3"/><circle cx="737.1428571428571" cy="395.6834621278388" r="3"/><circle cx="754.2857142857143" cy="395.55907662677623" r="3"/><circle cx="771.4285714285714" cy="395.464888565049" r="3"/><circle cx="788.5714285714286" cy="395.29007000142246" r="3"/><circle cx="805.7142857142857" cy="395.23182017282215" r="3"/><circle cx="822.8571428571429" cy="395.09259649704916" r="3"/><circle cx="840" cy="394.8836661152751" r="3"/><path class="error-bar" x="0" y="400" d="M 0 400 V 399.9988456721 h -3 h 6 h -3 V 400.0011543279 h -3 h 6"/><path class="error-bar" x="17.142857142857142" y="399.9191122583436" d="M 17.142857142857142 399.9191122583436 V 399.9170365505631 h -3 h 6 h -3 V 399.921187966124 h -3 h 6"/><path class="error-bar" x="34.285714285714285" y="399.8468249946792" d="M 34.285714285714285 399.8468249946792 V 399.8434367391136 h -3 h 6 h -3 V 399.85021325024485 h -3 h 6"/><path class="error-bar" x="51.42857142857143" y="399.7678957928962" d="M 51.42857142857143 399.7678957928962 V 399.762888523562 h -3 h 6 h -3 V 399.77290306223034 h -3 h 6"/><path class="error-bar" x="68.57142857142857" y="399.69430169579016" d="M 68.57142857142857 399.69430169579016 V 399.690805419004 h -3 h 6 h -3 V 399.6977979725763 h -3 h 6"/><path class="error-bar" x="85.71428571428572" y="399.62588346527497" d="M 85.71428571428572 399.62588346527497 V 399.6221352707113 h -3 h 6 h -3 V 399.62963165983865 h -3 h 6"/><path class="error-bar" x="102.85714285714286" y="399.54612703712303" d="M 102.85714285714286 399.54612703712303 V 399.5411015010977 h -3 h 6 h -3 V 399.55115257314833 h -3 h 6"/><path class="error-bar" x="120" y="399.4618359306726" d="M 120 399.4618359306726 V 399.4564126805115 h -3 h 6 h -3 V 399.46725918083365 h -3 h 6"/><path class="error-bar" x="137.14285714285714" y="399.38869520547723" d="M 137.14285714285714 399.38869520547723 V 399.3773533646141 h -3 h 6 h -3 V 399.4000370463403 h -3 h 6"/><path class="error-bar" x="154.2857142857143" y="399.3055359317499" d="M 154.2857142857143 399.3055359317499 V 399.2950477025439 h -3 h 6 h -3 V 399.31602416095586 h -3 h 6"/><path class="error-bar" x="171.42857142857144" y="399.2221899636589" d="M 171.42857142857144 399.2221899636589 V 399.2088034355904 h -3 h 6 h -3 V 399.2355764917273 h -3 h 6"/><path class="error-bar" x="188.57142857142858" y="399.1521308090719" d="M 188.57142857142858 399.1521308090719 V 399.1442300043222 h -3 h 6 h -3 V 399.16003161382156 h -3 h 6"/><path class="error-bar" x="205.71428571428572" y="399.0570678484095" d="M 205.71428571428572 399.0570678484095 V 399.0475297389629 h -3 h 6 h -3 V 399.0666059578559 h -3 h 6"/><path class="error-bar" x="222.85714285714286" y="398.99363481171883" d="M 222.85714285714286 398.99363481171883 V 398.98413514348283 h -3 h 6 h -3 V 399.0031344799548 h -3 h 6"/><path class="error-bar" x="240" y="398.9038715425659" d="M 240 398.9038715425659 V 398.8919928324891 h -3 h 6 h -3 V 398.9157502526427 h -3 h 6"/><path class="error-bar" x="257.14285714285717" y="398.82864879483645" d="M 257.14285714285717 398.82864879483645 V 398.8182217350124 h -3 h 6 h -3 V 398.8390758546605 h -3 h 6"/><path class="error-bar" x="274.2857142857143" y="398.72658109677144" d="M 274.2857142857143 398.72658109677144 V 398.706021496733 h -3 h 6 h -3 V 398.7471406968098 h -3 h 6"/><path class="error-bar" x="291.42857142857144" y="398.68530745092016" d="M 291.42857142857144 398.68530745092016 V 398.6636708640724 h -3 h 6 h -3 V 398.7069440377679 h -3 h 6"/><path class="error-bar" x="308.5714285714286" y="398.5984473218275" d="M 308.5714285714286 398.5984473218275 V 398.5836578947237 h -3 h 6 h -3 V 398.61323674893134 h -3 h 6"/><path class="error-bar" x="325.7142857142857" y="398.5081535518263" d="M 325.7142857142857 398.5081535518263 V 398.49238778883586 h -3 h 6 h -3 V 398.5239193148168 h -3 h 6"/><path class="error-bar" x="342.8571428571429" y="398.42143100939876" d="M 342.8571428571429 398.42143100939876 V 398.39616034003996 h -3 h 6 h -3 V 398.44670167875756 h -3 h 6"/><path class="error-bar" x="360" y="398.3339980537818" d="M 360 398.3339980537818 V 398.31855931607396 h -3 h 6 h -3 V 398.34943679148955 h -3 h 6"/><path class="error-bar" x="377.14285714285717" y="398.26276969000423" d="M 377.14285714285717 398.26276969000423 V 398.2410380633479 h -3 h 6 h -3 V 398.2845013166607 h -3 h 6"/><path class="error-bar" x="394.2857142857143" y="398.17841663295314" d="M 394.2857142857143 398.17841663295314 V 398.15559292983033 h -3 h 6 h -3 V 398.20124033607584 h -3 h 6"/><path class="error-bar" x="411.42857142857144" y="398.0641982330728" d="M 411.42857142857144 398.0641982330728 V 398.00896045666957 h -3 h 6 h -3 V 398.1194360094759 h -3 h 6"/><path class="error-bar" x="428.57142857142856" y="398.0263605295443" d="M 428.57142857142856 398.0263605295443 V 398.0051783256078 h -3 h 6 h -3 V 398.0475427334808 h -3 h 6"/><path class="error-bar" x="445.7142857142857" y="397.93137562102123" d="M 445.7142857142857 397.93137562102123 V 397.82923856050144 h -3 h 6 h -3 V 398.0335126815411 h -3 h 6"/><path class="error-bar" x="462.85714285714283" y="397.7639197101806" d="M 462.85714285714283 397.7639197101806 V 397.62972656124236 h -3 h 6 h -3 V 397.8981128591188 h -3 h 6"/><path class="error-bar" x="480" y="397.6183112664467" d="M 480 397.6183112664467 V 397.4598116786462 h -3 h 6 h -3 V 397.7768108542473 h -3 h 6"/><path class="error-bar" x="497.1428571428571" y="397.5136550209911" d="M 497.1428571428571 397.5136550209911 V 397.35612373044154 h -3 h 6 h -3 V 397.6711863115406 h -3 h 6"/><path class="error-bar" x="514.2857142857143" y="397.38432709537307" d="M 514.2857142857143 397.38432709537307 V 397.20736545136754 h -3 h 6 h -3 V 397.56128873937854 h -3 h 6"/><path class="error-bar" x="531.4285714285714" y="397.2339027453626" d="M 531.4285714285714 397.2339027453626 V 397.0587744272412 h -3 h 6 h -3 V 397.4090310634841 h -3 h 6"/><path class="error-bar" x="548.5714285714286" y="397.14764927936255" d="M 548.5714285714286 397.14764927936255 V 396.97985329039074 h -3 h 6 h -3 V 397.3154452683343 h -3 h 6"/><path class="error-bar" x="565.7142857142857" y="397.0245188109717" d="M 565.7142857142857 397.0245188109717 V 396.8456051404227 h -3 h 6 h -3 V 397.2034324815206 h -3 h 6"/><path class="error-bar" x="582.8571428571429" y="396.9154971498481" d="M 582.8571428571429 396.9154971498481 V 396.7305760996702 h -3 h 6 h -3 V 397.10041820002596 h -3 h 6"/><path class="error-bar" x="600" y="396.7985331316977" d="M 600 396.7985331316977 V 396.61827642750893 h -3 h 6 h -3 V 396.97878983588646 h -3 h 6"/><path class="error-bar" x="617.1428571428572" y="396.64140493284634" d="M 617.1428571428572 396.64140493284634 V 396.464782439378 h -3 h 6 h -3 V 396.8180274263147 h -3 h 6"/><path class="error-bar" x="634.2857142857142" y="396.47488215448146" d="M 634.2857142857142 396.47488215448146 V 396.3562155789012 h -3 h 6 h -3 V 396.5935487300617 h -3 h 6"/><path class="error-bar" x="651.4285714285714" y="396.34766288724046" d="M 651.4285714285714 396.34766288724046 V 396.2241744138352 h -3 h 6 h -3 V 396.4711513606457 h -3 h 6"/><path class="error-bar" x="668.5714285714286" y="396.2322188443669" d="M 668.5714285714286 396.2322188443669 V 396.1184783339997 h -3 h 6 h -3 V 396.3459593547341 h -3 h 6"/><path class="error-bar" x="685.7142857142858" y="396.00666842091937" d="M 685.7142857142858 396.00666842091937 V 395.71446912892145 h -3 h 6 h -3 V 396.29886771291734 h -3 h 6"/><path class="error-bar" x="702.8571428571429" y="395.95876905519884" d="M 702.8571428571429 395.95876905519884 V 395.76384930422455 h -3 h 6 h -3 V 396.1536888061731 h -3 h 6"/><path class="error-bar" x="720" y="395.83526874349826" d="M 720 395.83526874349826 V 395.6618498873426 h -3 h 6 h -3 V 396.0086875996538 h -3 h 6"/><path class="error-bar" x="737.1428571428571" y="395.6834621278388" d="M 737.1428571428571 395.6834621278388 V 395.4578880167126 h -3 h 6 h -3 V 395.90903623896503 h -3 h 6"/><path class="error-bar" x="754.2857142857143" y="395.55907662677623" d="M 754.2857142857143 395.55907662677623 V 395.3260310322552 h -3 h 6 h -3 V 395.7921222212973 h -3 h 6"/><path class="error-bar" x="771.4285714285714" y="395.464888565049" d="M 771.4285714285714 395.464888565049 V 395.2607233124724 h -3 h 6 h -3 V 395.6690538176256 h -3 h 6"/><path class="error-bar" x="788.5714285714286" y="395.29007000142246" d="M 788.5714285714286 395.29007000142246 V 395.0650884313838 h -3 h 6 h -3 V 395.5150515714612 h -3 h 6"/><path class="error-bar" x="805.7142857142857" y="395.23182017282215" d="M 805.7142857142857 395.23182017282215 V 395.0128316999837 h -3 h 6 h -3 V 395.45080864566063 h -3 h 6"/><path class="error-bar" x="822.8571428571429" y="395.09259649704916" d="M 822.8571428571429 395.09259649704916 V 394.8499330699405 h -3 h 6 h -3 V 395.3352599241578 h -3 h 6"/><path class="error-bar" x="840" y="394.8836661152751" d="M 840 394.8836661152751 V 394.6194400165139 h -3 h 6 h -3 V 395.14789221403623 h -3 h 6"/><path class="line" d="M0,400L17.142857142857142,399.9191122583436L34.285714285714285,399.8468249946792L51.42857142857143,399.7678957928962L68.57142857142857,399.69430169579016L85.71428571428572,399.62588346527497L102.85714285714286,399.54612703712303L120,399.4618359306726L137.14285714285714,399.38869520547723L154.2857142857143,399.3055359317499L171.42857142857144,399.2221899636589L188.57142857142858,399.1521308090719L205.71428571428572,399.0570678484095L222.85714285714286,398.99363481171883L240,398.9038715425659L257.14285714285717,398.82864879483645L274.2857142857143,398.72658109677144L291.42857142857144,398.68530745092016L308.5714285714286,398.5984473218275L325.7142857142857,398.5081535518263L342.8571428571429,398.42143100939876L360,398.3339980537818L377.14285714285717,398.26276969000423L394.2857142857143,398.17841663295314L411.42857142857144,398.0641982330728L428.57142857142856,398.0263605295443L445.7142857142857,397.93137562102123L462.85714285714283,397.7639197101806L480,397.6183112664467L497.1428571428571,397.5136550209911L514.2857142857143,397.38432709537307L531.4285714285714,397.2339027453626L548.5714285714286,397.14764927936255L565.7142857142857,397.0245188109717L582.8571428571429,396.9154971498481L600,396.7985331316977L617.1428571428572,396.64140493284634L634.2857142857142,396.47488215448146L651.4285714285714,396.34766288724046L668.5714285714286,396.2322188443669L685.7142857142858,396.00666842091937L702.8571428571429,395.95876905519884L720,395.83526874349826L737.1428571428571,395.6834621278388L754.2857142857143,395.55907662677623L771.4285714285714,395.464888565049L788.5714285714286,395.29007000142246L805.7142857142857,395.23182017282215L822.8571428571429,395.09259649704916L840,394.8836661152751"/></g><g class="legend" transform="translate(50, 50)"><rect x="0" y="0" width="15" height="15" class="data-series-0"/><rect x="0" y="20" width="15" height="15" class="data-series-1"/><text x="24" y="13">Array</text><text x="24" y="33">Seq</text></g></g></svg>